<svg viewBox="0 0 387.91 76.74" xmlns="http://www.w3.org/2000/svg"><path d="m2.13 1.28h73.67v73.67h-73.67z" fill="#fff" stroke="#30a342" stroke-miterlimit="10" stroke-width="2"/><rect fill="#30a342" height="59.39" rx="6.66" width="59.39" x="9.27" y="8.42"/><path d="m38.11 61.58c-1.65 0-2-.19-2.29-.95-1.78-4.32-5.52-12.89-8.7-19.5l-10.73-22.35c-.32-.64-.32-.7-1-.89l-2-.51c-.38-.13-.51-.26-.51-1.4s.13-1.33.51-1.33c1.46 0 5.59.44 10.22.44 3.37 0 12.77-.44 14.23-.44.38 0 .51.19.51 1.33s-.13 1.34-.51 1.4l-3.75.51c-.63.06-.76.25-.44.89l11.35 23.49 5-13.78c3.18-8.82 2.74-9.21.89-9.9l-3.3-1.21c-.38-.13-.51-.32-.51-1.46s.13-1.27.51-1.27c1.46 0 5.53.44 8.89.44s6.54-.44 8-.44c.38 0 .51.13.51 1.27s-.13 1.27-.51 1.46l-2.09.95c-1.91.89-2.16 1.27-6.42 9.85l-6.47 13c-3.31 6.61-7.31 15.18-9.09 19.5-.33.71-.65.9-2.3.9z" fill="#fff"/><path d="m79.79 1.28h73.67v73.67h-73.67z" fill="#fff" stroke="#1f47c7" stroke-miterlimit="10" stroke-width="2"/><rect fill="#1f47c7" height="59.39" rx="6.66" width="59.39" x="86.93" y="8.42"/><path d="m134.58 61.6c-4.32 0-10-.45-16.89-.45h-6.69c-8.44 0-15.94.45-17.4.45-.38 0-.51-.2-.51-1.34s.13-1.33.51-1.4l2.8-.44c.63-.13.76-.25.76-.89v-38.48c0-.64-.13-.77-.76-.89l-2.8-.45c-.38-.06-.51-.25-.51-1.39s.13-1.34.51-1.34c1.46 0 8.07.45 19.69.45h1.33c7.18 0 18.23-.39 21.78-.39 1.27 0 1.4.13 1.4 1.4a126 126 0 0 1 -.95 14.67c-.06.51-.26.64-1.72.64s-1.65-.13-1.84-.64c-1.71-4.95-2.16-6.67-3.74-10.41a2.26 2.26 0 0 0 -2.23-1.65c-3.17-.45-10.28-1-12.7-1h-.25c-.64 0-.76.13-.76.77v17.12h4.7c1.27 0 1.52-.19 2.09-1.46 1.33-3 1.84-4.13 3-6.67.19-.38.25-.44 1.71-.44s1.59.12 1.59.63c0 3.68-.07 5.91-.07 9.53s.07 5.84.07 9.52c0 .51-.13.64-1.59.64s-1.52-.07-1.71-.45c-1.15-2.54-1.66-3.68-3-6.67-.57-1.27-.82-1.46-2.09-1.46h-4.7v16a3.23 3.23 0 0 0 1 2.47 3 3 0 0 0 2.22.89 56.59 56.59 0 0 0 9.66-1 2.89 2.89 0 0 0 2.41-1.78c2.22-3.81 4.45-8.07 6.8-12.19.25-.45.38-.51.76-.51 1 0 3 .51 2.86 1.14-.89 5.21-2.1 11.37-3.12 16.07-.2 1.27-.35 1.4-1.62 1.4z" fill="#fff"/><path d="m157.45 1.28h73.67v73.67h-73.67z" fill="#fff" stroke="#d3290a" stroke-miterlimit="10" stroke-width="2"/><rect fill="#d3290a" height="59.39" rx="6.66" width="59.39" x="164.59" y="8.42"/><path d="m201.56 15.09a78.24 78.24 0 0 1 13.21.95c1.27.19 1.39.38 1.58 1.65a88.47 88.47 0 0 1 1 12.45c0 .5-.25.63-1.71.63s-1.66-.13-1.85-.63a28.1 28.1 0 0 0 -5.79-9.21c-2.16-2.16-4.38-3.05-8.19-3.05-6.42 0-11.69 4.25-11.69 14.29 0 10.48 3.43 20.89 7.94 25.4a7.24 7.24 0 0 0 5.43 2.43c2.29 0 4.45-.95 6.74-3.23 2.66-2.67 5.08-7.56 6.41-11.37.19-.51.38-.64 1.84-.64s1.72.13 1.72.64c0 2-1 9.21-1.78 14.6-.19 1.27-.38 1.47-1.65 1.66a101.78 101.78 0 0 1 -15.37 1c-17.21 0-29-8.83-29-23.44-.02-15.5 14.84-24.13 31.16-24.13z" fill="#fff"/><path d="m312.77 1.28h73.67v73.67h-73.67z" fill="#fff" stroke="#60368a" stroke-miterlimit="10" stroke-width="2"/><rect fill="#60368a" height="59.39" rx="6.66" width="59.39" x="319.91" y="8.42"/><path d="m355.76 14.36a78.12 78.12 0 0 1 13.21 1c1.27.19 1.4.38 1.59 1.65a90 90 0 0 1 1 12.44c0 .51-.25.64-1.71.64s-1.65-.13-1.84-.64a28.1 28.1 0 0 0 -5.85-9.2c-2.16-2.16-4.38-3.05-8.19-3.05-6.41 0-11.68 4.25-11.68 14.29 0 10.47 3.43 20.89 7.93 25.4a7.28 7.28 0 0 0 5.47 2.41c2.28 0 4.44-.95 6.73-3.24 2.67-2.66 5.08-7.55 6.41-11.36.19-.51.38-.64 1.84-.64s1.72.13 1.72.64c0 2-.95 9.2-1.78 14.6-.19 1.27-.38 1.46-1.65 1.65a100.38 100.38 0 0 1 -15.37 1c-17.21 0-29-8.83-29-23.44-.01-15.51 14.85-24.15 31.17-24.15z" fill="#fff"/><path d="m235.11 1.28h73.67v73.67h-73.67z" fill="#fff" stroke="#ccc108" stroke-miterlimit="10" stroke-width="2"/><rect fill="#ccc108" height="59.39" rx="6.66" width="59.39" x="242.25" y="8.42"/><path d="m268.24 61.42c-1.46 0-6.47-.44-11.74-.44s-10.36.44-11.82.44c-.38 0-.5-.19-.5-1.33s.12-1.34.5-1.4l2.8-.44c.63-.13.76-.26.76-.89v-38.49c0-.63-.13-.76-.76-.89l-2.8-.44c-.38-.07-.5-.26-.5-1.4s.12-1.33.5-1.33c3.69 0 8.64.44 14.67.44h3.43c2.29 0 9.34-.25 13.66-.25 10.67 0 15.49 4.38 15.49 11.11 0 5.08-3 9.34-9.21 11.43 1.4 2.67 2.86 5 6.29 10.35 5.53 8.58 6.8 10.29 9 10.55l1.52.19c.38.06.51.25.51 1.39s-.13 1.34-.51 1.34-6.53-.36-11.22-.36c-3.55 0-7.43.32-8.25.32a1.51 1.51 0 0 1 -1.53-1c-2.86-5.27-6.09-11.36-9.84-17.27-1.4-2.22-1.78-2.48-3.75-2.6h-.25v16.91c0 .63.12.76.76.89l2.79.44c.39.06.51.25.51 1.4s-.12 1.33-.51 1.33zm6.36-33.34c0-5.91-2.93-10.29-8.77-10.29h-.38c-.64 0-.76.13-.76.76v19a10.21 10.21 0 0 0 2.47.26c3.37-.01 7.44-1.92 7.44-9.73z" fill="#fff"/></svg>