<svg id="Layer_1" data-name="Layer 1" xmlns="http://www.w3.org/2000/svg" viewBox="0 0 75.72 76.09"><defs><style>.cls-1,.cls-3{fill:#fff;}.cls-1{stroke:#1f47c7;stroke-miterlimit:10;stroke-width:2px;}.cls-2{fill:#1f47c7;}</style></defs><rect class="cls-1" x="0.99" y="1.26" width="73.67" height="73.67"/><rect class="cls-2" x="8.13" y="8.4" width="59.39" height="59.39" rx="6.66"/><path class="cls-3" d="M39.86,14.49a5.81,5.81,0,0,0-6,1.41c-1.41,1.47-1.92,3.56-2.35,5.55-.36,1.66-.66,3.54.32,4.92s3,1.78,4.79,2a10,10,0,0,0,4-.12c2.82-.86,4.33-4.2,3.9-7.12S42.16,15.69,40,13.73"/><path class="cls-3" d="M34.63,14.31A24.22,24.22,0,0,0,30,18.68l6.42-6.15c-1,.71-2,1.58-2.09,2.78l.14-.43a3,3,0,0,0-1.39,2.46,3.69,3.69,0,0,0,.76-1.64,1.91,1.91,0,0,1-.05.95.71.71,0,0,1-.75.47c-.31-.07-.47-.55-.21-.73l-.38,1.16,0-1.32-.39,1.41a5.75,5.75,0,0,1,.29-2.06,16.47,16.47,0,0,1-.53,4,5.06,5.06,0,0,1,.28-2.16c.59-1.3,2.24-2,2.46-3.42l.38.17a1,1,0,0,0-1.37.69c-.19,0-.3-.3-.13-.39-.14.24.19.53.48.51a6.34,6.34,0,0,0,.81-.26,1,1,0,0,1,.81.24,4.85,4.85,0,0,1,.85-1.68.6.6,0,0,0,.68,0,1.69,1.69,0,0,0,.51,1.07l.69-.88.41.52-.77-1.57a2.18,2.18,0,0,1,.58,1.6.58.58,0,0,1,1,.18.77.77,0,0,0,.37-.82.76.76,0,0,0-.69-.57,1.42,1.42,0,0,1,1,1,3.19,3.19,0,0,0,.19.62.46.46,0,0,0,.53.26c.2-.08.17-.46,0-.46a1,1,0,0,1,1.1.21c-.09-.27-.56-.11-.6.18a1,1,0,0,0,.4.73l1.12,1.11.22-.57"/><path class="cls-3" d="M33.88,13A26.29,26.29,0,0,0,29,17.62a1.55,1.55,0,0,0,0,2.12,1.53,1.53,0,0,0,2.12,0l6.42-6.15a1.5,1.5,0,0,0-1.81-2.36c-1.44,1.08-2.64,2.21-2.84,4.08a1.48,1.48,0,0,0,1.3,1.48,1.51,1.51,0,0,0,1.64-1.08l.15-.43a1.51,1.51,0,0,0-2.2-1.69,4.66,4.66,0,0,0-2.14,3.75,1.52,1.52,0,0,0,1.1,1.44,1.58,1.58,0,0,0,1.7-.69,5,5,0,0,0,.9-2l-2.94-.4a2.56,2.56,0,0,1,0,.39l.67-.47.76.2.39,1.06-.39.66.09-.09L31.39,16,31,17.15l2.95.4,0-1.32A1.51,1.51,0,0,0,31,15.84l-.38,1.4,2.94.4A4.91,4.91,0,0,1,33.79,16l-2.95-.4a15.74,15.74,0,0,1-.47,3.61l2.94.4A3.72,3.72,0,0,1,33.46,18a3.39,3.39,0,0,1,.75-.9A5.5,5.5,0,0,0,36,14.41l-2.2.9.38.16,1.15-2.74a2.52,2.52,0,0,0-3.21,1.74L34,13.42l-.1,0,.66.39-.08-.08.39.66,0,.19-.44,1.06.07-.08L32,14.08a1.84,1.84,0,0,0,1.06,2.21,2,2,0,0,0,1.25.15,1.77,1.77,0,0,0,.41-.12c.39-.19.15,0-.24-.28A1.53,1.53,0,0,0,37,15.37a4.15,4.15,0,0,1,.7-1.33l-2.06.54a2.21,2.21,0,0,0,2.2,0l-2.21-.9a3.25,3.25,0,0,0,.9,1.74,1.53,1.53,0,0,0,2.13,0l.68-.87H37.2l.41.51a1.48,1.48,0,0,0,2,.12A1.51,1.51,0,0,0,40,13.29l-.77-1.58-2.36,1.82a.76.76,0,0,1,.14.54,1.52,1.52,0,0,0,2.56,1.06c-.6.41-1.1.25-1.51-.48a1.51,1.51,0,0,0,2.2.89,2.28,2.28,0,0,0,1.09-2.31,2.19,2.19,0,0,0-1.76-1.82,1.55,1.55,0,0,0-1.85,1.05,1.52,1.52,0,0,0,1,1.84s0-.06,0-.09c.17.26.17.7.33,1a2,2,0,0,0,2.15,1,1.75,1.75,0,0,0,0-3.36v2.89c.21,0,.21-.07,0,0a.37.37,0,0,1-.37-.13,1.53,1.53,0,0,0,2,.12,1.49,1.49,0,0,0,.39-1.94,1.79,1.79,0,0,0-2-.82,1.9,1.9,0,0,0-1.38,1.36c-.36,1.42,1,2.43,1.9,3.31a1.52,1.52,0,0,0,2.5-.67l.22-.57a1.51,1.51,0,0,0-1-1.85,1.54,1.54,0,0,0-1.85,1.05l-.22.58,2.51-.67-.72-.71-.32-.32c-.43-.43.13,0,0,.53l-.39.67-.65.24L41,15.6l.09,0-.53-.53.06.09L43,13.38a2.59,2.59,0,0,0-2.56-.59,1.51,1.51,0,0,0,0,2.89l.09,0-.66-.39.06.07-.39-.66,0-.2.21-.75.11-.15.66-.39-.15,0h.87l.54.54c-.24-.32-.34-1-.66-1.38a3.12,3.12,0,0,0-1.53-1l-.8,2.89c.29.09.25,0-.12-.34s-.37-.64.08-1l2.2.9a2.12,2.12,0,0,0-1.49-1.43,2,2,0,0,0-2,.59L40,14.07a3.9,3.9,0,0,0-1-2.66,1.49,1.49,0,0,0-2-.12,1.52,1.52,0,0,0-.38,1.94l.77,1.57L39.73,13l-.41-.52a1.5,1.5,0,0,0-2.12,0l-.69.87h2.13a.64.64,0,0,1-.13-.4c-.15-1.06-1.44-1.24-2.21-.9l-.16.07.75-.2.25.09a1.54,1.54,0,0,0-2,.54,6.21,6.21,0,0,0-1,2.05l2.5-.67a2.63,2.63,0,0,0-1.6-.68,2.5,2.5,0,0,0-.77.09,1.21,1.21,0,0,0-.3.11c-.38.11-.27.14.34.11l.54.54,0,.12V15l0-.12a1.51,1.51,0,0,0-2.51-1.46,1.74,1.74,0,0,0,.79,2.9A1.53,1.53,0,0,0,35,15.27a.59.59,0,0,1-.27.29c-.11,0-.57-.07-.21.07,1.57.59,2.71-2.05,1.15-2.75l-.37-.17a1.53,1.53,0,0,0-2.21.9,1.54,1.54,0,0,1-.52.9c-.36.38-.75.73-1.09,1.14a5.66,5.66,0,0,0-1.18,3.94,1.51,1.51,0,0,0,2.95.4,19.26,19.26,0,0,0,.58-4.41,1.5,1.5,0,0,0-2.94-.4,7.59,7.59,0,0,0-.35,2.46,1.51,1.51,0,0,0,2.95.4l.38-1.41-2.94-.4,0,1.32a1.51,1.51,0,0,0,2.95.4l.37-1.17a1.51,1.51,0,0,0-2.5-1.46,2,2,0,0,0,1.27,3.3,2.41,2.41,0,0,0,2.3-2.92A1.53,1.53,0,0,0,34,14.23,1.49,1.49,0,0,0,32.4,15.3a3,3,0,0,1-.6,1.28l2.79.76a1.5,1.5,0,0,1,.65-1.16L33,14.48l-.15.44,3,.39a1.7,1.7,0,0,1,.4-.65,6.88,6.88,0,0,1,.95-.84l-1.82-2.35L29,17.62l2.12,2.12a23.53,23.53,0,0,1,4.32-4.14,1.54,1.54,0,0,0,.54-2,1.52,1.52,0,0,0-2-.54Z"/><path class="cls-3" d="M38.26,13.35a3.93,3.93,0,0,0-4.08,3l2-1.87a1.64,1.64,0,0,1,1.31-.59,25,25,0,0,0-3.17,1.54c-.75.43-1.57,1.06-1.57,1.93a4.6,4.6,0,0,0,.06.52,5.71,5.71,0,0,1-.45,2.39l-.85-1.95a2.22,2.22,0,0,0-.3,1.33l-.31-.48a.39.39,0,0,0,.34.55.69.69,0,0,0,.6-.44,3.18,3.18,0,0,0,.19-.75c.4-1.75,2.19-2.76,3.8-3.54a4.18,4.18,0,0,1,1.4-.49c1.11-.09,2.37.7,3.26,0,.29-.22.58-.59.92-.48s.35.38.41.63c.24.93.46,1.87.68,2.81l.07-.89"/><path class="cls-3" d="M38.26,11.85A5.44,5.44,0,0,0,32.73,16a1.52,1.52,0,0,0,2.51,1.46l1.45-1.32c.22-.21.43-.43.66-.61-.05,0,.19-.17.16-.12.12-.06.1-.06,0,0s-.16.05.06.05l-.4-2.95a15,15,0,0,0-4.78,2.61,3.25,3.25,0,0,0-1.06,2.31,6.62,6.62,0,0,1,.06,1.18A8.81,8.81,0,0,1,31,19.89l2.74-.36-.85-1.94a1.51,1.51,0,0,0-2.59,0,3.87,3.87,0,0,0-.51,2.08l2.8-.76-.32-.47a1.52,1.52,0,0,0-2.74.35,1.91,1.91,0,0,0,1.27,2.37,2.14,2.14,0,0,0,2.41-1.1,5.82,5.82,0,0,0,.39-1.27,1.1,1.1,0,0,1,.23-.5c.15-.25,0,0,.15-.2a3.61,3.61,0,0,1,.33-.35,3.33,3.33,0,0,1,.54-.42,12,12,0,0,1,1.6-.91,3.67,3.67,0,0,1,.84-.36,1.77,1.77,0,0,1,.56,0,7.63,7.63,0,0,0,2.07.26,3,3,0,0,0,1.27-.37,3.8,3.8,0,0,0,.57-.42c.17-.16.12,0,0,0h-.79c-.47-.66-.63-.79-.5-.4,0,.14.08.29.11.43s.13.5.19.76c.13.54.26,1.08.38,1.62a1.51,1.51,0,0,0,2.95-.4l.07-.89a1.5,1.5,0,1,0-3,0l-.07.89,3-.4c-.37-1.59-.65-5-3.08-4.5a2.71,2.71,0,0,0-1.19.67c-.25.22-.09.06,0,0s-.21,0-.31,0l-.27-.06-.61-.12A5.24,5.24,0,0,0,37.27,13a6.91,6.91,0,0,0-2.6.91,12.72,12.72,0,0,0-2,1.27,6.37,6.37,0,0,0-1.45,1.57,5.76,5.76,0,0,0-.49,1.07,5.27,5.27,0,0,0-.14.6c-.11.49-.1.08.11,0l.75-.2.77.45.21.76,0,.16L29.64,20l.32.48c.76,1.16,2.87.81,2.79-.76a.87.87,0,0,1,.1-.57H30.26L31.11,21a1.46,1.46,0,0,0,1.49.72,1.53,1.53,0,0,0,1.25-1.08,7.6,7.6,0,0,0,.51-2.45,4,4,0,0,0,0-.5s0-.43,0-.31.12-.21,0,0c.16-.28-.07,0,.17-.2a7.4,7.4,0,0,1,1.42-.87,21.1,21.1,0,0,1,2-1,1.51,1.51,0,0,0-.4-2.95,3.24,3.24,0,0,0-2.45,1.11c-.66.59-1.31,1.19-2,1.79l2.51,1.46a2.43,2.43,0,0,1,2.63-1.92,1.51,1.51,0,0,0,1.5-1.5,1.54,1.54,0,0,0-1.5-1.5Z"/><path class="cls-3" d="M41.86,15.32a24.81,24.81,0,0,0-3.45-2.1,3,3,0,0,0-2-.43A3.06,3.06,0,0,0,35,13.84c-1.1,1.28-2.1,2.65-3.09,4l-.72,1a3.55,3.55,0,0,0-.47.76,3.11,3.11,0,0,0-.21,1,8.5,8.5,0,0,0,.12,2.14V19.51c0-.28.08-.65.36-.67a3.51,3.51,0,0,1,.3,3.42"/><path class="cls-3" d="M42.61,14a18,18,0,0,0-4.51-2.56,3.46,3.46,0,0,0-2.93.25,7.54,7.54,0,0,0-1.81,1.8c-1.14,1.4-2.2,2.87-3.26,4.33a5,5,0,0,0-1,2.46,10.38,10.38,0,0,0,.14,2.89,1.49,1.49,0,0,0,1.65,1.08,1.52,1.52,0,0,0,1.3-1.48V19.73c0-.24,0-.29,0-.15s-.19.35,0,.11l-.53.54-.17.06-1.69-.69a2.16,2.16,0,0,1,.38.91,2,2,0,0,1-.09,1,1.56,1.56,0,0,0,.54,2.06,1.51,1.51,0,0,0,2-.54,5.14,5.14,0,0,0-.29-4.94,1.56,1.56,0,0,0-1.7-.69c-1.16.3-1.46,1.4-1.46,2.45v2.95l2.94-.4a6.72,6.72,0,0,1-.05-1.89,4.11,4.11,0,0,1,.82-1.39c.81-1.12,1.61-2.24,2.48-3.32a8.54,8.54,0,0,1,1.29-1.46.34.34,0,0,1,.2-.12c-.18,0,.14,0,.12,0l.52.19a19.94,19.94,0,0,1,3.62,2.19,1.51,1.51,0,0,0,2-.54A1.54,1.54,0,0,0,42.61,14Z"/><path class="cls-3" d="M43.24,16.55a2.71,2.71,0,0,1,.34,1.72l.5-1.12a10.45,10.45,0,0,1,.78,5.49"/><path class="cls-3" d="M41.94,17.3a1.74,1.74,0,0,1,.1.19c-.08-.2-.09-.22,0-.07l.09.36c0,.12,0,.07,0-.14,0,.07,0,.14,0,.21s0,.28,0,.42a1.5,1.5,0,0,0,2.79.76l.51-1.12H42.79c-.16-.35,0,0,0,.05s.08.21.11.31.14.42.2.63.11.43.16.64l.06.33s.09.48,0,.23,0,.14,0,.18l0,.33c0,.22,0,.44,0,.66a10.39,10.39,0,0,1-.09,1.37,1.5,1.5,0,0,0,.44,1.06,1.52,1.52,0,0,0,1.06.44,1.46,1.46,0,0,0,1.06-.44,1.71,1.71,0,0,0,.44-1.06,12.05,12.05,0,0,0-1-6.24,1.5,1.5,0,0,0-2.59,0l-.51,1.12,2.8.75a4.24,4.24,0,0,0-.55-2.48,1.51,1.51,0,0,0-2.05-.54,1.53,1.53,0,0,0-.54,2.05Z"/><path class="cls-3" d="M38.66,31a27,27,0,0,0-5.61.16,1,1,0,0,0-1,.68A3,3,0,0,0,32,33q.44,5.13,1.17,10.16a3.41,3.41,0,0,0,.25,1c.31.62.87.6,1.35.76,1,.32,1.75,1.53,2.54,2.54s1.8,1.9,2.76,1.43a3.76,3.76,0,0,0,1.49-2.34c.31-1,.45-2.2.66-3.31.76-4.06,2.37-7.88,2.16-12.11a2,2,0,0,0-.17-.81.59.59,0,0,0-.65-.2l-5.84.95"/><path class="cls-3" d="M33,43.24,30.18,56.9a22.41,22.41,0,0,1,14.89.71,15.82,15.82,0,0,0-.32-4.11l-2-12a22.39,22.39,0,0,1-7.55,2.57,3.88,3.88,0,0,1-2.52-.23"/><path class="cls-3" d="M35.49,63.61a13.69,13.69,0,0,0-2.79.1c-.54.07-1.18.26-1.31.79a1,1,0,0,0,.48,1,2.37,2.37,0,0,0,1.17.27,2.48,2.48,0,0,0,1.71-.43A2.81,2.81,0,0,0,35.36,63"/><path class="cls-3" d="M39.85,63.24a2.37,2.37,0,0,0,.62,2.23c.74.57,1.8.29,2.68,0a.46.46,0,0,0,.28-.18c.07-.14,0-.3-.1-.43a4,4,0,0,0-3.49-1.66"/><path class="cls-3" d="M40.67,56.19l.17,7"/><path class="cls-3" d="M39.17,56.19l.17,7a1.5,1.5,0,0,0,1.5,1.5,1.52,1.52,0,0,0,1.5-1.5l-.17-7a1.5,1.5,0,0,0-3,0Z"/><path class="cls-3" d="M34.78,56.37q-.21,3.56-.1,7.11"/><path class="cls-3" d="M33.28,56.37q-.21,3.56-.1,7.11a1.5,1.5,0,0,0,3,0q-.1-3.55.1-7.11a1.5,1.5,0,0,0-1.5-1.5,1.53,1.53,0,0,0-1.5,1.5Z"/><path class="cls-3" d="M37.33,28.56v1.77a2.32,2.32,0,0,1,.15-1.3l.26,1.72a2,2,0,0,0,.42-1.68,3.17,3.17,0,0,0,.59,1.1l0-1.25"/><path class="cls-3" d="M35.83,28.56v1.77l3-.4s0-.07,0-.11l.06.4a2,2,0,0,1,0-.59l-.06.4a2.64,2.64,0,0,1,.17-.61H36l.26,1.73a1.59,1.59,0,0,0,.39.66,1.47,1.47,0,0,0,.66.38,1.36,1.36,0,0,0,.8,0,1.47,1.47,0,0,0,.66-.38,3.56,3.56,0,0,0,.48-.69,3.42,3.42,0,0,0,.3-.77,3.67,3.67,0,0,0,0-1.68l-2.9.79a6,6,0,0,0,.4.94,5.36,5.36,0,0,0,.58.83l.3.24.36.15.4.05a1,1,0,0,0,.57-.13.77.77,0,0,0,.34-.19.75.75,0,0,0,.26-.27.7.7,0,0,0,.2-.33,1.27,1.27,0,0,0,.13-.58l0-1.25a1.58,1.58,0,0,0-.44-1.06,1.56,1.56,0,0,0-1.06-.44,1.54,1.54,0,0,0-1.06.44,1.56,1.56,0,0,0-.44,1.06l0,1.25,2.56-1.06-.05-.06.24.3a3.71,3.71,0,0,1-.43-.72l.15.36c0-.11-.08-.21-.11-.32a1.59,1.59,0,0,0-.69-.9,1.12,1.12,0,0,0-.56-.18,1.22,1.22,0,0,0-.6,0,1.5,1.5,0,0,0-.89.69l-.16.36a1.51,1.51,0,0,0,0,.79l0,.14-.06-.4a2.35,2.35,0,0,1,0,.53l0-.4a1.67,1.67,0,0,1-.15.54l.16-.36a2.67,2.67,0,0,1-.25.43l.23-.31a.21.21,0,0,1,0,.06l2.51.66-.26-1.72-.16-.36a1,1,0,0,0-.38-.42.82.82,0,0,0-.33-.2,1.14,1.14,0,0,0-.58-.12,1.83,1.83,0,0,0-.76.2,1.12,1.12,0,0,0-.42.39,1.14,1.14,0,0,0-.27.51,4,4,0,0,0-.22,1,3.77,3.77,0,0,0,.08,1.06,1,1,0,0,0,.27.51,1.06,1.06,0,0,0,.42.39l.36.15a1.18,1.18,0,0,0,.59,0,.7.7,0,0,0,.38-.11,1.11,1.11,0,0,0,.49-.31,1.53,1.53,0,0,0,.43-1.06V28.56a1.56,1.56,0,0,0-.44-1.06,1.52,1.52,0,0,0-1.06-.44,1.5,1.5,0,0,0-1.5,1.5Z"/><path class="cls-3" d="M44.29,32.45,50.84,44A20.37,20.37,0,0,0,47,37.69a13.58,13.58,0,0,1-1.33-1.3,10.23,10.23,0,0,1-1.33-2.76,44.68,44.68,0,0,1,5.34,8.18"/><path class="cls-3" d="M43,33.21l6.56,11.5a1.51,1.51,0,0,0,2.05.54,1.53,1.53,0,0,0,.54-2A27,27,0,0,0,49,37.66c-.6-.76-1.36-1.34-2-2a7.1,7.1,0,0,1-1.19-2.38l-2.51,1.46a43.93,43.93,0,0,1,5.11,7.88A1.5,1.5,0,0,0,51,41.06a47,47,0,0,0-5.58-8.49A1.51,1.51,0,0,0,42.9,34a11.77,11.77,0,0,0,1.37,3c.64.89,1.52,1.53,2.24,2.35a22.29,22.29,0,0,1,3,5.36l2.59-1.51L45.58,31.69A1.5,1.5,0,0,0,43,33.21Z"/><path class="cls-3" d="M31.71,32.93l-1.07,2.25a13.48,13.48,0,0,0-1.12,2.9,13.61,13.61,0,0,0-.26,2.3l-.34,6.26.14-4.27a23.22,23.22,0,0,1,.56-5.26,12.06,12.06,0,0,1,1.87-4"/><path class="cls-3" d="M30.42,32.17c-1.05,2.2-2.27,4.35-2.55,6.8s-.31,5.12-.45,7.67h3c.08-2.34.06-4.71.28-7a11.66,11.66,0,0,1,2.09-5.71,1.51,1.51,0,0,0-.54-2.05,1.52,1.52,0,0,0-2.05.54c-3,4.18-2.62,9.39-2.78,14.27-.06,1.94,2.9,1.92,3,0,.13-2.38.21-4.78.4-7.16C31,37.4,32.13,35.53,33,33.69a1.56,1.56,0,0,0-.54-2.06,1.52,1.52,0,0,0-2,.54Z"/></svg>