<svg id="Layer_1" data-name="Layer 1" xmlns="http://www.w3.org/2000/svg" viewBox="0 0 387.07 76.6"><defs><style>.cls-1,.cls-2{fill:#fff;}.cls-1{stroke:#000;stroke-miterlimit:10;stroke-width:2px;}</style></defs><rect class="cls-1" x="1.41" y="1.38" width="73.67" height="73.67"/><rect x="8.55" y="8.52" width="59.39" height="59.39" rx="6.66"/><path class="cls-2" d="M37.39,61.68c-1.65,0-2-.19-2.29-1-1.78-4.32-5.52-12.9-8.7-19.5L15.67,18.88c-.32-.64-.32-.7-1-.89l-2-.51c-.38-.13-.51-.26-.51-1.4s.13-1.33.51-1.33c1.46,0,5.58.44,10.22.44,3.37,0,12.77-.44,14.23-.44.38,0,.5.19.5,1.33s-.12,1.34-.5,1.4L33.45,18c-.64.06-.76.25-.45.89L44.25,42.37l5-13.78c3.18-8.82,2.73-9.21.89-9.9l-3.3-1.21c-.38-.13-.51-.32-.51-1.46s.13-1.27.51-1.27c1.46,0,5.52.44,8.89.44s6.54-.44,8-.44c.38,0,.51.13.51,1.27s-.13,1.27-.51,1.46l-2.09.95c-1.91.89-2.16,1.27-6.42,9.84l-6.48,13c-3.3,6.6-7.3,15.18-9.08,19.5C39.36,61.49,39,61.68,37.39,61.68Z"/><rect class="cls-1" x="79.07" y="1.38" width="73.67" height="73.67"/><rect x="86.21" y="8.52" width="59.39" height="59.39" rx="6.66"/><path class="cls-2" d="M133.86,61.69c-4.32,0-10-.44-16.89-.44H110.3c-8.45,0-15.94.44-17.4.44-.38,0-.51-.19-.51-1.33s.13-1.33.51-1.4l2.79-.44c.64-.13.77-.25.77-.89V19.15c0-.64-.13-.77-.77-.89l-2.79-.45c-.38-.06-.51-.25-.51-1.4s.13-1.33.51-1.33c1.46,0,8.06.45,19.69.45h1.33c7.18,0,18.23-.39,21.78-.39,1.27,0,1.4.13,1.4,1.4a126,126,0,0,1-.95,14.67c-.07.51-.26.64-1.72.64s-1.65-.13-1.84-.64c-1.71-4.95-2.16-6.67-3.75-10.41a2.24,2.24,0,0,0-2.22-1.65c-3.17-.45-10.29-1-12.7-1h-.25c-.64,0-.77.13-.77.77V36h4.7c1.27,0,1.53-.19,2.1-1.46,1.33-3,1.84-4.13,3-6.67.19-.38.26-.45,1.72-.45s1.59.13,1.59.64c0,3.68-.07,5.91-.07,9.53s.07,5.84.07,9.52c0,.51-.13.64-1.59.64s-1.53-.07-1.72-.45c-1.14-2.54-1.65-3.68-3-6.67-.57-1.27-.83-1.46-2.1-1.46h-4.7v16a3.24,3.24,0,0,0,1,2.47,3,3,0,0,0,2.22.89,56.69,56.69,0,0,0,9.66-1,2.89,2.89,0,0,0,2.41-1.78c2.22-3.81,4.44-8.07,6.79-12.19.26-.45.38-.51.77-.51,1,0,3,.51,2.85,1.14-.89,5.21-2.09,11.37-3.11,16.07C135.26,61.57,135.13,61.69,133.86,61.69Z"/><rect class="cls-1" x="156.73" y="1.38" width="73.67" height="73.67"/><rect x="163.87" y="8.52" width="59.39" height="59.39" rx="6.66"/><path class="cls-2" d="M200.83,15.19a78.08,78.08,0,0,1,13.21,1c1.27.19,1.4.38,1.59,1.65a90,90,0,0,1,1,12.45c0,.5-.26.63-1.72.63s-1.65-.13-1.84-.63A28.1,28.1,0,0,0,207.25,21c-2.16-2.16-4.38-3.05-8.19-3.05-6.42,0-11.69,4.25-11.69,14.29,0,10.48,3.43,20.89,7.94,25.4a7.24,7.24,0,0,0,5.46,2.41c2.29,0,4.45-.95,6.73-3.23,2.67-2.67,5.08-7.56,6.42-11.37.19-.51.38-.64,1.84-.64s1.71.13,1.71.64c0,2-.95,9.21-1.77,14.6-.2,1.27-.39,1.46-1.66,1.66a101.55,101.55,0,0,1-15.36.95c-17.21,0-29-8.83-29-23.44C169.65,23.82,184.51,15.19,200.83,15.19Z"/><rect class="cls-1" x="312.05" y="1.69" width="73.67" height="73.67"/><rect x="319.19" y="8.84" width="59.39" height="59.39" rx="6.66"/><path class="cls-2" d="M355,14.78a78.24,78.24,0,0,1,13.21,1c1.27.19,1.39.38,1.58,1.65a88.47,88.47,0,0,1,1,12.45c0,.51-.25.64-1.71.64s-1.66-.13-1.85-.64a28.21,28.21,0,0,0-5.84-9.21c-2.16-2.16-4.38-3.05-8.19-3.05-6.41,0-11.69,4.26-11.69,14.29,0,10.48,3.43,20.9,7.94,25.41A7.24,7.24,0,0,0,355,59.68c2.29,0,4.45-1,6.74-3.24,2.66-2.67,5.08-7.56,6.41-11.37.19-.51.38-.63,1.84-.63s1.72.12,1.72.63c0,2-1,9.21-1.78,14.61-.19,1.27-.38,1.46-1.65,1.65a100.49,100.49,0,0,1-15.37,1c-17.21,0-29-8.82-29-23.43C323.86,23.42,338.72,14.78,355,14.78Z"/><rect class="cls-1" x="234.39" y="1.69" width="73.67" height="73.67"/><rect x="241.53" y="8.84" width="59.39" height="59.39" rx="6.66"/><path class="cls-2" d="M267.52,61.84c-1.46,0-6.48-.45-11.75-.45s-10.35.45-11.81.45c-.38,0-.51-.19-.51-1.34s.13-1.33.51-1.39l2.8-.45c.63-.12.76-.25.76-.89V19.29c0-.64-.13-.76-.76-.89L244,18c-.38-.07-.51-.26-.51-1.4s.13-1.34.51-1.34c3.68,0,8.64.45,14.67.45h3.43c2.29,0,9.34-.26,13.65-.26,10.67,0,15.5,4.39,15.5,11.12,0,5.08-3,9.33-9.21,11.43,1.4,2.67,2.86,4.95,6.29,10.35,5.52,8.57,6.79,10.29,8.95,10.54l1.53.19c.38.07.51.26.51,1.4s-.13,1.33-.51,1.33-6.54-.31-11.18-.31c-3.56,0-7.43.31-8.26.31a1.5,1.5,0,0,1-1.52-1c-2.86-5.27-6.1-11.37-9.84-17.27-1.4-2.22-1.78-2.48-3.75-2.61H264V57.77c0,.64.12.77.76.89l2.79.45c.38.06.51.25.51,1.39S267.9,61.84,267.52,61.84Zm6.35-33.34c0-5.91-2.92-10.29-8.76-10.29h-.38c-.64,0-.76.13-.76.76V38a10.26,10.26,0,0,0,2.47.25C269.81,38.21,273.87,36.31,273.87,28.5Z"/></svg>