<svg id="Layer_1" data-name="Layer 1" xmlns="http://www.w3.org/2000/svg" viewBox="0 0 75.72 75.91"><defs><style>.cls-1,.cls-3{fill:#fff;}.cls-1{stroke:#30a342;stroke-miterlimit:10;stroke-width:2px;}.cls-2{fill:#30a342;}</style></defs><rect class="cls-1" x="0.85" y="1.21" width="73.67" height="73.67"/><rect class="cls-2" x="7.99" y="8.35" width="59.39" height="59.39" rx="6.66"/><path class="cls-3" d="M36.27,15.58c-1.32-1-3.16-.05-4,1.54a12.64,12.64,0,0,0-1,5.46c-.06,1.5-.06,3.17.77,4.28a4.24,4.24,0,0,0,3.28,1.39,12.29,12.29,0,0,0,6.39-.64,6.67,6.67,0,0,0,3.8-5.82,8.27,8.27,0,0,0-2.67-5.73c-2.2-2.2-5.56-3.39-7.82-1.29"/><path class="cls-3" d="M33.1,16.08a13.86,13.86,0,0,0-2.29,7.64,16.9,16.9,0,0,1,1.51-7.51,6,6,0,0,0-1.54,4.08,17.82,17.82,0,0,0,.6,4.41,1,1,0,0,1-.31-.92l.17,6.5a6.2,6.2,0,0,0,.61-2.35,1,1,0,0,1,.44,1,1.66,1.66,0,0,0,.22-1.11L32.84,29c.14-.2.52,0,.45.23.24,0,.33-.36.17-.54a1.44,1.44,0,0,0-.65-.3c-1.38-.47-1.62-2.3-1.63-3.76V20.25a6,6,0,0,0-1.57,3.35,24.57,24.57,0,0,1,1.08-5.26,8.31,8.31,0,0,1,3.15-4.25q-1.41,1.9-3,3.67a12,12,0,0,0,3.8-3.07,1.3,1.3,0,0,0-1.47.14l1.22-1.18a2.93,2.93,0,0,0-2.46,1,5.4,5.4,0,0,1,1.4-1.12,8.81,8.81,0,0,0-2.53,1.79,7.41,7.41,0,0,1,3.87-1.82,3.54,3.54,0,0,1-.94,1.38c.35.1.64-.26,1-.44s.89.15.62.39c-.35-.18.17-.66.57-.62s1-.1.87-.48l2.09,0-4.19.06a11,11,0,0,1,2.66-.44l-3.09,0a3.34,3.34,0,0,1,1.26-.08,7.52,7.52,0,0,0-5.91,5.67,22.56,22.56,0,0,0,2.18-2.68,7.29,7.29,0,0,0-1.45,1.14,13.57,13.57,0,0,1,4.85-3.49c1.06-.45,2.41-.72,3.29,0a4.56,4.56,0,0,1,4.27,1.47,6.78,6.78,0,0,0-2.46-1.08A23.07,23.07,0,0,1,45.45,17a9.39,9.39,0,0,1-2.8-.1.89.89,0,0,0,0-.94,3.62,3.62,0,0,1,2.93,2.88,3.06,3.06,0,0,1-1.51-1,.77.77,0,0,1,.81.84,14.17,14.17,0,0,1-2,10.57l-.39-1.43.42.59c-.11-.2.12-.44.34-.43a1,1,0,0,1,.57.32,1.17,1.17,0,0,1,2-.68l-1.3.09c.18.4-.44.76-.82.55a1.64,1.64,0,0,1-.62-1.11,17.7,17.7,0,0,1,2.6,2,4,4,0,0,0-2.19-.8.52.52,0,0,0-.06.69c.26.5,1.09.35,1.38-.12A2.36,2.36,0,0,0,45,27.23a1.82,1.82,0,0,1,.92-.13,1.6,1.6,0,0,0,.22-.79c0-.28-.26-.55-.53-.52s-.4.49-.14.59a1.52,1.52,0,0,1-1.16-.6,1.2,1.2,0,0,1,.93,0l.29-3.89c.11-1.45.13-3.13-1-4.1-.51-.47-1.23-.73-1.54-1.35-.4-.81.09-1.91-.45-2.63a2,2,0,0,0-1.4-.63,14.25,14.25,0,0,0-3.69-.09,8.82,8.82,0,0,1,7.61,3.59,6.38,6.38,0,0,1-1.6-1.42,2.41,2.41,0,0,1,1.64,1.77"/><path class="cls-3" d="M31.8,15.33a15.68,15.68,0,0,0-2.49,8.39h3A15.67,15.67,0,0,1,33.62,17,1.54,1.54,0,0,0,33.23,15a1.5,1.5,0,0,0-2,.12c-2.58,2.79-2.08,6.54-1.32,10l2.5-1.46.13.14h-3l.17,6.5c0,1.38,2.14,2.19,2.79.76a8.91,8.91,0,0,0,.82-3.11L30.79,29c.06-.13.05-.14,0,0-.17,1.48,2.15,2,2.79.76A3.6,3.6,0,0,0,34,27.85l-2.94.39.32,1.14a1.52,1.52,0,0,0,2.2.89l.14-.08-1.15.15.16,0L32.08,30l.13.12-.44-1.06,0,.16a1.52,1.52,0,0,0,1.9,1.44,1.84,1.84,0,0,0,1.06-2.74c-.47-.77-1.5-.63-1.82-1.43a6.31,6.31,0,0,1-.25-2.37V20.25a1.52,1.52,0,0,0-2.56-1.06,7.5,7.5,0,0,0-1.95,4l2.94.4c.38-2.89.85-6.45,3.48-8.21l-2.05-2.06q-1.29,1.74-2.73,3.37a1.5,1.5,0,0,0,1.82,2.35,13.94,13.94,0,0,0,4.1-3.3,1.51,1.51,0,0,0-.3-2.35,2.89,2.89,0,0,0-3,.13l1.82,2.36,1.22-1.18a1.52,1.52,0,0,0-1.06-2.56,4.54,4.54,0,0,0-3.52,1.4L33,15.68a4.44,4.44,0,0,1,1.1-.88c1.69-1,.2-3.44-1.51-2.59a10.72,10.72,0,0,0-2.84,2c-1.4,1.36.68,3.37,2.12,2.12a6.34,6.34,0,0,1,3.21-1.43l-1.7-2.2a3.06,3.06,0,0,1-.7,1.07,1.52,1.52,0,0,0,1.06,2.56,1.9,1.9,0,0,0,1-.19A1.18,1.18,0,0,0,35.1,16c.32-.2.23-.22-.26-.08l-.66-.38.12.1L33.91,15l0,.12.16-1.15-.07.13,2.35-.31-.1-.09.44,1.06V14.6l-.2.75c-.7.24-.84.35-.44.33a5.6,5.6,0,0,0,.59-.07,2.46,2.46,0,0,0,.7-.26,1.74,1.74,0,0,0,.9-1.65l-1.5,1.5,2.09,0v-3l-4.19.06.4,3a10.19,10.19,0,0,1,2.26-.39,1.5,1.5,0,0,0,0-3l-3.09,0,.39,2.95a2.83,2.83,0,0,1,.87,0l-.4-2.94a9,9,0,0,0-7,6.71A1.51,1.51,0,0,0,30.65,20a25.52,25.52,0,0,0,2.41-3c.87-1.25-.82-2.83-2.05-2a11.08,11.08,0,0,0-1.76,1.37l2.13,2.12a12.2,12.2,0,0,1,2.52-2.18A7.44,7.44,0,0,1,36.78,15c.44-.06.56.07.92.25.58.3,1.13.1,1.75.12a3.17,3.17,0,0,1,2.22,1.11l1.82-2.36a9,9,0,0,0-2.82-1.23,1.51,1.51,0,0,0-.8,2.9,22.54,22.54,0,0,1,4.82,2.51l.76-2.8a8.77,8.77,0,0,1-2.4,0l.9,2.2a2.47,2.47,0,0,0,.18-2.09l-1.84,1.84a2.24,2.24,0,0,1,1.88,1.84L46,17.34a2,2,0,0,1-.85-.65L44.1,19.25l0,0-.66-.38-.05-.32a5,5,0,0,0,.08.54c0,.19.08.38.1.58a10.69,10.69,0,0,1,.1,1.27,12.25,12.25,0,0,1-.17,2.56,13.22,13.22,0,0,1-1.93,4.86l2.74.36L44,27.33l-2.74,1.16.41.58c.79,1.12,2.89.86,2.8-.75v-.2L44,29.18l.14-.17-.66.39.21-.07h-.8l-.09-.06a1.52,1.52,0,0,0,2.56-1.06c0,.22-.38.49-.23.44s.11,0-.2,0c-.26-.21-.3-.22-.11,0L45.85,26l-1.3.09A1.52,1.52,0,0,0,43.11,28l0,.16v-.79l0,.15.38-.66c1,.53,1.35.57,1.18.1a1.92,1.92,0,0,1-.09-.32l-2.2,1.69a17.35,17.35,0,0,1,2.29,1.81l1.82-2.36a4.58,4.58,0,0,0-3.35-.95c-1.38.38-1.56,2.23-.73,3.19a2.3,2.3,0,0,0,3.1.27c1.15-.82,1.12-2.22.92-3.48l-1,1.85a.78.78,0,0,1,.52-.08,1.45,1.45,0,0,0,1.29-.74,2.9,2.9,0,0,0,.32-2.15,2,2,0,0,0-1.72-1.4,1.82,1.82,0,0,0-1.4,3.13l1.06-2.56c.14,0,.09.06-.1-.16l-.66,2.5s.09,0,.13,0a1.52,1.52,0,0,0,1.9-1.45A42.27,42.27,0,0,0,47,20.3a5.11,5.11,0,0,0-2.28-4.21l-.26-.17c-.14-.11-.14-.14-.13-.13a4.09,4.09,0,0,1,0-1,3,3,0,0,0-1.16-2.37c-1.5-1.07-4-.92-5.7-.76s-1.95,3.1,0,3a7.39,7.39,0,0,1,6.31,2.85l2.06-2.05a5.89,5.89,0,0,1-1.3-1.19l-1.46,2.51a.93.93,0,0,1,.59.72,1.51,1.51,0,0,0,2.9-.8,4,4,0,0,0-2.69-2.81c-1.54-.54-2.34,1.46-1.46,2.5A8.37,8.37,0,0,0,44.32,18c1.21.78,3-.83,2-2.05a10.42,10.42,0,0,0-8.9-4.34v3a15.11,15.11,0,0,1,2.69,0c.35,0,.7.12,1.05.15a.36.36,0,0,1,.27.1q-.21-.32-.15-.09a4.2,4.2,0,0,0,.15,1.89,3.35,3.35,0,0,0,1.37,1.79c.4.29.81.49,1,1a4,4,0,0,1,.2,1.54c0,1.63-.22,3.26-.34,4.88l1.9-1.44a2.92,2.92,0,0,0-1.73,0,1.52,1.52,0,0,0-.66,2.51,3.23,3.23,0,0,0,2.22,1,1.51,1.51,0,0,0,1.06-2.56l-.11-.1.39.66,0-.14v.87l-.54.54.14-.07-1.15.15h0l-.54-.54,0-.35,1.3-.74a3.28,3.28,0,0,0-1.32.18,1.57,1.57,0,0,0-1,1.85l0,.16c-.06.29,0,.36.07.23.18.05.42-.39.72-.18l.53.54a1.44,1.44,0,0,1-.19-.31l.21.75-.06.23-1.3.75a2.79,2.79,0,0,1,1.43.59c1.4,1,3.06-1.2,1.82-2.35a22,22,0,0,0-2.9-2.28,1.52,1.52,0,0,0-2.2,1.7c.28,1.14,1,2.27,2.32,2.26a2,2,0,0,0,2-2.5l-1.45,1.9,1.3-.09a1.52,1.52,0,0,0,1.06-2.56c-1.55-1.81-4.45-.43-4.58,1.74l2.56-1.06a2.24,2.24,0,0,0-2.14-.68,1.8,1.8,0,0,0-1.33,1.85l2.79-.76L43.8,27a1.51,1.51,0,0,0-2.74,1.16l.38,1.43a1.52,1.52,0,0,0,2.74.35,16,16,0,0,0,2.46-7.24,15.42,15.42,0,0,0-.16-3.78A3.56,3.56,0,0,0,46,17.23a2.32,2.32,0,0,0-1.89-1A1.52,1.52,0,0,0,43,18.81a5,5,0,0,0,2.17,1.43c1.15.41,2.07-.82,1.85-1.85a5.17,5.17,0,0,0-4-3.93c-1-.2-2.3.69-1.84,1.84l.12-.21a1.51,1.51,0,0,0,.89,2.2,11.46,11.46,0,0,0,3.2.16,1.51,1.51,0,0,0,.76-2.79,26.28,26.28,0,0,0-5.54-2.82l-.8,2.9a6.52,6.52,0,0,1,2.11.92c1.47,1,2.93-1.14,1.82-2.36a6.24,6.24,0,0,0-5.74-1.84l1.15.15c-1.6-1.19-3.69-.57-5.32.21a15,15,0,0,0-4.64,3.49,1.5,1.5,0,0,0,2.13,2.12,6.54,6.54,0,0,1,1.14-.9l-2.05-2.05a22,22,0,0,1-1.94,2.37L31,19.31a6.12,6.12,0,0,1,4.87-4.62A1.5,1.5,0,0,0,37,13a1.52,1.52,0,0,0-1.48-1.3,6.14,6.14,0,0,0-1.66.13c-1.69.35-1.26,2.94.4,3l3.09,0v-3a13.59,13.59,0,0,0-3,.5,1.5,1.5,0,0,0,.39,2.94l4.19-.06a1.5,1.5,0,0,0,0-3l-2.09,0a1.51,1.51,0,0,0-1.5,1.5l0,.15.2-.76.06-.09.67-.39a3.32,3.32,0,0,1-.69.11,2.27,2.27,0,0,0-1.25.63,1.72,1.72,0,0,0,0,2.51,1.52,1.52,0,0,0,2.36-.3,1.75,1.75,0,0,0-.81-2.49,2,2,0,0,0-1.33-.16,2.2,2.2,0,0,0-.54.2c-.19.11-.51.23-.19.24l1.06,2.56A5.14,5.14,0,0,0,36,14.23,1.52,1.52,0,0,0,34.3,12a9.13,9.13,0,0,0-4.53,2.2l2.12,2.12a8.41,8.41,0,0,1,2.23-1.55l-1.51-2.59a7.19,7.19,0,0,0-1.71,1.34c-1.32,1.41.77,3.52,2.12,2.13a1.6,1.6,0,0,1,1.4-.53l-1.06-2.56-1.22,1.18c-1.2,1.15.39,3.35,1.81,2.35.33-.23.13-.06,0-.13l-.31-2.36a11.51,11.51,0,0,1-3.49,2.83l1.81,2.36c1.13-1.28,2.19-2.61,3.2-4,.9-1.21-.85-2.86-2.05-2-3.66,2.45-4.44,6.72-5,10.8-.21,1.66,2.71,2.07,2.95.4a4.8,4.8,0,0,1,1.18-2.69l-2.56-1.06a39.18,39.18,0,0,0,.15,6.13,5,5,0,0,0,.79,2.08,3.32,3.32,0,0,0,1,1c.34.22.8.3,1.11.54l-.54-.54.08.16L32,28.84V29l.21-.76-.09.14.9-.69-.15.05,1.9,1.45a1.79,1.79,0,0,0-2.71-1.53l2.2.9L34,27.45c-.45-1.59-3-1.34-2.95.4a.3.3,0,0,1,0,.35l2.8.76a2.39,2.39,0,0,0-.88-2.09,1.52,1.52,0,0,0-2.56,1.06,4.67,4.67,0,0,1-.41,1.59l2.8.76-.17-6.5a1.5,1.5,0,0,0-3,0,2.65,2.65,0,0,0,.75,2c1.05,1.2,2.81-.1,2.51-1.46-.5-2.23-1.2-5.14.55-7L31,15.45a19.21,19.21,0,0,0-1.72,8.27,1.5,1.5,0,0,0,3,0,12.77,12.77,0,0,1,2.08-6.88c1.06-1.62-1.54-3.13-2.59-1.51Z"/><path class="cls-3" d="M36.73,31.9C31.64,37.56,32.24,47.5,27.9,54c1.43-1.39,3.57-.84,5.35-.22l5.43,1.88a2.19,2.19,0,0,0,1,.18,2.83,2.83,0,0,0,1-.46,6.62,6.62,0,0,1,2.56-.85c-.24-.46.35-.88.79-1,1.37-.31,3-.84,3.36-2.42a5,5,0,0,0-.78-3.15,64.28,64.28,0,0,1-4.54-12.6,5.29,5.29,0,0,0-1.4-2.91,3.25,3.25,0,0,0-1.35-.55,4.8,4.8,0,0,0-3.44.29,5.54,5.54,0,0,0-2.32,3.73,18.85,18.85,0,0,0-.17,4.75"/><path class="cls-3" d="M35.05,62.73l-2.48.3a3,3,0,0,0-1.21.33,1,1,0,0,0-.55,1,1.15,1.15,0,0,0,.74.75,2.89,2.89,0,0,0,2.79-.64,1.26,1.26,0,0,0,.46-.59.56.56,0,0,0-.23-.66"/><path class="cls-3" d="M42.78,62.62a1.36,1.36,0,0,0-1.47.23A1.27,1.27,0,0,0,41,64.3c.42.82,1.58.88,2.49.67a10.11,10.11,0,0,0,1.19-.35c.4-.15.85-.46.77-.87s-.58-.52-1-.56L42.45,63"/><path class="cls-3" d="M34.73,54.5a23.91,23.91,0,0,1-.56,8.13"/><path class="cls-3" d="M33.23,54.5a25.58,25.58,0,0,1,.08,4c0,.31-.05.62-.08.93l-.06.53c0,.11,0,.1,0,0,0,.1,0,.2-.05.3-.1.66-.23,1.32-.39,2a1.5,1.5,0,0,0,2.89.8,25.53,25.53,0,0,0,.61-8.53,1.54,1.54,0,0,0-1.5-1.5,1.52,1.52,0,0,0-1.5,1.5Z"/><path class="cls-3" d="M41,55.57v5.77a2,2,0,0,0,.59,1.75"/><path class="cls-3" d="M39.5,55.57v4.59a17.4,17.4,0,0,0,0,1.91,3.18,3.18,0,0,0,1.29,2.32,1.51,1.51,0,0,0,2.06-.54,1.55,1.55,0,0,0-.54-2.05.65.65,0,0,1,.26.26,1,1,0,0,1-.1-.17s.14.34,0,0,0,.29,0,0c0-.14,0-.28,0-.42,0-.62,0-1.25,0-1.88v-4a1.5,1.5,0,1,0-3,0Z"/><path class="cls-3" d="M33.53,35.54c-3,3-5.81,6.09-8.53,9.29A3.88,3.88,0,0,1,26.23,43l2-2a11,11,0,0,1,1.12-1c.34-.27.71-.5,1.06-.75a16,16,0,0,0,2.84-3"/><path class="cls-3" d="M32.46,34.48c-2.95,3-5.8,6.09-8.52,9.29l2.51,1.46s.12-.38.06-.24.08-.13.09-.15.2-.3.07-.13a2.2,2.2,0,0,1,.2-.23c.34-.38.7-.73,1.06-1.08.74-.75,1.46-1.54,2.25-2.24.2-.17.62-.44.95-.68a10.73,10.73,0,0,0,1.27-1,22.56,22.56,0,0,0,1.94-2.21,1.54,1.54,0,0,0,0-2.12,1.51,1.51,0,0,0-2.12,0,22.49,22.49,0,0,1-2,2.26,6.64,6.64,0,0,1-1,.81,11.59,11.59,0,0,0-1.41,1.1c-.8.74-1.55,1.55-2.32,2.33a6.27,6.27,0,0,0-1.94,2.83,1.56,1.56,0,0,0,.69,1.7,1.53,1.53,0,0,0,1.82-.24q4.08-4.8,8.53-9.29a1.5,1.5,0,1,0-2.13-2.12Z"/><path class="cls-3" d="M42,35.19l7.1,4.23a10.29,10.29,0,0,1,2.33,1.69,3.65,3.65,0,0,1,1.13,2.57A26.24,26.24,0,0,0,44,37.23,3.87,3.87,0,0,1,42.23,36"/><path class="cls-3" d="M41.22,36.49l6.13,3.64a20.4,20.4,0,0,1,2.54,1.61,3.49,3.49,0,0,1,.85.93,1.73,1.73,0,0,1,.3,1l2.56-1.06a27.82,27.82,0,0,0-5-4.48,24,24,0,0,0-2.75-1.68c-.46-.25-.93-.47-1.4-.7a5.71,5.71,0,0,1-.64-.35s-.2-.14-.08,0-.27-.32-.17-.17a1.55,1.55,0,0,0-2.06-.54,1.51,1.51,0,0,0-.53,2.05,6.24,6.24,0,0,0,2.73,2,27.92,27.92,0,0,1,2.95,1.71,25,25,0,0,1,4.86,4.31A1.52,1.52,0,0,0,54,43.68c0-2.8-2.3-4.43-4.47-5.71l-6.83-4.08a1.51,1.51,0,0,0-1.52,2.6Z"/><path class="cls-3" d="M37.67,28.78a21.4,21.4,0,0,0,.07,3.3,6,6,0,0,0,.34-3.61l.33,3.05"/><path class="cls-3" d="M36.17,28.78a21.4,21.4,0,0,0,.07,3.3,1.61,1.61,0,0,0,.44,1.06,1.65,1.65,0,0,0,.86.41,1.46,1.46,0,0,0,1-.18l.3-.23a1.49,1.49,0,0,0,.39-.66,7.64,7.64,0,0,0,.34-4.41A1.46,1.46,0,0,0,37.88,27a1.42,1.42,0,0,0-.86.41,1.46,1.46,0,0,0-.44,1.06l.33,3.05a1.66,1.66,0,0,0,.44,1.06,1.52,1.52,0,0,0,1.06.44,1.5,1.5,0,0,0,1.5-1.5l-.33-3.05-2.94.4c0,.15,0,.29.07.44l-.05-.4a6.2,6.2,0,0,1,0,1.61l.05-.4a6.41,6.41,0,0,1-.41,1.56l2.94.4a21.4,21.4,0,0,1-.07-3.3,1.5,1.5,0,0,0-1.5-1.5,1.53,1.53,0,0,0-1.5,1.5Z"/></svg>