<svg id="Layer_1" data-name="Layer 1" xmlns="http://www.w3.org/2000/svg" viewBox="0 0 75.72 75.91"><defs><style>.cls-1,.cls-3{fill:#fff;}.cls-1{stroke:#ccc108;stroke-miterlimit:10;stroke-width:2px;}.cls-2{fill:#ccc108;}</style></defs><rect class="cls-1" x="1.15" y="1.02" width="73.67" height="73.67"/><rect class="cls-2" x="8.29" y="8.16" width="59.39" height="59.39" rx="6.66"/><path class="cls-3" d="M37.55,17a5.09,5.09,0,0,0-5.66,2.23,6.5,6.5,0,0,0-.14,6.26,9.17,9.17,0,0,0,4.83,4.22,5.87,5.87,0,0,0,2.32.5,5.39,5.39,0,0,0,2.8-1c2.39-1.63,3.84-4.86,2.75-7.54A10.68,10.68,0,0,0,43,19.34a10.65,10.65,0,0,0-2.45-2.56,3.58,3.58,0,0,0-3.38-.44"/><path class="cls-3" d="M34.27,16.14a2.46,2.46,0,0,0-2,1,1.76,1.76,0,0,0-.55.93.71.71,0,0,0,.55.82c.37,0,.64-.54.33-.74s-.72.27-.56.61A.8.8,0,0,0,33,19a.74.74,0,0,0-1.25-.14,1.05,1.05,0,0,0,.3,1.39A4.49,4.49,0,0,0,30.5,21.7a.51.51,0,0,0-.13.3.4.4,0,0,0,.44.4.57.57,0,0,0,.47-.42,4.74,4.74,0,0,0-1,2.78c0,.13,0,.28.12.35a.4.4,0,0,0,.34,0,1.07,1.07,0,0,0,.68-.41c.13-.23-.05-.62-.31-.56s-.26.27-.26.46a1.24,1.24,0,0,0,1,1.19,1.5,1.5,0,0,0-1.07,1.36.6.6,0,0,0,.57-.22.51.51,0,0,0-.68.42.5.5,0,0,0,.66.44.79.79,0,0,0-.59,1.07,1.41,1.41,0,0,0,1.17-.6.91.91,0,0,1,.83.88,1.94,1.94,0,0,1-.45,1.23.66.66,0,0,0-.17.37c0,.36.64.37.74,0a.7.7,0,0,0-.54-.8,2.91,2.91,0,0,0,.95.29c-.21.24.12.64.43.59a1,1,0,0,0,.67-.61,1.12,1.12,0,0,0,0,.7c.08.22.38.37.56.22"/><path class="cls-3" d="M34.27,14.64a4.22,4.22,0,0,0-4,2.9c-.49,2,1.86,3.84,3.41,2.16s-.88-4.24-2.57-2.59a2,2,0,0,0-.29,2.52,2.35,2.35,0,0,0,2.57.84,1.51,1.51,0,0,0,.89-2.2A2.23,2.23,0,0,0,31,17.59,2.48,2.48,0,0,0,31,21.33l.3-2.36c-1.13.66-2.77,2-2.37,3.51a2,2,0,0,0,3.64.26A1.5,1.5,0,0,0,30,21.22c-.79,1.07-1.69,3.2-1,4.5.91,1.62,3.5.88,3.91-.77a1.8,1.8,0,0,0-3.29-1.37,2.65,2.65,0,0,0,1.87,3.67V24.36a3.13,3.13,0,0,0-2.17,2.8,1.52,1.52,0,0,0,1.5,1.5A2.36,2.36,0,0,0,32.47,28a1.51,1.51,0,0,0-.66-2.5,2,2,0,1,0,0,3.75L31,26.35a2.34,2.34,0,0,0-1.65,2.92,1.53,1.53,0,0,0,1.45,1.1,3,3,0,0,0,2.23-1L32,29.77c-.12,0-.8-.51-.67-.55s-.25.41-.25.4A2.09,2.09,0,0,0,30.7,31a1.82,1.82,0,0,0,1.81,1.58c2.23,0,2.5-3,.63-3.85l-1.51,2.59a5.14,5.14,0,0,0,1.3.45L32,29.52a1.89,1.89,0,0,0,1,2.7A2.23,2.23,0,0,0,35.73,31L33,29.85A2.34,2.34,0,0,0,33.32,32a1.83,1.83,0,0,0,2,.61,1.55,1.55,0,0,0,1-1.85,1.51,1.51,0,0,0-1.84-1.05l-.16.06h.8l0,0,.54.54.09.31a1.5,1.5,0,0,0-2.74-1.15c-.23.32-.08.28.46-.15l.76.21.22.22.2.76V30.4l-.21.76.07-.13a1.51,1.51,0,0,0-.9-2.2,3,3,0,0,1-.59-.15,1.55,1.55,0,0,0-2.05.54,1.5,1.5,0,0,0,.54,2.05l-.21-.49.21-.76.07-.11.66-.39.9.29.39.66,0-.11v.79c.05-.17.28-.42.36-.6a2.66,2.66,0,0,0,.26-.78,2.56,2.56,0,0,0-.34-1.91,2.31,2.31,0,0,0-1.75-1.07,1.56,1.56,0,0,0-.94.19,1.36,1.36,0,0,0-.45.41c.11,0,.12,0,0,0l1.45,1.1a.75.75,0,0,1-.46.78c1.89-.51,1.08-3.24-.79-2.9l-.18,0h.82l.54.54v.83l0-.18-.38.67-.21.1h-.8l.18,0-.66-2.51-.16.14.66-.39v0l1.5,1.5c0,.06-.12.12,0,.09,1.3-.47,1.54-2.54,0-2.89-.25-.07-.25-.06,0,0s.2.18,0,.6l-.53.54.15-.1-.76.21h.15l-1.06-.44,0-.07L30,24.39l0-.08.39-.66c0,.05.1,0-.19.06H31l-.16,0,.9.69-.11-.16.21.76a3.23,3.23,0,0,1,.76-2.22L30,21.22l.42-.27h.8l0,.05.54.54,0,.07v.79a3.86,3.86,0,0,1,1-.84,1.51,1.51,0,0,0,.3-2.35L33,19.08c.21.18.15.37-.16.57,0,.33-.19.47-.44.43a.7.7,0,0,1-.66-.3l.9-2.2a.3.3,0,0,0,.29,0l.53.54V19l-.59.54h-.79l.13.05-.66-.39.1.11-.39-.67,0-.12.2-.75.45-.34h.8l.49,1a.22.22,0,0,1,.09-.14c.15-.09.28-.3.41-.41a.74.74,0,0,1,.61-.2c1.92.12,1.92-2.88,0-3Z"/><path class="cls-3" d="M35.05,16l-2.61-.29a.63.63,0,0,0-.47.09.56.56,0,0,0-.11.4,2.75,2.75,0,0,0,.49,1.66,1.44,1.44,0,0,0,1.56.55,2.51,2.51,0,0,1,.37-1.46c.28.08.57.17.85.28A1.05,1.05,0,0,1,36,16a3.2,3.2,0,0,1,1.23.29,1,1,0,0,0,1.15-.26.41.41,0,0,0-.49-.46c-.36.51.24,1.29.86,1.24a1.45,1.45,0,0,0,1.16-1.32c-.14.27.4.51.51.22-.43.06-.56.69-.29,1a1.93,1.93,0,0,0,1.14.56l.49-.56a.89.89,0,0,0,1.46.69,3.78,3.78,0,0,1-.67,1.4.92.92,0,0,0,1.17,0c-.63,0-.88.93-.5,1.43a2.52,2.52,0,0,0,1.7.72A3.6,3.6,0,0,0,44,22.66l1-.36a2.79,2.79,0,0,0-.54,1.25c.18.13.4-.24.2-.33s-.27.22-.24.42L44.68,25a7.23,7.23,0,0,0-.13,2.74c-.26-.37-.85-.1-1.19.2a.9.9,0,0,0-.33.42.32.32,0,0,0,.23.41c.18,0,.28-.3.11-.35l-.06.66L42.66,29c-.2.28-.39.66-.2,1s.8.05.6-.24a.68.68,0,0,0,.29,1.1"/><path class="cls-3" d="M35.05,14.47a21.32,21.32,0,0,0-2.86-.29,2,2,0,0,0-1.82,2.24c.1,2.08,1.72,3.95,3.93,3.41a1.54,1.54,0,0,0,1.11-1.45,1.09,1.09,0,0,1,.16-.7l-1.69.69a8.45,8.45,0,0,1,.85.28,1.51,1.51,0,0,0,1.9-1.45c-.13,0-.21.07-.25.25-.36,0-.38.08,0,.14a2.81,2.81,0,0,0,1.07.26,2.32,2.32,0,0,0,1.76-.49,1.85,1.85,0,0,0-1.28-3.27,1.48,1.48,0,0,0-1.29.74,2.39,2.39,0,0,0,1.57,3.44,2.79,2.79,0,0,0,3.18-2.36l-2.89-.8a1.79,1.79,0,0,0,3.25,1.38c.8-1.07-.52-2.57-1.69-2.2a2.15,2.15,0,0,0-1.47,2.58,2.85,2.85,0,0,0,2.32,1.91,1.51,1.51,0,0,0,1.46-.39l.49-.56-2.56-1.06a2.41,2.41,0,0,0,4,1.75l-2.5-1.46a3.28,3.28,0,0,1-.52,1,1.51,1.51,0,0,0,.53,2,2.45,2.45,0,0,0,2.69,0c1.15-.75.82-2.94-.76-2.8a2.33,2.33,0,0,0-2.12,2.89,3.22,3.22,0,0,0,2.93,2.21L43.86,20a5.53,5.53,0,0,0-1.29,2.3,1.51,1.51,0,0,0,1.84,1.85l1-.36-1.7-2.2A4.11,4.11,0,0,0,43,23.16a1.53,1.53,0,0,0,1,1.84c2.07.46,3.1-2.65,1-3.23a1.7,1.7,0,0,0-2,1.15,5.66,5.66,0,0,0,.2,2.48v-.8a9.23,9.23,0,0,0-.18,3.14l2.56-1.06c-1.44-1.38-4.39,0-4.06,2.06A1.73,1.73,0,0,0,44,30.1a1.69,1.69,0,0,0,.48-2.74,1.52,1.52,0,0,0-2.56,1.06l-.06.66,1.5-1.5-.65-.06a1.49,1.49,0,0,0-1.29.74c-.74,1.11-.64,2.86.85,3.28a1.82,1.82,0,0,0,2.29-2.2A1.52,1.52,0,0,0,42,28.68a2.21,2.21,0,0,0,1,3.6,1.5,1.5,0,0,0,1.84-1,1.54,1.54,0,0,0-1-1.85l.38,1.41-2.51-.66,0,.12v-.8l0,.1L42,28.9l-.1.09.67-.39.39,0,.66.39-.1-.1.38.67c-.12.42-.1.49.06.2l-1.3.74.65.06c.85.09,1.44-.76,1.5-1.5l.06-.66L42.3,29.48l.09.08L42,28.5v.12l.21-.76-.07.11.89-.69-.11,0,1.15.15-.15-.07.54.54-.08-.16.21.76v-.18l-.21.75s0,0,0,0c.31-.16.23-.18-.26,0l-.66-.39.13.12c.84.82,2.73.31,2.56-1.06a7.18,7.18,0,0,1,0-2.07,3.77,3.77,0,0,0,0-1.34L46,23.79c0-.34-.06-.37,0-.07l-.39.66.08-.1-1.06.44h.12l-1.06-.44.07.08-.43-1.06v.11l.2-.75-.06.1.54-.54-.1.06L45,22.13l-.11,0,1,1.84a2.08,2.08,0,0,1,.38-.89,1.51,1.51,0,0,0-1.69-2.2l-1,.36,1.85,1.84a2.19,2.19,0,0,1,.53-1c.68-.75.52-2.32-.67-2.51a5.09,5.09,0,0,0-.86-.18c-.08.06.07.14.07.23,0,.41.35.65-.81.75L43,17.58l.35,0,.54,2.06a5.77,5.77,0,0,0,.82-1.76,1.51,1.51,0,0,0-2.51-1.46c.39-.34,1.11-.25,1.1.37a1.52,1.52,0,0,0-2.56-1.06l-.49.56,1.46-.39c-.07,0-.43-.13-.45-.12s.35.7.23.87l-.54.53-.09,0L39.12,15l-.07.09.9-.69.18,0,.76.21.29.31L41.33,16l0-.11a1.54,1.54,0,0,0-1-1.85,1.52,1.52,0,0,0-1.85,1,1.76,1.76,0,0,0-.05.29l.15-.06c.64,0,.85.32.63,1l-1.3.75H37.8l-.66-.39-.06-.05-.2-.75v.15L37.32,15c-.29.34.31-.16.3-.13s-.69-.23-.73-.24a2.73,2.73,0,0,0-1.67.08,2.54,2.54,0,0,0-1.59,2.5l1.9-1.45c-.28-.1-.57-.19-.86-.27a1.51,1.51,0,0,0-1.69.69,4.36,4.36,0,0,0-.57,2.21l1.1-1.45c.13,0,0,.12,0-.11a2.31,2.31,0,0,1-.1-.87l-.2.76.09-.18-.54.54.14-.08-.76.2a14,14,0,0,1,2.94.28,1.5,1.5,0,1,0,0-3Z"/><path class="cls-3" d="M45.28,28.39a2,2,0,0,0-.6,1.23.84.84,0,0,0,.1.52.53.53,0,0,0,.77.1.54.54,0,0,0,0-.78,1.14,1.14,0,0,0,0,1.22,1.18,1.18,0,0,0,1.11.49"/><path class="cls-3" d="M44.22,27.33c-1.11,1.05-1.61,3.3-.07,4.23a2,2,0,0,0,2.63-.46,2,2,0,0,0-.19-2.7A1.51,1.51,0,0,0,45.33,28a1.49,1.49,0,0,0-1.1.71,2.71,2.71,0,0,0-.28.68,2.43,2.43,0,0,0-.09.71,3.08,3.08,0,0,0,.11.74,2.59,2.59,0,0,0,.31.65,2.47,2.47,0,0,0,.44.52,4.13,4.13,0,0,0,.42.31,5.27,5.27,0,0,0,.49.22,1.72,1.72,0,0,0,.5.11,2.2,2.2,0,0,0,.36,0,3.43,3.43,0,0,0,.56-.07,1.45,1.45,0,0,0,.9-.69,1.49,1.49,0,0,0,.15-1.15,1.55,1.55,0,0,0-.69-.9l-.36-.15a1.55,1.55,0,0,0-.8,0h0l.4-.06h-.28l.4,0a.8.8,0,0,1-.3-.09l.35.16a1.58,1.58,0,0,1-.24-.15l.31.24a1.26,1.26,0,0,1-.2-.2l.23.3a1,1,0,0,1-.14-.25l.15.36a1.57,1.57,0,0,1-.08-.29l.06.4a1.5,1.5,0,0,1,0-.3l0,.4a1.53,1.53,0,0,1,.07-.29l-.15.36.08-.15-2.35.3.07.08-.24-.31a.75.75,0,0,1,.07.12l-.15-.35a.5.5,0,0,1,0,.13l-.06-.4a.33.33,0,0,1,0,.14l.06-.4a.74.74,0,0,1,0,.14l.15-.36a.75.75,0,0,1-.07.12l.24-.3-.08.07.31-.23-.12.06.36-.15-.13,0,.4-.05h-.14l.4.05a.43.43,0,0,1-.16-.05l.36.16-.12-.08.31.24a.46.46,0,0,1-.07-.07l.23.3-.06-.1.15.35a.84.84,0,0,1,0-.17l.06.4a1.37,1.37,0,0,1,0-.35l0,.4a1.75,1.75,0,0,1,.14-.51l-.15.36a1.76,1.76,0,0,1,.24-.42l-.23.31a2.2,2.2,0,0,1,.2-.23,1.5,1.5,0,0,0-1.06-2.56,1.63,1.63,0,0,0-1.06.44Z"/><path class="cls-3" d="M44.6,19.1a.87.87,0,0,0-.66,1,1.52,1.52,0,0,0,.78,1,1.11,1.11,0,0,0,1.15.07c.34-.23.32-.87-.08-1s-.62.31-.73.64a2.5,2.5,0,0,0,.07,1.9,1.5,1.5,0,0,0,1.62.8c0-.15-.26-.08-.36,0A3,3,0,0,0,46,25.82a.29.29,0,0,0,.07.22c.11.11.33,0,.33-.19a.51.51,0,0,0-.24-.4,7,7,0,0,0-.28,1.82V29.1"/><path class="cls-3" d="M44.2,17.65A2.37,2.37,0,0,0,42.43,20a2.93,2.93,0,0,0,1.41,2.36,2.55,2.55,0,0,0,3.1-.08,2.14,2.14,0,0,0,.39-2.58,1.93,1.93,0,0,0-3-.41,3.45,3.45,0,0,0-1,2.5A3.16,3.16,0,0,0,47.15,25a1.52,1.52,0,0,0,.9-2.21A1.77,1.77,0,0,0,45,23a4.19,4.19,0,0,0-.55,2.5,2.48,2.48,0,0,0,.42,1.5,1.64,1.64,0,0,0,1.92.49,1.81,1.81,0,0,0,.41-3.05,1.53,1.53,0,0,0-2.51.66,14.89,14.89,0,0,0-.32,4.05,1.5,1.5,0,0,0,3,0,11.61,11.61,0,0,1,.22-3.25l-2.51.66c.19.18.14.1-.14-.26v-.8l0,.1.39-.67.16-.11.75-.2h-.08l.75.2-.08,0,.54.54c.11.45.15.53.12.25,0-.1,0-.2,0-.3a3.17,3.17,0,0,1,0-.44c0,.28,0-.14,0-.17-.07.13-.06.12,0,0a1.37,1.37,0,0,1-.48.33h-.8l.07,0-.89-.69,0,.07.89-2.21h.19c-.19,0,.15.07,0,0s-.08-.05,0,0l-.1-.1c.06.15,0,0,0,0,0,.23,0-.21,0-.05s0-.27,0-.29c0,.16,0,0,0-.09l0-.15c.06-.18.07-.21,0-.11a.21.21,0,0,1-.06.1c-.2.26-.51.19-.91-.22-.66.11-1-.05-.88-.5a.65.65,0,0,1,.25-.64l.56-.25.1,0-.15,0c.1,0,.1,0,0,0s-.08-.05,0,0,0,0,0,0-.07-.07,0,0l0,.1a.67.67,0,0,1-.42.72,1.5,1.5,0,0,0-.8-2.9Z"/><path class="cls-3" d="M42,15.76a2.39,2.39,0,0,0,1.32,1,1.54,1.54,0,0,0,1.54-.42A.64.64,0,0,0,45,15.9a.31.31,0,0,0-.31-.29c-.14,0-.23.15-.31.28a3.14,3.14,0,0,0-.57,1.79c.07.64.74,1.24,1.33,1-.2-.11-.49-.19-.6,0s.06.37.25.4a.87.87,0,0,0,.53-.14A1.12,1.12,0,0,0,45.26,20a3.14,3.14,0,0,0,.63.92"/><path class="cls-3" d="M40.68,16.52a4,4,0,0,0,2.65,1.74,2.84,2.84,0,0,0,3-1.56,1.86,1.86,0,0,0-.72-2.35,1.81,1.81,0,0,0-2.47.72,4.21,4.21,0,0,0-.74,3.12,2.55,2.55,0,0,0,3.15,1.92,1.51,1.51,0,0,0,1.07-1.24,1.47,1.47,0,0,0-.72-1.5,2.21,2.21,0,0,0-1.61-.25A1.74,1.74,0,0,0,43,18.79a1.82,1.82,0,0,0,1.13,1.63,2.23,2.23,0,0,0,1.93-.19L44,18.17a2.65,2.65,0,0,0-.26,2.16,5.12,5.12,0,0,0,1,1.66A1.51,1.51,0,0,0,47,22a1.55,1.55,0,0,0,0-2.12,2.85,2.85,0,0,0-.23-.26c.15.19.17.22.08.09l-.07-.11-.07-.11c-.07-.14,0-.1,0,.13a1.87,1.87,0,0,0-.08-.32l.06.4a1.15,1.15,0,0,1,0-.32l-.05.4c0-.07,0-.13,0-.19s-.17.33,0,.11a1.51,1.51,0,0,0-.23-1.82,1.56,1.56,0,0,0-1.82-.23c-.29.14.32-.1,0,0l.4-.05h-.18l.4.06a1.14,1.14,0,0,1,.77.77l.05.39v-.06l-.05.4,0-.06-.38.66c-.56.22-.71.31-.46.27l-.4.05h.07l-.4-.05.13,0c-.24-.11-.29-.14-.16-.07l.36-2.74a.72.72,0,0,1-.21.05l.4-.05a1.34,1.34,0,0,1-.2,0l.4.05-.14,0c.25.11.3.13.17.06s-.09-.05.13.1a.57.57,0,0,1-.11-.11c.15.21.19.25.1.13s0-.09-.07-.14c.1.25.12.3.08.15a.7.7,0,0,1,0-.14l0,.39a2.16,2.16,0,0,1,0-.44l-.06.4c0-.14.06-.27.1-.4s.1-.25,0,0,0-.05,0-.08a3.24,3.24,0,0,1,.17-.32c0-.07.08-.13.11-.2s0,0-.06.07a.94.94,0,0,1-.55.37l-.4.06h.07l-.4-.06c-.64-.94-.91-1.2-.81-.75l0-.4V16l.06-.39c0,.15,0,.1.07-.14s.19-.24.09-.12.33-.2,0,0,.31-.07.05,0l-.3.06.4-.06a1.21,1.21,0,0,1-.38,0l.4.06a1.17,1.17,0,0,1-.39-.09c.06.05.32.15.09,0l-.18-.11c-.18-.11.07.08.1.09a.71.71,0,0,1-.15-.15,1.06,1.06,0,0,1-.15-.15c-.2-.19.2.28,0,0a1.62,1.62,0,0,0-.89-.69,1.56,1.56,0,0,0-1.16.15,1.53,1.53,0,0,0-.54,2.06Z"/><path class="cls-3" d="M38.94,13.54a.84.84,0,0,0,1.54.56c.14-.22.14-.56-.09-.67s-.46.08-.59.28a1.38,1.38,0,0,0,.24,1.7c.25.22.68.32.89.06s.13-.41.27-.56c.32-.34,1.11,0,1.27-.44l.26,1.2"/><path class="cls-3" d="M37.44,13.54a2.34,2.34,0,0,0,4.05,1.68,2.1,2.1,0,0,0,.5-2A1.81,1.81,0,0,0,39.74,12a2.31,2.31,0,0,0-1.49,1.56,2.87,2.87,0,0,0,.69,2.89,2.31,2.31,0,0,0,2.13.64,2,2,0,0,0,1.16-.84,4.59,4.59,0,0,0,.34-.79l-.15.36a.41.41,0,0,1,0-.09l-.24.3.09-.09-.3.23a.31.31,0,0,1,.1,0l-.36.15A.67.67,0,0,1,42,16.2l-.39.05a8.68,8.68,0,0,0,1-.1,2,2,0,0,0,.57-.24,1.9,1.9,0,0,0,.78-1H41l.26,1.2a1.51,1.51,0,0,0,1.85,1.05,1.54,1.54,0,0,0,1-1.85l-.26-1.19a1.39,1.39,0,0,0-.54-.78,1.43,1.43,0,0,0-.9-.33,1.8,1.8,0,0,0-.76.21,1.59,1.59,0,0,0-.69.9l0,0,.16-.36,0,.06.23-.3,0,.05.3-.24a.26.26,0,0,1-.09,0l.36-.15-.18,0,.4-.06a6,6,0,0,0-1.12.14A2.08,2.08,0,0,0,40,14a3.36,3.36,0,0,0-.42.9l.15-.36a1,1,0,0,1-.08.14l.23-.31a.23.23,0,0,1-.07.07l.31-.23-.08,0,.36-.15-.14,0,.4-.06a.38.38,0,0,1-.15,0l.4.05a.73.73,0,0,1-.2-.05l.36.15a.71.71,0,0,1-.22-.13l.3.24L41,14.2l.24.3a1.09,1.09,0,0,1-.18-.31l.15.36a1.4,1.4,0,0,1-.1-.35l.06.4a1.45,1.45,0,0,1,0-.36l0,.4a1.13,1.13,0,0,1,.09-.35l-.15.36a1.27,1.27,0,0,1,.12-.23l-.23.31a.57.57,0,0,1,.15-.16l-.3.23.14-.08-.36.15.1,0-.39.05h0l-.4-.05a.19.19,0,0,1,.1,0l-.36-.15.07,0-.3-.23,0,0-.24-.31.05.07L39.09,14a.53.53,0,0,1,0,.12l0-.4v.14l0-.4a1.16,1.16,0,0,1,0,.18l.15-.36a.83.83,0,0,1-.08.12l.24-.3a.93.93,0,0,1-.14.14l.3-.23a.94.94,0,0,1-.22.12l.36-.15-.2.06.4-.06h-.25L40,13a1.17,1.17,0,0,1-.2-.06l.36.15A.78.78,0,0,1,40,13l.3.23a1.06,1.06,0,0,1-.15-.15l.24.3a.78.78,0,0,1-.11-.18l.15.36c0-.07,0-.13-.06-.21l.06.4a1.48,1.48,0,0,1,0-.21,1.5,1.5,0,0,0-1.5-1.5,1.54,1.54,0,0,0-1.06.44,1.68,1.68,0,0,0-.44,1.06Z"/><path class="cls-3" d="M36.87,33.75l4.48.14a76.87,76.87,0,0,0,1,15.08c-2,.49-4.12-.26-6.2-.33a18.8,18.8,0,0,0-5.2.81c2.61-2.38,3.84-5.9,4.6-9.35a3,3,0,0,0,.09-1,3.52,3.52,0,0,0-.27-.89,10.56,10.56,0,0,1-.72-3.33c0-.77.12-1.7.84-2a2.23,2.23,0,0,1,1.34.13,13.3,13.3,0,0,0,4.57.53,7.76,7.76,0,0,0,.32,3.21"/><path class="cls-3" d="M33.41,62.21l-1.38,0a.56.56,0,0,0-.48.15c-.18.23,0,.55.27.72a4.29,4.29,0,0,0,2,.83.57.57,0,0,0,.47-.08.55.55,0,0,0,.14-.35l.12-.69a1,1,0,0,0-.05-.75c-.13-.22-.52-.27-.62,0"/><path class="cls-3" d="M41.75,61.9a3.56,3.56,0,0,0-1.08,0,1.11,1.11,0,0,0-.83.63,1,1,0,0,0,.25,1,1.57,1.57,0,0,0,1,.41,2.26,2.26,0,0,0,2.29-1.61,5.14,5.14,0,0,0-2.2-.34"/><path class="cls-3" d="M32.14,48.9a22.22,22.22,0,0,1-.93,5.37l5.71-.6a.45.45,0,0,0,.39-.17.51.51,0,0,0,0-.3l-.18-1.12a6.09,6.09,0,0,1,1,2l.2-1a7,7,0,0,0,.3,2,9.63,9.63,0,0,1,5.41-1.26L42.45,51.1a5,5,0,0,1-.91-2.41c0-.14,0-.3-.12-.38a.38.38,0,0,0-.26,0l-9.51.55"/><path class="cls-3" d="M38.4,30.23v2.28a6.59,6.59,0,0,0-.07-1.6l.1,2.05"/><path class="cls-3" d="M36.9,30.23v2.28a1.58,1.58,0,0,0,.44,1.06,1.56,1.56,0,0,0,1.06.44,1.54,1.54,0,0,0,1.06-.44,1.63,1.63,0,0,0,.44-1.06,8.93,8.93,0,0,0-.12-2A1.26,1.26,0,0,0,39.5,30a1.18,1.18,0,0,0-.42-.38,1.53,1.53,0,0,0-1-.18,1.42,1.42,0,0,0-.86.41,1.52,1.52,0,0,0-.44,1.06l.1,2.05A1.54,1.54,0,0,0,37.36,34a1.52,1.52,0,0,0,1.06.44A1.54,1.54,0,0,0,39.48,34,1.5,1.5,0,0,0,39.92,33l-.1-2.05-2.94.4a.88.88,0,0,0,0,.16l0-.4a7.71,7.71,0,0,1,0,1.44h3V30.23a1.51,1.51,0,0,0-2.57-1.06,1.62,1.62,0,0,0-.43,1.06Z"/><path class="cls-3" d="M34.19,54.44v6.88a15.86,15.86,0,0,1,.39-3.41A4.54,4.54,0,0,0,34,54.59"/><path class="cls-3" d="M32.69,54.44v6.88h3a6.14,6.14,0,0,1,0-1l0-.26c0,.16,0,.18,0,.07s.05-.31.07-.46c.13-.71.26-1.42.33-2.14a5.52,5.52,0,0,0-.81-3.64,1.5,1.5,0,1,0-2.59,1.51c.08.12.15.24.22.36.18.29-.08-.29,0,0a1.82,1.82,0,0,1,.18.72c0-.22,0-.24,0-.07s0,.14,0,.21,0,.22,0,.33,0,.51,0,.76,0-.25,0,.08c0,.18-.05.35-.09.53s-.11.61-.15.91a9.43,9.43,0,0,0-.16,2.11,1.5,1.5,0,0,0,3,0V54.44a1.5,1.5,0,0,0-3,0Z"/><path class="cls-3" d="M40.67,54.44c0,2.35,0,4.71.22,7.05"/><path class="cls-3" d="M39.17,54.44c0,2.35,0,4.71.22,7.05a1.5,1.5,0,0,0,3,0c-.18-2.34-.25-4.7-.22-7.05a1.5,1.5,0,0,0-3,0Z"/><path class="cls-3" d="M33.88,35.37a96.91,96.91,0,0,1-6.29,7.56,16.58,16.58,0,0,0,3.84-4.5,9.55,9.55,0,0,1,3.26-3.5,10.11,10.11,0,0,0-2.08,1.94c-.3.52-.51,1.08-.77,1.63a21.14,21.14,0,0,1-2.36,3.66c-.48.63-2.83.84-3.54,1.21"/><path class="cls-3" d="M32.58,34.61c-.9,1.2-1.83,2.38-2.86,3.62s-2.1,2.45-3.19,3.64A1.5,1.5,0,0,0,28.65,44a17.75,17.75,0,0,0,3.88-4.49c.21-.34.41-.68.63-1L33.5,38c.1-.13-.11.14.06-.07l.22-.27a9.78,9.78,0,0,1,.89-.93c.08-.07.17-.13.25-.21s-.28.18,0,0c.16-.1.32-.2.49-.29l-1.82-2.35a9.15,9.15,0,0,0-2.32,2.24c-.37.6-.58,1.29-.9,1.91a16.92,16.92,0,0,1-1,1.74l-.59.82-.33.44c-.06.09-.36.36-.08.12-.18.16.33-.16.1-.07l-.14.08c-.13.06-.09.05.13,0a4,4,0,0,0-.56.18,17.41,17.41,0,0,0-2.73.8,1.5,1.5,0,0,0-.53,2.05,1.55,1.55,0,0,0,2.05.54c.18-.09-.42.12,0,0l.24-.07.67-.16c.45-.11.9-.2,1.34-.34a3.93,3.93,0,0,0,1.53-.79,12.18,12.18,0,0,0,1.26-1.67c.39-.56.76-1.12,1.09-1.71s.62-1.37,1-2c.06-.12.14-.23.2-.36s-.2.2,0,0,.39-.39.59-.57c.39-.35.8-.67,1.21-1a1.48,1.48,0,0,0,.12-2,1.52,1.52,0,0,0-1.93-.39,10.15,10.15,0,0,0-3.78,4c-.24.4-.48.8-.75,1.18a8,8,0,0,1-.76,1,16.66,16.66,0,0,1-2.12,2.08L28.65,44a100,100,0,0,0,6.52-7.87,1.51,1.51,0,0,0-.54-2,1.55,1.55,0,0,0-2.05.54Z"/><path class="cls-3" d="M41.22,35.93c1.93,2.14,2.65,5.07,3.3,7.88a4.5,4.5,0,0,0-.9-3.93,16.33,16.33,0,0,1-2.23-3.52"/><path class="cls-3" d="M40.16,37c.11.12.22.26.33.39h0l.15.2q.28.42.54.87c.16.29.32.6.46.91,0,.07.07.15.1.23h0l.21.54a35.49,35.49,0,0,1,1.12,4.07,1.52,1.52,0,0,0,1.45,1.1A1.58,1.58,0,0,0,46,44.21a5.81,5.81,0,0,0-.91-4.87c-.37-.59-.82-1.14-1.23-1.7-.22-.3-.43-.61-.62-.93-.08-.15-.17-.3-.24-.45l-.06-.12L42.84,36A1.54,1.54,0,0,0,41,34.91a1.51,1.51,0,0,0-1,1.84,15.46,15.46,0,0,0,2.23,3.67,8.42,8.42,0,0,1,.56.9c.07.12.13.24.19.36s.07.16,0,0l.09.25c.06.17.09.34.14.51s0,.17,0,0a2.28,2.28,0,0,1,0,.26c0,.08,0,.6,0,.23a4.1,4.1,0,0,1-.14.5H46c-.71-3-1.56-6.14-3.69-8.54a1.52,1.52,0,0,0-2.12,0,1.54,1.54,0,0,0,0,2.13Z"/></svg>