<svg id="Layer_1" data-name="Layer 1" xmlns="http://www.w3.org/2000/svg" viewBox="0 0 75.67 75.67"><defs><style>.cls-1,.cls-3{fill:#fff;}.cls-1{stroke:#60368a;stroke-miterlimit:10;stroke-width:2px;}.cls-2{fill:#60368a;}</style></defs><rect class="cls-1" x="1" y="1" width="73.67" height="73.67"/><rect class="cls-2" x="8.14" y="8.14" width="59.39" height="59.39" rx="6.66"/><path class="cls-3" d="M39.73,12.45A9.83,9.83,0,0,0,31,21.8a5.28,5.28,0,0,0,1.66,4.25,6,6,0,0,0,2.83,1.05,17.34,17.34,0,0,0,4.55.09,8.49,8.49,0,0,0,4.84-1.89,6.86,6.86,0,0,0,1.66-2.48A8.29,8.29,0,0,0,46,15.45,7.44,7.44,0,0,0,39.49,12"/><path class="cls-3" d="M34.9,14.24a10.21,10.21,0,0,1,2.21.11,2.87,2.87,0,0,0-.31-1.07.3.3,0,0,0,.13.32.58.58,0,0,0-.2.58,1,1,0,0,0-.9-.43l-.4-.73a5.3,5.3,0,0,0,1.11.78l.18-1.1c.25.11.38.4.61.55s.66,0,.53-.28l0,.87A2.07,2.07,0,0,1,39,12l0,.83a4.89,4.89,0,0,0,.91-2.12,3.35,3.35,0,0,1,0,1.34,1.3,1.3,0,0,0,.45,1.2,2.19,2.19,0,0,1,1.26-1l-.34,1,2.74-.89A2.47,2.47,0,0,1,43,13.94a6.41,6.41,0,0,1,2-.79,2.25,2.25,0,0,1-.69.48,1.5,1.5,0,0,1-1,.13.87.87,0,0,1-.64-.77l-.37.48.26-1.54-.82,1.73a9.19,9.19,0,0,1,1-2.55,9.12,9.12,0,0,0-1.91,2.54l-.23-1a.65.65,0,0,1-1.19.46,1,1,0,0,1-1.44.74,2.16,2.16,0,0,1-.42-.38l-2-2.22a5.15,5.15,0,0,1,1.08,2.6.5.5,0,0,1-.05.27.56.56,0,0,1-.33.2,3.61,3.61,0,0,1-1.6.09l.1.47L34,14.56a.57.57,0,0,1-.71.29c-.21,0-.37.25-.25.42a.47.47,0,0,0,.57.13,1.57,1.57,0,0,0,.48-.41,8.89,8.89,0,0,1,3.22-2.23.6.6,0,0,0,.4-.31.54.54,0,0,0,0-.33,3,3,0,0,0-.55-1,1.77,1.77,0,0,0,1,1.13"/><path class="cls-3" d="M34.9,15.74a9.14,9.14,0,0,1,1.81.06c.84.12,2-.37,1.9-1.45a5.33,5.33,0,0,0-.52-1.83c-.67-1.4-2.76-.63-2.79.76a1.86,1.86,0,0,0,.57,1.38V12.53a2.18,2.18,0,0,0-.64,1.65l2.56-1.06a2.53,2.53,0,0,0-2-.87l1.3.74-.41-.72-2.35,1.81a8.29,8.29,0,0,0,1.41,1A1.52,1.52,0,0,0,38,14.2l.18-1.1L36,14c-.14-.09.17.19.18.2a3.37,3.37,0,0,0,.43.34,1.89,1.89,0,0,0,1.45.19,1.76,1.76,0,0,0,1.29-2.16,1.51,1.51,0,0,0-3,.4l0,.87a1.5,1.5,0,0,0,3,0,.54.54,0,0,1,.33-.56L37.45,12l0,.83a1.52,1.52,0,0,0,2.8.76,6.27,6.27,0,0,0,1.05-2.48H38.46c.12.43,0,1.07,0,1.6a2.69,2.69,0,0,0,1.14,1.84A1.53,1.53,0,0,0,41.69,14c.07-.13.08-.15.14-.2s.44-.19.22-.12L40.2,11.83l-.34,1a1.51,1.51,0,0,0,1.85,1.85l2.74-.89-1.84-1.85a1,1,0,0,1-.41.71,1.55,1.55,0,0,0-.53,2.06,1.52,1.52,0,0,0,2,.53,6,6,0,0,1,1.6-.64l-1.46-2.5s-.36.26-.36.22h.09a.46.46,0,0,1,.35.29c.08.19.1.19.06,0a1.49,1.49,0,0,0-1.25-1.07,1.55,1.55,0,0,0-1.49.72l-.37.48,2.74,1.15.26-1.54A1.52,1.52,0,0,0,43,10.56a1.49,1.49,0,0,0-1.87.61l-.83,1.73,2.75,1.16a8.27,8.27,0,0,1,.84-2.2A1.51,1.51,0,0,0,41.55,10,11.36,11.36,0,0,0,39.4,12.9l2.74.36-.22-1a1.51,1.51,0,0,0-3,.4c0-.38.28-.54.71-.48a.6.6,0,0,1,.66-.12,1.5,1.5,0,0,0-2.5.66c-.06.32,0,0,.08-.07a.67.67,0,0,1,.24-.16c.14,0,.44.14.45.07a3.22,3.22,0,0,0-.43-.48l-1.67-1.88A1.5,1.5,0,0,0,34.15,12a10.29,10.29,0,0,1,.69,1.15c0,.13.1.26.14.4s0,.43.05.17l.39-.66c.41-.19.45-.23.14-.14-.11.09-.18.1-.2,0H35a1.52,1.52,0,0,0-1.85,1.84l.1.47,2.2-1.7-.62-.34a1.53,1.53,0,0,0-2.05.54c.1-.18,1.59-.45.58-.45a2.24,2.24,0,0,0-.52.06,1.79,1.79,0,0,0-.74,3,2,2,0,0,0,2.33.3,6.51,6.51,0,0,0,1.27-1.13A11.18,11.18,0,0,1,38.21,14c1.47-.79,1.1-2.55.25-3.68a1.53,1.53,0,0,0-1.87-.61,1.49,1.49,0,0,0-.87,1.77,3.36,3.36,0,0,0,1.66,2,1.54,1.54,0,0,0,2-.54,1.51,1.51,0,0,0-.54-2.05c-.25-.13,0,0-.25-.16.1.11-.08-.24,0-.08l-2.74,1.16a2.3,2.3,0,0,1,.32.49c.12.23,0,.23,0,.12l.2-.75a.57.57,0,0,1,.32-.31l-.45.19-.54.26a10.29,10.29,0,0,0-1.09.67,12.44,12.44,0,0,0-1.06.86,5.66,5.66,0,0,0-.43.42l-.24.26q-.46.4.63-.12l.66.39-.11-.11.38.67,0-.12v.8l-.08.12-.53.54.09-.07-.76.21c-.39,0,.31,0,.4,0a1.93,1.93,0,0,0,.71-.16,2.13,2.13,0,0,0,1-.9l-2.06.53.63.35a1.52,1.52,0,0,0,2.2-1.7L36,14l-1.85,1.85c1.35.18,3.38.17,3.82-1.47.36-1.35-.53-2.82-1.23-3.9l-2.35,1.82L35.83,14a4.06,4.06,0,0,0,1.73,1.43,2.53,2.53,0,0,0,3.17-1.85l-2.51.66A2.16,2.16,0,0,0,42,12.67L39,13.06l.23,1a1.51,1.51,0,0,0,2.74.36,8.6,8.6,0,0,1,1.68-2.24l-2.35-1.82a11.25,11.25,0,0,0-1.15,2.91A1.51,1.51,0,0,0,41,15a1.49,1.49,0,0,0,1.87-.61l.83-1.73L41,11.53l-.26,1.55a1.5,1.5,0,0,0,2.75,1.15l.37-.48-2.75-.36a2.4,2.4,0,0,0,2.27,1.9A3.57,3.57,0,0,0,46,14.21a1.51,1.51,0,0,0-1.46-2.51,8.9,8.9,0,0,0-2.33.94l1.52,2.59a4.13,4.13,0,0,0,1.78-2.5,1.52,1.52,0,0,0-1.84-1.85l-2.75.89,1.84,1.85.35-1a1.51,1.51,0,0,0-1.85-1.84,3.79,3.79,0,0,0-2.15,1.7l2-.54s.4.27.3.39a2.84,2.84,0,0,0,0-.59,4.16,4.16,0,0,0-.12-1.45c-.39-1.34-2.61-1.52-2.89,0a4.19,4.19,0,0,1-.75,1.76l2.79.76,0-.83a1.52,1.52,0,0,0-2.26-1.29,3.64,3.64,0,0,0-1.81,3.15h3l0-.87-3,.4,0,.09v-.79l0,.08.38-.66.94-.29.66.38a9.73,9.73,0,0,0-.91-.77,1.52,1.52,0,0,0-2.21.89l-.18,1.11,2.21-.9a4.44,4.44,0,0,1-.81-.55,1.51,1.51,0,0,0-2.36,1.82l.41.72a1.49,1.49,0,0,0,1.29.75c-.12,0-.41-.32-.16,0a1.51,1.51,0,0,0,2.56-1.06l-.24.48a1.55,1.55,0,0,0,0-2.13l-.09-.08.39.66v.17L35.5,14c0-.09.12.45.11.31l1.9-1.45a13.46,13.46,0,0,0-2.61-.16,1.53,1.53,0,0,0-1.5,1.5,1.51,1.51,0,0,0,1.5,1.5Z"/><path class="cls-3" d="M36.57,29.28a15.63,15.63,0,0,0-9.19,9,5.82,5.82,0,0,1,2.9.48,1.48,1.48,0,0,0,.78.21c.39,0,.67-.43.94-.74,1.79-2,4.74-1.62,7.24-1.09a16.39,16.39,0,0,1,5.34,1.77c1.32.8,2.54,2,4.05,2.09a1,1,0,0,0,.86-.28,1.47,1.47,0,0,0,.27-.61l.89-3.18a1.61,1.61,0,0,0,.1-.69,1.44,1.44,0,0,0-.33-.65,18.59,18.59,0,0,0-5.08-4.24,18,18,0,0,0-4.9-2.49,5.78,5.78,0,0,0-5.17.88"/><path class="cls-3" d="M33.52,33q.07,7.29-.08,14.57a56.3,56.3,0,0,1,12.08-1.9c.31-2.18-.55-4.33-1.26-6.4s-1.29-4.42-.45-6.44"/><path class="cls-3" d="M33.29,46.35a92.69,92.69,0,0,0,13-.49c-1.35,2.94-1.24,6.47-.82,9.76a1,1,0,0,1-.1.75.72.72,0,0,1-.46.18l-4,.48a6.23,6.23,0,0,0-1.69-3.73c.12,1.37.13,3-.88,3.79a3,3,0,0,1-2.08.36l-4.55-.35a1.36,1.36,0,0,1-1.11-.45,1.88,1.88,0,0,1,0-1.68c1.13-3.07,2.78-6,3.06-9.31"/><path class="cls-3" d="M34.05,63.76a1.38,1.38,0,0,0-1.55.51A2.15,2.15,0,0,0,32.21,66a1.05,1.05,0,0,0,.17.41c.32.38.94.18,1.35-.09a2.26,2.26,0,0,0,.91-.93.94.94,0,0,0-.3-1.17"/><path class="cls-3" d="M43.55,63.37a4,4,0,0,0-1.78.52,1.35,1.35,0,0,0-.57,1.62,1.25,1.25,0,0,0,1.46.55A2.34,2.34,0,0,0,43.93,65c.31-.47.47-1.2,0-1.52"/><path class="cls-3" d="M38.08,27.48a1.09,1.09,0,0,0,.33.93,1.76,1.76,0,0,0,.67-1.27,2.2,2.2,0,0,1,.72,1.3.84.84,0,0,1,.13-1.08"/><path class="cls-3" d="M36.63,27.08a2.81,2.81,0,0,0-.06.65,3,3,0,0,0,.11.65,3.33,3.33,0,0,0,.26.58c.09.13.2.27.3.39l.11.12a1.61,1.61,0,0,0,1.06.44l.4-.06a1.45,1.45,0,0,0,.66-.38,2,2,0,0,0,.29-.29,3.14,3.14,0,0,0,.42-.59,4,4,0,0,0,.28-.68,1.29,1.29,0,0,0,0-.19c0-.19.06-.38.08-.58L38,28.21a2.06,2.06,0,0,1,.29.3l-.24-.31a1.9,1.9,0,0,1,.3.51l-.15-.36a2.18,2.18,0,0,1,.14.48l2.74-1.15L41,27.55l.15.36c0-.08,0-.15-.06-.22l.06.4a.89.89,0,0,1,0-.23l-.05.4a1.42,1.42,0,0,1,.05-.22L41,28.4a.76.76,0,0,1,.12-.19l-.24.3.09-.09a1.21,1.21,0,0,0,.31-.49,1.22,1.22,0,0,0,.13-.57,1.27,1.27,0,0,0-.13-.58A1.11,1.11,0,0,0,41,26.3a1.47,1.47,0,0,0-1.06-.44l-.4.05a1.39,1.39,0,0,0-.66.39,1.83,1.83,0,0,0-.42.54,4.19,4.19,0,0,0-.2.49,3.4,3.4,0,0,0-.08.53.76.76,0,0,0,0,.15,5.17,5.17,0,0,0,.07.55,2.07,2.07,0,0,0,.27.63,1.55,1.55,0,0,0,.9.69l.4.06a1.27,1.27,0,0,0,.58-.13.82.82,0,0,0,.33-.2,1,1,0,0,0,.38-.42l.15-.36a1.33,1.33,0,0,0,0-.79,2.22,2.22,0,0,0-.09-.37,4.38,4.38,0,0,0-.31-.7,5,5,0,0,0-.43-.6,2.44,2.44,0,0,0-.27-.29l-.31-.23-.36-.15-.39-.06a1.27,1.27,0,0,0-.58.13.7.7,0,0,0-.33.2.59.59,0,0,0-.27.27.7.7,0,0,0-.2.33,1.13,1.13,0,0,0-.12.57c0,.05,0,.1,0,.15l0-.4a1.46,1.46,0,0,1-.11.41l.15-.35a1.9,1.9,0,0,1-.23.39l.24-.3a1.47,1.47,0,0,1-.31.3h2.12a.63.63,0,0,1-.11-.12l.23.3a1,1,0,0,1-.14-.24l.15.36a1.29,1.29,0,0,1-.08-.28l.06.4a1.13,1.13,0,0,1,0-.26l-.06.4v0a1.07,1.07,0,0,0,0-.59,1.12,1.12,0,0,0-.18-.56A1,1,0,0,0,39,26.3a1.26,1.26,0,0,0-.51-.27,1.51,1.51,0,0,0-1.16.15l-.3.24a1.39,1.39,0,0,0-.39.66Z"/><path class="cls-3" d="M34.59,57.41q.1,3.41-.12,6.81"/><path class="cls-3" d="M33.09,57.41q.1,3.41-.12,6.81a1.5,1.5,0,0,0,1.5,1.5,1.54,1.54,0,0,0,1.5-1.5q.22-3.4.12-6.81a1.5,1.5,0,0,0-3,0Z"/><path class="cls-3" d="M42.13,56.8c-.54,2.27.45,4.61.43,6.94"/><path class="cls-3" d="M40.68,56.4a11,11,0,0,0,0,4.05c.08.6.19,1.19.28,1.78.06.43,0-.32,0,.11,0,.17,0,.34.05.51a8.83,8.83,0,0,1,0,.89,1.5,1.5,0,1,0,3,0,24.1,24.1,0,0,0-.43-3.7l-.06-.38c0-.18,0-.17,0,0a1.37,1.37,0,0,1,0-.19,7.56,7.56,0,0,1-.07-.82,6.46,6.46,0,0,1,0-.88,2.33,2.33,0,0,1,0-.37c-.08.38,0-.16,0-.22a1.5,1.5,0,1,0-2.89-.8Z"/><path class="cls-3" d="M28.86,38.54l-3,2a7.11,7.11,0,0,0-2.53,2.27,8.92,8.92,0,0,1,5-4.6"/><path class="cls-3" d="M28.11,37.24l-3.27,2.13A7.77,7.77,0,0,0,22.05,42l2.74,1.15c.11-.26-.12.27-.05.12l.08-.17.18-.34a6.42,6.42,0,0,1,.41-.65l.12-.16c.1-.14-.25.31-.07.09l.26-.31c.18-.2.38-.39.58-.58l.31-.27c.1-.09.48-.35.09-.09.23-.15.45-.32.68-.46s.5-.31.76-.45l.41-.2.18-.08a1.72,1.72,0,0,0,.9-.69,1.61,1.61,0,0,0,.15-1.16,1.55,1.55,0,0,0-.69-.9,1.47,1.47,0,0,0-1.16-.15A12.56,12.56,0,0,0,24.18,39a9.09,9.09,0,0,0-2.28,3.33,1.49,1.49,0,0,0,.15,1.15,1.55,1.55,0,0,0,.72.62,1.5,1.5,0,0,0,1.87-.62,3.37,3.37,0,0,1,.19-.32s.15-.21,0,0,0,0,0,0a6.75,6.75,0,0,1,.54-.53l.18-.14c.14-.13-.24.17-.09.06l.31-.22c.23-.17.47-.32.71-.48l3.11-2a1.5,1.5,0,1,0-1.51-2.59Z"/><path class="cls-3" d="M49.82,38.64A32.76,32.76,0,0,1,55,43.56l-3.29-3A4.69,4.69,0,0,1,50,38.37a21.72,21.72,0,0,1,4.89,4.26"/><path class="cls-3" d="M48.76,39.7a33.64,33.64,0,0,1,5.13,4.92L56,42.5l-2.88-2.61a16.16,16.16,0,0,1-1.2-1.14l-.11-.12s-.21-.25,0,0,0,0,0-.05l-.09-.13s-.21-.32-.19-.35.13.35.06.14L51.48,38l-2.21,1.69c.45.29.89.59,1.31.91l.19.13c.16.12,0,0-.09-.06a3.92,3.92,0,0,0,.32.25l.62.53a21.82,21.82,0,0,1,2.24,2.27,1.51,1.51,0,0,0,2.12,0,1.54,1.54,0,0,0,0-2.12,23.48,23.48,0,0,0-5.19-4.5,1.51,1.51,0,0,0-2.21,1.69,6.6,6.6,0,0,0,2.28,3.11l3,2.75a1.53,1.53,0,0,0,2.13,0,1.55,1.55,0,0,0,0-2.12,34.17,34.17,0,0,0-5.14-4.92,1.68,1.68,0,0,0-1.06-.44,1.54,1.54,0,0,0-1.06.44,1.47,1.47,0,0,0-.44,1.06,1.39,1.39,0,0,0,.44,1.06Z"/></svg>