<svg id="Layer_1" data-name="Layer 1" xmlns="http://www.w3.org/2000/svg" viewBox="0 0 448.44 280.76"><defs><style>.cls-1{font-size:31px;font-family:NerkoOne-Regular, Nerko One;}.cls-1,.cls-2{fill:#1f47c7;}.cls-3{fill:#d3290a;}.cls-4{fill:#60368a;}.cls-5{fill:#30a342;}.cls-6{fill:#ccc108;}.cls-7{fill:#52396b;}.cls-8{fill:#f03f1e;}.cls-10,.cls-11,.cls-12,.cls-13,.cls-14,.cls-9{fill:#fff;}.cls-9{stroke:#30a342;}.cls-11,.cls-12,.cls-13,.cls-14,.cls-9{stroke-miterlimit:10;stroke-width:2px;}.cls-11{stroke:#1f47c7;}.cls-12{stroke:#d3290a;}.cls-13{stroke:#60368a;}.cls-14{stroke:#ccc108;}</style></defs><text class="cls-1" transform="matrix(0.09, -1, 1, 0.09, 24.37, 196.5)">T</text><text class="cls-1" transform="translate(25.62 181.72) rotate(-79.76)">H</text><text class="cls-1" transform="translate(28.29 166.95) rotate(-74.63)">E</text><text class="cls-1" transform="matrix(0.33, -0.94, 0.94, 0.33, 32.05, 153.64)"> </text><text class="cls-1" transform="translate(34.5 146.32) rotate(-67.16)">V</text><text class="cls-1" transform="translate(39.44 134.34) rotate(-62.19)">A</text><text class="cls-1" transform="matrix(0.54, -0.84, 0.84, 0.54, 47.01, 120.03)">L</text><text class="cls-1" transform="matrix(0.61, -0.79, 0.79, 0.61, 55, 107.68)">L</text><text class="cls-1" transform="translate(64 96.05) rotate(-47.8)">E</text><text class="cls-1" transform="translate(73.25 85.82) rotate(-43.46)">Y</text><text class="cls-1" transform="translate(83.93 75.82) rotate(-40.11)"> </text><text class="cls-1" transform="matrix(0.79, -0.61, 0.61, 0.79, 89.94, 70.76)"> </text><text class="cls-1" transform="matrix(0.82, -0.57, 0.57, 0.82, 96.04, 65.91)">E</text><text class="cls-1" transform="translate(107.36 58.01) rotate(-30.4)">A</text><text class="cls-1" transform="translate(121.39 49.79) rotate(-26.04)">R</text><text class="cls-1" transform="translate(134.98 43.14) rotate(-21.96)">L</text><text class="cls-1" transform="translate(145.83 38.68) rotate(-18.82)">Y</text><text class="cls-1" transform="translate(159.71 34.03) rotate(-15.84)"> </text><text class="cls-1" transform="translate(167.22 31.82) rotate(-13.02)">C</text><text class="cls-1" transform="translate(180.34 28.75) rotate(-9.29)">H</text><text class="cls-1" transform="translate(195.32 26.39) rotate(-6.27)">I</text><text class="cls-1" transform="translate(203.52 25.4) rotate(-3.32)">L</text><text class="cls-1" transform="matrix(1, 0.01, -0.01, 1, 218.26, 24.47)">D</text><text class="cls-1" transform="matrix(1, 0.07, -0.07, 1, 232.56, 24.59)">H</text><text class="cls-1" transform="translate(247.62 25.66) rotate(7.82)">O</text><text class="cls-1" transform="translate(261.9 27.61) rotate(11.56)">O</text><text class="cls-1" transform="translate(276 30.48) rotate(15.32)">D</text><text class="cls-1" transform="translate(289.82 34.35) rotate(18.27)"> </text><text class="cls-1" transform="translate(297.26 36.69) rotate(21.36)">R</text><text class="cls-1" transform="translate(311.36 42.21) rotate(25.31)">E</text><text class="cls-1" transform="translate(323.86 48.1) rotate(29.17)">G</text><text class="cls-1" transform="translate(336.21 55.08) rotate(32.33)">I</text><text class="cls-1" transform="translate(343.21 59.4) rotate(35.57)">O</text><text class="cls-1" transform="translate(354.91 67.7) rotate(40.04)">N</text><text class="cls-1" transform="translate(367.36 78.13) rotate(44.91)">A</text><text class="cls-1" transform="matrix(0.65, 0.76, -0.76, 0.65, 378.85, 89.6)">L</text><text class="cls-1" transform="matrix(0.6, 0.8, -0.8, 0.6, 388.34, 100.95)"> </text><text class="cls-1" transform="matrix(0.55, 0.84, -0.84, 0.55, 393.07, 107.12)">C</text><text class="cls-1" transform="translate(400.45 118.29) rotate(61.33)">O</text><text class="cls-1" transform="translate(407.33 130.85) rotate(66.18)">U</text><text class="cls-1" transform="matrix(0.32, 0.95, -0.95, 0.32, 413.06, 143.66)">N</text><text class="cls-1" transform="matrix(0.23, 0.97, -0.97, 0.23, 418.19, 159.07)">C</text><text class="cls-1" transform="translate(421.21 172.2) rotate(80.58)">I</text><text class="cls-1" transform="matrix(0.09, 1, -1, 0.09, 422.67, 180.21)">L</text><path class="cls-2" d="M119.1,81.22A11.23,11.23,0,0,0,107.49,84c-2.74,2.84-3.73,6.89-4.56,10.76-.69,3.2-1.27,6.83.61,9.52s5.85,3.44,9.28,3.81c2.59.27,5.26.54,7.75-.23C126,106.13,129,99.67,128.12,94s-4.57-10.46-8.83-14.27"/><path class="cls-3" d="M171.3,81c-8.81.72-16.37,8.83-16.48,17.66,0,3,.81,6.17,3.14,8a11.33,11.33,0,0,0,5.34,2,32.16,32.16,0,0,0,8.6.17c3.3-.37,6.67-1.32,9.12-3.56a12.69,12.69,0,0,0,3.13-4.68,15.63,15.63,0,0,0-1.1-13.93,14.06,14.06,0,0,0-12.2-6.54"/><path class="cls-4" d="M207.93,98.51c.59,4.52,2.2,9.54,6.61,11.57,3.34,1.54,7.5.84,10.62-1a22.38,22.38,0,0,0,7.21-7.78c2.58-4.19,4.59-9.06,3.5-13.79a12.93,12.93,0,0,0-8.93-9.1A14.37,14.37,0,0,0,214,81c-5.57,4.72-5.75,12.64-5.54,19.62"/><path class="cls-5" d="M273.84,83.39c-2.56-2-6.15-.08-7.8,3s-1.88,7-2,10.66c-.12,2.93-.12,6.19,1.49,8.37s4.1,2.49,6.41,2.7c4.2.38,8.55.58,12.49-1.25a13,13,0,0,0,7.41-11.35c0-4.45-2.4-8.39-5.22-11.21-4.3-4.28-10.86-6.61-15.27-2.51"/><path class="cls-6" d="M329.48,84c-4.27-1.4-9.26.76-11.64,4.56a13.38,13.38,0,0,0-.27,12.89,18.81,18.81,0,0,0,9.92,8.67,11.94,11.94,0,0,0,4.77,1,11,11,0,0,0,5.75-2.09c4.91-3.35,7.88-10,5.64-15.48a21.33,21.33,0,0,0-2.95-4.7,21.7,21.7,0,0,0-5-5.26,7.3,7.3,0,0,0-6.94-.9"/><path class="cls-6" d="M108.22,79.58A49.81,49.81,0,0,0,99,88.27c-1.2,1.47.7,3.48,2.12,2.12l12.44-11.91c1.19-1.14-.43-3.39-1.82-2.35-2.33,1.75-4.47,3.64-4.8,6.69-.2,1.77,2.42,1.91,2.94.4l.29-.84a1.51,1.51,0,0,0-2.2-1.69,7.56,7.56,0,0,0-3.45,6c-.08,1.65,2,1.81,2.8.75A8.63,8.63,0,0,0,108.9,84l-2.94-.4c0,.31.05.61.07.92s-.43,2.54.53,1.47l-2.5-1.46-.73,2.25,2.94.4,0-2.55a1.51,1.51,0,0,0-3-.4l-.74,2.72,2.95.4a10.41,10.41,0,0,1,.51-3.59l-3-.39a31.64,31.64,0,0,1-1,7.36l3,.4a8.26,8.26,0,0,1,.41-3.56,8,8,0,0,1,1.76-2.22c1.34-1.34,2.7-2.7,3.07-4.63l-2.2.9.73.33L110,79.18a3.46,3.46,0,0,0-4.49,2.38l1.84-1,.72.83-.44,1.06.14-.15-2.51-1.46a2.2,2.2,0,0,0,1.24,2.63,2.57,2.57,0,0,0,1.52.21c.4-.06,1.37-.67,1.69-.42a1.52,1.52,0,0,0,2.51-.66,8.93,8.93,0,0,1,1.49-2.91l-2,.54a2.81,2.81,0,0,0,2.82.08l-2.2-.9a4.93,4.93,0,0,0,1.38,2.73,1.51,1.51,0,0,0,2.13,0l1.32-1.68h-2.13l.81,1c1.13,1.4,3.06-.38,2.36-1.81l-1.5-3-2.35,1.81a2.94,2.94,0,0,1,.68,2,1.52,1.52,0,0,0,2.56,1.07c-.26.09-.45,0-.58-.31a1.53,1.53,0,0,0,2.21.9c2.13-1.49,1.88-5-1-5.44a1.5,1.5,0,0,0-.8,2.89c1.12.36.92,1.5,1.42,2.36a2.42,2.42,0,0,0,2.58,1.21,2,2,0,0,0,.07-3.8v2.89c.25-.08.45-.17.68,0,1.21,1,3.4-.31,2.36-1.82a2.16,2.16,0,0,0-3.9.71c-.47,2.07,2,3.77,3.31,5a1.52,1.52,0,0,0,2.51-.66l.43-1.11c.69-1.81-2.21-2.59-2.9-.8l-.43,1.11L126,84l-1.39-1.39L124,82l-.27-.28c-.43-.51-1-.45-1.84.17l2.35-1.81a3.63,3.63,0,0,0-3.6-.79,1.51,1.51,0,0,0,0,2.89c1.42.41.6-2.51.41-3a4.17,4.17,0,0,0-.64-1.1,4.5,4.5,0,0,0-2.24-1.47l-.8,2.89c1.17.18.11.06.26-.05l2.21.9a2.66,2.66,0,0,0-4.45-1l2.57,1.06a6.06,6.06,0,0,0-1.56-4.15c-1.17-1.36-3.07.37-2.36,1.82l1.5,3.05,2.35-1.82-.8-1a1.5,1.5,0,0,0-2.13,0L113.61,80h2.13a2.25,2.25,0,0,1-.62-1.41c-.14-1.06-1.43-1.23-2.2-.89l.2-.08a1.54,1.54,0,0,0-2.05.54,11.4,11.4,0,0,0-1.79,3.63l2.51-.67a3.63,3.63,0,0,0-2.13-.91,3.41,3.41,0,0,0-1.1.12,3,3,0,0,0-.59.21c-.66.1-.62.46.13,1.08a1.51,1.51,0,0,0-2.5-1.46,1.94,1.94,0,0,0,.9,3.27,1.53,1.53,0,0,0,1.85-1c.12-.44.44-.43.8-.29,1.57.6,2.71-2,1.16-2.74l-.74-.33a1.52,1.52,0,0,0-2.2.9C107,81.83,105.15,83,104,84.39c-1.66,2-2,4.18-1.94,6.71a1.51,1.51,0,0,0,3,.4,35.75,35.75,0,0,0,1.08-8.16,1.51,1.51,0,0,0-3-.4,13.26,13.26,0,0,0-.61,4.38,1.5,1.5,0,0,0,2.94.4l.75-2.72-3-.4,0,2.55a1.51,1.51,0,0,0,3,.4l.73-2.26a1.51,1.51,0,0,0-2.51-1.46,2.37,2.37,0,0,0,1.63,4c2.31.05,3.13-2.33,2.89-4.25-.2-1.52-2.56-2.21-2.95-.39A6.81,6.81,0,0,1,104.7,86l2.79.76a4.4,4.4,0,0,1,2-3.46l-2.2-1.69-.29.83,3,.4c.19-1.79,2-3.11,3.31-4.1l-1.81-2.36L99,88.27l2.12,2.12a46.79,46.79,0,0,1,8.65-8.22c1.54-1.13.05-3.73-1.52-2.59Z"/><path class="cls-6" d="M116,77.53a9.1,9.1,0,0,0-9.35,6.93,1.51,1.51,0,0,0,2.5,1.46l2.8-2.56c.69-.63,1.6-1.86,2.62-1.76l-.4-2.94c-2.9,1.18-6.33,2.47-8.62,4.69a4.89,4.89,0,0,0-1.64,3.47,19.31,19.31,0,0,1,.1,2.29,14.41,14.41,0,0,1-.81,2.94l2.75-.36-1.64-3.76a1.51,1.51,0,0,0-2.59,0,6.12,6.12,0,0,0-.8,3.32l2.8-.76-.61-.92a1.52,1.52,0,0,0-2.74.36,2.29,2.29,0,0,0,2.12,3c1.74,0,2.58-1.59,2.9-3,.6-2.74,2.81-4.26,5.16-5.53,1.26-.68,2.7-1.61,4.18-1.54s2.8.68,4.25.57a4.15,4.15,0,0,0,2.83-1.25,2.34,2.34,0,0,1,.31-.24c-.62-.33-.83-.28-.6.17-.08.3.24,1,.31,1.25s.2.84.31,1.26c.23,1,.47,1.95.69,2.93.41,1.73,2.83,1.22,3-.4l.13-1.73c.13-1.93-2.87-1.92-3,0l-.13,1.73,2.95-.4c-.43-1.81-.79-3.66-1.32-5.44-.41-1.36-1.34-2.57-2.92-2.29-1.34.23-1.84,1.53-3.29,1.4s-2.71-.66-4.13-.55a11.72,11.72,0,0,0-4.32,1.57,22.58,22.58,0,0,0-3.63,2.24,10.89,10.89,0,0,0-2.58,2.75,8.48,8.48,0,0,0-.8,1.73,9.33,9.33,0,0,0-.28,1.16c0,.18-.08.37-.13.55-.33.46,0,.78.94.94l-2.75.36.61.92c.77,1.16,2.88.81,2.79-.76a3.17,3.17,0,0,1,.39-1.81h-2.59l1.64,3.76c.55,1.28,2.37.74,2.74-.36a13.68,13.68,0,0,0,.94-4.37c0-1.25-.37-2,.63-3a13.07,13.07,0,0,1,3-1.92,44.8,44.8,0,0,1,4.27-2,1.51,1.51,0,0,0-.4-3c-1.51-.15-2.69.78-3.75,1.74-1.27,1.14-2.52,2.3-3.79,3.46l2.51,1.46A6.13,6.13,0,0,1,116,80.53c1.92.14,1.91-2.86,0-3Z"/><path class="cls-6" d="M123.72,81.54a34.1,34.1,0,0,0-8.4-4.82,5.32,5.32,0,0,0-4.59.33,13.84,13.84,0,0,0-3.22,3.26c-2.13,2.63-4.1,5.38-6.09,8.12a8.2,8.2,0,0,0-1.8,4,18.35,18.35,0,0,0,.22,5.23c.28,1.7,2.94,1.25,2.94-.4l0-3.81V91.8a3.38,3.38,0,0,0,0-.9c-.15-.31.66-.07-.39.19l-1.69-.69a5.45,5.45,0,0,1,.57,5.11,1.55,1.55,0,0,0,.54,2,1.5,1.5,0,0,0,2-.53,8.51,8.51,0,0,0-.57-8.14,1.56,1.56,0,0,0-1.7-.69c-1.6.4-1.8,2-1.81,3.38l0,5.72,3-.4a14,14,0,0,1-.13-4.23,7.47,7.47,0,0,1,1.76-3.21c1.64-2.26,3.26-4.53,5-6.71a19.26,19.26,0,0,1,2.5-2.84c1.05-.87,2.18-.54,3.32,0a42.68,42.68,0,0,1,7,4.23c1.56,1.13,3.06-1.47,1.51-2.59Z"/><path class="cls-6" d="M124.35,86a4.3,4.3,0,0,1,.45,2.59c-.17,1.45,2.19,2.08,2.79.76l1-2.17H126A19.16,19.16,0,0,1,127.28,97a1.5,1.5,0,1,0,3,0,22,22,0,0,0-1.71-11.38,1.51,1.51,0,0,0-2.6,0l-1,2.16,2.8.76a7,7,0,0,0-.86-4.1c-.93-1.7-3.52-.18-2.59,1.51Z"/><path class="cls-7" d="M162.18,85.92a18.29,18.29,0,0,1,3.77.15c.85.12,2-.38,1.9-1.45a8.44,8.44,0,0,0-.79-2.78c-.67-1.41-2.76-.64-2.79.76a2.14,2.14,0,0,0,.68,1.66V82.13a2.81,2.81,0,0,0-.81,2.17l2.56-1.06A3.49,3.49,0,0,0,163.94,82l1.3.74-.76-1.36-2.36,1.82a14.89,14.89,0,0,0,2.4,1.7,1.5,1.5,0,0,0,2.2-.89l.35-2.08-2.21.89c.44.27.7.76,1.16,1a2.31,2.31,0,0,0,1.69.23,2,2,0,0,0,1.51-2.45,1.51,1.51,0,0,0-2.95.4l0,1.65a1.5,1.5,0,0,0,3,0,2.46,2.46,0,0,1,1.29-2.21l-2.26-1.3.1,1.56a1.51,1.51,0,0,0,2.79.76,10.83,10.83,0,0,0,1.86-4.36h-2.89c.3,1-.08,2.13.08,3.19a3.58,3.58,0,0,0,1.53,2.5,1.51,1.51,0,0,0,2-.53,2.62,2.62,0,0,1,1.48-1.22l-1.85-1.84-.64,1.88a1.51,1.51,0,0,0,1.84,1.84l5.19-1.68L178,80.41a3.36,3.36,0,0,1-1.37,2.14c-1.57,1.08-.18,3.57,1.51,2.59a12.65,12.65,0,0,1,3.35-1.35l-1.46-2.5c-.39.37-1.83,1.39-2,.37-.21-1.45-2.08-1.23-2.75-.36l-.69.91,2.74,1.16.49-2.92c.26-1.54-2-2.82-2.74-1.16l-1.55,3.27,2.74,1.15A17.17,17.17,0,0,1,178,79.25a1.5,1.5,0,0,0-2.35-1.82,19.45,19.45,0,0,0-3.85,5.12l2.74.36L174.15,81a1.51,1.51,0,0,0-3,.4s.6.16.32-.19a1.51,1.51,0,0,0-2.51.67c-.21,1.27-1.22-.23-1.58-.63l-3.15-3.55a1.5,1.5,0,0,0-2.36,1.81,11.57,11.57,0,0,1,1.69,3.25,4,4,0,0,0,.14.72c0,.41.12.28.4-.37l-.37.1a12.74,12.74,0,0,1-1.86.08,1.52,1.52,0,0,0-1.84,1.84l.18.89,2.2-1.7-1.18-.64a1.52,1.52,0,0,0-2.05.54c.13-.22.58-.15,0-.2a2.15,2.15,0,0,0-.62.07,2,2,0,0,0-1.13.92,2,2,0,0,0,.32,2.48c1.84,1.81,3.64-.37,4.92-1.57A14.66,14.66,0,0,1,165,84.17c.88-.54,1.83-.87,2.73-1.35,2.1-1.15,1.14-3.61,0-5.13-.94-1.24-3.32-.6-2.75,1.16a5.09,5.09,0,0,0,2.52,3c1.72.87,3.24-1.72,1.52-2.59a2.05,2.05,0,0,1-1.14-1.24l-2.74,1.16A8,8,0,0,1,166,80.8c.34-.5.37-.68.1-.53l-.47.2c-.23.09-.46.2-.68.3a18.15,18.15,0,0,0-3.31,2.1,16.42,16.42,0,0,0-1.4,1.23c-.23.22-.44.44-.65.67-.49.5-.42.46-.51,1.37s-.23,1,.58,1a2.71,2.71,0,0,0,.84-.2,2.63,2.63,0,0,0,1.28-1.16l-2,.54L161,87a1.51,1.51,0,0,0,2.2-1.69l-.18-.88-1.85,1.84c1.75.24,5,.4,5.57-1.84s-1.06-4.63-2.18-6.34l-2.35,1.82,2.72,3.06c.77.87,1.54,2,2.68,2.36a3.44,3.44,0,0,0,4.35-2.57l-2.51.67a2.73,2.73,0,0,0,4.8-1.94l-2.95.4.44,1.87a1.51,1.51,0,0,0,2.74.35,17.14,17.14,0,0,1,3.38-4.51l-2.36-1.81a20.45,20.45,0,0,0-2,5.18c-.37,1.58,2,2.75,2.75,1.15l1.55-3.27L175,79.65l-.5,2.92a1.51,1.51,0,0,0,2.75,1.15l.69-.9-2.74-.36a3.23,3.23,0,0,0,3,2.61,5.41,5.41,0,0,0,4-1.66,1.51,1.51,0,0,0-1.46-2.51,15.27,15.27,0,0,0-4.06,1.65l1.51,2.59a6.46,6.46,0,0,0,2.76-3.93,1.52,1.52,0,0,0-1.85-1.85L173.88,81l1.85,1.84.65-1.88a1.51,1.51,0,0,0-1.85-1.84,5.85,5.85,0,0,0-3.27,2.59l2.05-.54c-.29-.21-.08-1.27-.06-1.52a6.58,6.58,0,0,0-.17-2.38c-.39-1.34-2.61-1.52-2.89,0A8.69,8.69,0,0,1,168.63,81l2.8.76-.1-1.56a1.51,1.51,0,0,0-2.25-1.29,5.54,5.54,0,0,0-2.78,4.8h3l0-1.65-2.94.4c1.27-.38,1.65-.79,1.16-1.25l-.32-.34a4.27,4.27,0,0,0-.79-.61,1.51,1.51,0,0,0-2.2.9l-.35,2.08,2.21-.9a10.1,10.1,0,0,1-1.8-1.24,1.51,1.51,0,0,0-2.35,1.82l.76,1.36a1.49,1.49,0,0,0,1.29.75c.36,0,.42.11.64.38a1.51,1.51,0,0,0,2.56-1.06l-.07,0a1.53,1.53,0,0,0,0-2.13l.2.47-2.8.75a4.05,4.05,0,0,1,.38,1.27l1.9-1.45a23.28,23.28,0,0,0-4.57-.25c-1.92.09-1.93,3.09,0,3Z"/><path class="cls-2" d="M266.37,83.62A29,29,0,0,0,261.7,99.3h3a32,32,0,0,1,2.74-13.92c.65-1.45-1.1-3.15-2.36-1.82-4.68,5-3.57,12-2.22,18l2.51-1.46c-.25-.26-.21-.39-.17-.74h-3l.33,12.69c0,1.38,2.13,2.18,2.79.76a15.31,15.31,0,0,0,1.41-5.35l-2.26,1.29a.38.38,0,0,1,.16.32c-.24,1.55,1.87,2.78,2.74,1.16a5.18,5.18,0,0,0,.65-2.93l-2.95.39.63,2.22a1.51,1.51,0,0,0,2.2.89l-1.37-.85a1.52,1.52,0,0,0,1.9,1.45c1.83-.31,2-2.74.73-3.77-.68-.56-1.62-.57-2.28-1.13a3.54,3.54,0,0,1-1-1.68,16.91,16.91,0,0,1-.48-5.26V92.52a1.51,1.51,0,0,0-2.56-1.06,13.31,13.31,0,0,0-3.44,7.2l2.95.39c.8-6.18,1.85-13.53,7.5-17.27l-2.05-2q-2.64,3.54-5.55,6.86A1.51,1.51,0,0,0,264.07,89a25.93,25.93,0,0,0,7.73-6.23,1.51,1.51,0,0,0-.31-2.35,4.12,4.12,0,0,0-4.39.26L268.91,83l2.39-2.31a1.52,1.52,0,0,0-1.06-2.56,7.45,7.45,0,0,0-5.87,2.33l2.12,2.12a10.18,10.18,0,0,1,2.44-1.94c1.7-1,.21-3.43-1.51-2.59a20,20,0,0,0-5.25,3.73c-1.39,1.37.68,3.38,2.12,2.12a13.56,13.56,0,0,1,6.89-3.16l-1.84-1.85a6.07,6.07,0,0,1-1.44,2A1.52,1.52,0,0,0,269,83.47a2.54,2.54,0,0,0,1.4-.27,3,3,0,0,0,.61-.38c.66-.34.58-.91-.24-1.7l2.36-.3c.31.25-.28,1.1,0,1.34.13.08.62,0,.76,0a3.51,3.51,0,0,0,1.36-.39,2.12,2.12,0,0,0,1-2.4l-1.45,1.9,4.09,0v-3l-8.18.13.4,3a20.34,20.34,0,0,1,4.78-.8,1.5,1.5,0,0,0,0-3l-6,0,.4,3a6.31,6.31,0,0,1,2.08-.1l-.4-3a16.25,16.25,0,0,0-12.6,12.12,1.51,1.51,0,0,0,2.5,1.46,45.77,45.77,0,0,0,4.49-5.53c.87-1.26-.82-2.82-2.05-2.06a18.64,18.64,0,0,0-3.13,2.46L263.29,88a25.93,25.93,0,0,1,5.27-4.53,16.28,16.28,0,0,1,6-2.65,3.68,3.68,0,0,1,2.54.43c1,.58,1.78.24,2.87.26A7.6,7.6,0,0,1,285.42,84l1.82-2.36a15.89,15.89,0,0,0-5.17-2.25,1.5,1.5,0,0,0-.8,2.89A44.88,44.88,0,0,1,291,87.37l.76-2.8a18,18,0,0,1-5.07-.15l.9,2.21a3.63,3.63,0,0,0,.07-3.36L286,85.48a5.72,5.72,0,0,1,4.67,4.58l1.85-1.84a5.17,5.17,0,0,1-2.3-1.64l-1.06,2.56c.37,0,.61,4.11.63,4.65a26.17,26.17,0,0,1-.35,5.38,26.67,26.67,0,0,1-3.94,10l2.74.36-.75-2.79-2.74,1.16.81,1.14a1.51,1.51,0,0,0,2.74-1.15l0-.29-.15,1.15c-.77,0-.94.12-.52.39a1.52,1.52,0,0,0,2.56-1.06c0-.69,1.05-.67,1.38-.26l1.06-2.56-2.53.16a1.53,1.53,0,0,0-1.45,1.9c-.06-.45.07-.69.37-.72s.16-.07,0-.23a6.28,6.28,0,0,0-.27-.94l-2.2,1.69a35.94,35.94,0,0,1,4.77,3.75L293,108.5c-1.29-.93-3.76-2.2-5.43-1.72-1.84.54-1.64,3.08-.53,4.16a3.13,3.13,0,0,0,4.06,0c1.59-1.28,1.43-3.38,1.15-5.18l-1.05,1.84a3,3,0,0,1,1.4-.2,1.43,1.43,0,0,0,1.29-.74,3.93,3.93,0,0,0,.43-3.2,2.48,2.48,0,0,0-2.33-1.62c-2.15.06-2.62,2.82-1,3.94l.76-2.79a1.76,1.76,0,0,1-1.21-.73l-.66,2.5a1.34,1.34,0,0,1,1,.06,1.53,1.53,0,0,0,1.9-1.45,95,95,0,0,0,.65-10.51,8.55,8.55,0,0,0-3.91-7.31,2.92,2.92,0,0,1-1.27-1.31,6.77,6.77,0,0,1-.1-2.11,4.54,4.54,0,0,0-1.61-3.79,8.6,8.6,0,0,0-4.36-1.25,29.44,29.44,0,0,0-6,0c-1.89.18-1.95,3.11,0,3a15.81,15.81,0,0,1,13.56,6.27l2.05-2A12.4,12.4,0,0,1,289,81.75l-1.46,2.51a3.3,3.3,0,0,1,2.16,2.4c.48,1.86,3.38,1.07,2.89-.8a6.36,6.36,0,0,0-4.25-4.49c-1.55-.52-2.34,1.45-1.46,2.5a14.93,14.93,0,0,0,3.43,3c1.21.78,2.95-.83,2.05-2a18.88,18.88,0,0,0-16.15-7.76v3a30.15,30.15,0,0,1,5.29-.06c.93.08,3,0,3.54,1a4,4,0,0,1,.15,1.82,8,8,0,0,0,.16,2,5.07,5.07,0,0,0,2.14,2.88,6.22,6.22,0,0,1,2.46,2.42,8.81,8.81,0,0,1,.53,3.6c0,3.2-.43,6.41-.66,9.6l1.89-1.45a4.09,4.09,0,0,0-2.61,0,1.52,1.52,0,0,0-.66,2.51,4.74,4.74,0,0,0,3.33,1.61c1.62.15,1.85-2,.76-2.8a6.66,6.66,0,0,0-1.18,2l1.3-.75a5.3,5.3,0,0,0-2.2.31,1.55,1.55,0,0,0-1.05,1.84,3.26,3.26,0,0,1-.09,2s-.18,0-.21.09-.18,0,0,.08.23.26,0,.53l-1.06.44a6.74,6.74,0,0,1,3.52,1.36c1.39,1,3.05-1.21,1.82-2.36a39.83,39.83,0,0,0-5.38-4.22,1.52,1.52,0,0,0-2.2,1.7c.37,1.52,1.22,3.33,3.05,3.37a2.51,2.51,0,0,0,2.65-3.08L290,108.4l2.53-.16a1.53,1.53,0,0,0,1.06-2.56c-2.08-2.56-6.39-.71-6.5,2.38l2.56-1.06a2.94,2.94,0,0,0-2.89-1,2.19,2.19,0,0,0-1.4,2.62l2.74-1.16-.81-1.15a1.51,1.51,0,0,0-2.74,1.16l.75,2.79a1.52,1.52,0,0,0,2.74.36,29.12,29.12,0,0,0,4.42-20c-.3-2.14-.63-4.54-3.35-4.57a1.52,1.52,0,0,0-1.06,2.56,8.18,8.18,0,0,0,3.62,2.41c1.16.41,2.06-.81,1.85-1.84a8.68,8.68,0,0,0-6.77-6.69,1.53,1.53,0,0,0-1.7,2.21l-.06.32a1.52,1.52,0,0,0,.9,2.21,20.55,20.55,0,0,0,5.86.25,1.51,1.51,0,0,0,.76-2.79,48.33,48.33,0,0,0-10.47-5.35l-.8,2.89a13.43,13.43,0,0,1,4.45,2c1.47,1,2.92-1.14,1.82-2.36a10.61,10.61,0,0,0-9.82-3.23l1.16.15c-2.7-2.09-6.34-.86-9.08.47a28,28,0,0,0-8.63,6.53c-1.29,1.43.73,3.49,2.12,2.12a14.72,14.72,0,0,1,2.52-2l-2.05-2a40.42,40.42,0,0,1-4,4.93l2.51,1.46a13.28,13.28,0,0,1,10.5-10c1.79-.34,1.17-2.8-.39-3a9,9,0,0,0-2.88.2c-1.67.38-1.27,2.94.4,3l6,0v-3a24,24,0,0,0-5.58.91,1.5,1.5,0,0,0,.4,2.94l8.18-.13a1.5,1.5,0,0,0,0-3l-4.09,0a1.52,1.52,0,0,0-1.44,1.9c.7-.83.81-1.17.33-1a.65.65,0,0,1-.31,0,3,3,0,0,0-.74,0,3.09,3.09,0,0,0-1.61.76,2,2,0,0,0-.09,3,1.52,1.52,0,0,0,2.35-.3,2,2,0,0,0-1-2.87,2.62,2.62,0,0,0-1.7-.2c-.54.13-1.2.94-1.7.9L270,83a9.64,9.64,0,0,0,2.21-3.35c.49-1.18-.87-2-1.85-1.84a16.32,16.32,0,0,0-8.21,3.93l2.12,2.12a17.45,17.45,0,0,1,4.64-3.26L267.42,78a12.72,12.72,0,0,0-3.05,2.41c-1.31,1.41.79,3.53,2.12,2.12a4.53,4.53,0,0,1,3.75-1.45l-1.06-2.56-2.39,2.3c-1.19,1.15.42,3.39,1.82,2.36A1.25,1.25,0,0,1,270,83l-.31-2.36a23.74,23.74,0,0,1-7.11,5.76l1.82,2.35c2.11-2.4,4.11-4.9,6-7.47.9-1.21-.85-2.84-2-2-6.68,4.42-8,12.5-9,19.86-.22,1.66,2.71,2.08,2.94.4A10.68,10.68,0,0,1,265,93.58l-2.56-1.06c0,3.67-.3,7.5.18,11.15a9.29,9.29,0,0,0,1.36,4,5.53,5.53,0,0,0,1.34,1.39,4.52,4.52,0,0,0,.76.46l.65.27q1,.5.93-1.26l1.9,1.44a2,2,0,0,0-3.14-1.74l2.2.9L268,107c-.45-1.57-3.1-1.34-3,.4a2.23,2.23,0,0,1-.24,1.41l2.74,1.16a3.55,3.55,0,0,0-1.53-3.71c-1-.72-2.18.28-2.26,1.3a11.19,11.19,0,0,1-1,3.84l2.8.75-.33-12.69a1.5,1.5,0,0,0-3,0,3.51,3.51,0,0,0,1.05,2.86,1.51,1.51,0,0,0,2.51-1.46c-1.09-4.91-2.4-11,1.44-15.12l-2.35-1.82A35.48,35.48,0,0,0,261.7,99.3a1.5,1.5,0,0,0,3,0A26,26,0,0,1,269,85.14c1.05-1.63-1.54-3.13-2.59-1.52Z"/><path class="cls-3" d="M322.73,80.8a7.15,7.15,0,0,0-6.6,4.65c-.76,2.5,2.28,5.49,4.33,3.07,1.84-2.18-1.11-5.13-3.15-3a2.5,2.5,0,0,0-.06,3.4,3.34,3.34,0,0,0,3.32.76,1.51,1.51,0,0,0,1-1.85,3,3,0,0,0-4.6-1.38c-1.83,1.32-1.42,4,.14,5.4l.3-2.36c-1.61.93-4.36,2.94-4.21,5.07.19,2.62,3.69,2.62,4.65.5a1.5,1.5,0,0,0-2.59-1.51c-1.35,1.82-2.69,4.8-2.16,7.14.6,2.64,4.48,1.64,5.23-.37.85-2.29-2.32-4.3-3.71-2.06s.63,4.87,2.83,5.35v-2.89A4.7,4.7,0,0,0,314.2,105a1.51,1.51,0,0,0,1.5,1.5,2.86,2.86,0,0,0,2.21-.88,1.52,1.52,0,0,0-.66-2.51,2.46,2.46,0,1,0,0,4.65c1.87-.47,1.08-3.34-.8-2.89a3.16,3.16,0,0,0-2.27,4.05,1.54,1.54,0,0,0,1.44,1.1,4.48,4.48,0,0,0,3.46-1.67l-1.06.44c.77.07-1,3-1,3.4a2.11,2.11,0,0,0,2.16,2.26,2.28,2.28,0,0,0,2.34-1.91c.25-1.56-.87-2.65-2.2-3.19-1.56-.64-2.7,2-1.16,2.74a9.07,9.07,0,0,0,2.31.76l-.89-2.21a2.31,2.31,0,0,0,1.36,3.35c1.54.48,2.77-.62,3.49-1.87l-2.75-1.16a3.26,3.26,0,0,0,.47,3.15,2.34,2.34,0,0,0,2.83.43c1.75-.82.22-3.41-1.51-2.59.71.47,1.08.4,1.11-.19a1.51,1.51,0,0,0-2.74-1.16,1.8,1.8,0,0,1-.25.4c-.33.36-.14.75.58,1.16a1.52,1.52,0,0,0-.9-2.21,5.89,5.89,0,0,1-1.59-.45l-1.16,2.74c.34.14.4-.6.66-.79.29,1.21.58,1.55.88,1l.2-.28a4.65,4.65,0,0,0,.72-1.4,4,4,0,0,0-.15-3.31,3.23,3.23,0,0,0-2.43-1.69c-1.27-.12-1.57,1.15-2.74,1.2l1.45,1.1c-.08-.24-.1-.29.18-.36l-.8-2.89,0,1.13-.66-2.5h-.09l1.5,1.5a1.56,1.56,0,0,1,1.08-1.34c1.31-.45,1.54-2.55,0-2.89a1.27,1.27,0,0,1-.82-.43c-.48-.62.13-.44-1-.87-.16-.06-1-.49-1.32-.11.67.9,1,1.07.95.5a6,6,0,0,1,.05-.61,8.79,8.79,0,0,1,1.76-4.14l-2.59-1.51,1,.94a3,3,0,0,1,.37-.49,8,8,0,0,1,.68-.74A9.1,9.1,0,0,1,319,92.08a1.5,1.5,0,0,0,.3-2.35,1.91,1.91,0,0,1-.55-1.1l1-1.84a.7.7,0,0,1-.35,0l-1.29-.17.86-.19a5.32,5.32,0,0,0,.21-.53,3.53,3.53,0,0,1,.62-.72,3.67,3.67,0,0,1,2.91-1.42c1.93.14,1.92-2.86,0-3Z"/><path class="cls-3" d="M324.34,80.45a44.06,44.06,0,0,0-5.71-.6c-1.8,0-2.44,1.52-2.31,3.12.25,3.15,2.55,6.32,6.07,5.38a1.52,1.52,0,0,0,1.1-1.44,4.1,4.1,0,0,1,.55-2.24l-1.69.69c.59.17,1.17.35,1.75.57a1.51,1.51,0,0,0,1.9-1.45c-.14-1.62,1.75-.53,2.57-.34a3.84,3.84,0,0,0,3.17-.47C334,82,331.4,78.35,329.27,80c-1.92,1.48-.29,4.45,1.56,5.06,2.43.8,4.55-1.39,4.94-3.64.32-1.87-2.48-2.71-2.89-.8a2.09,2.09,0,0,0,3.79,1.62c.77-1.11-.5-2.53-1.7-2.21a2.79,2.79,0,0,0-1.87,3.49c.44,1.65,2.11,2.33,3.62,2.69a1.49,1.49,0,0,0,1.46-.39l1-1.14-2.56-1.06c-.14,2.88,3.54,4.34,5.57,2.46l-2.51-1.46a7.39,7.39,0,0,1-1.23,2.52,1.54,1.54,0,0,0,.54,2.06,3.41,3.41,0,0,0,3.92,0c1.12-.77.84-2.9-.76-2.79a3.18,3.18,0,0,0-2.81,4c.49,2.27,2.86,3,4.89,3.36l-.67-2.51a9.58,9.58,0,0,0-2.26,4,1.52,1.52,0,0,0,1.85,1.85l2.06-.74-1.69-2.21a7.4,7.4,0,0,0-1.25,2.93A1.54,1.54,0,0,0,343.33,99a1.93,1.93,0,0,0,2.44-2,1.77,1.77,0,0,0-3.17-.94c-1.05,1.35,0,3,0,4.47,0,.84-.29,1.72-.34,2.57a15.65,15.65,0,0,0,.12,3.06l2.56-1.06c-1.83-1.94-6,.19-5.68,2.8a2,2,0,0,0,2.74,1.69,1.89,1.89,0,0,0,.51-3.1,1.52,1.52,0,0,0-2.56,1.06l-.11,1.37,1.5-1.5-1.33-.14a1.52,1.52,0,0,0-1.3.75c-.94,1.38-1.24,3.85.83,4.42,1.5.41,3.38-.94,2.74-2.59a1.53,1.53,0,0,0-2.51-.66A2.93,2.93,0,0,0,341,114c1.82.65,2.6-2.24.8-2.9.14,0,.21.11.08.25l-2.5-.66c.22-1.3.74-1.47,1.55-.51a3.37,3.37,0,0,1,.36-.61l-1.29.74,1.33.14c.85.08,1.44-.76,1.5-1.5l.11-1.37-2.56,1.06c.22.18,2-.81,2.22-1.06s.45-.07.21-.33c.82.87,2.73.27,2.56-1.06a14.71,14.71,0,0,1,.06-4.54,5.16,5.16,0,0,0,.07-2c-.05-.31-.11-.62-.16-.93s0-1.08-.33-.82l-1.06.43.2,0-1.06-.44.13.14L342.77,97l1.35-.89,1.05,1.84a5.32,5.32,0,0,1,.95-2.21,1.52,1.52,0,0,0-1.69-2.21l-2.07.74,1.85,1.85a6.22,6.22,0,0,1,1.49-2.72c.69-.74.51-2.32-.67-2.5a4.84,4.84,0,0,1-2.48-.75c-.2-.19-.18-.32-.29-.52s.42-.24-.1-.2l-.76-2.8c-.39.27-.51.25-.89,0l.54,2.05a10,10,0,0,0,1.53-3.24,1.51,1.51,0,0,0-2.5-1.46c-.09.08-.46-.08-.45-.34a1.51,1.51,0,0,0-2.56-1.06l-1,1.14,1.46-.39c-.42-.1-.83-.28-1.24-.37-.86-.21.31-.24-.51,0l-1.69-2.2,1.69.7-2.89-.8c-.09.49-.27,1.38-.85,1.54-.22,0-.17,0-.37,0s-.07-.43-.18-.23l-1.3.74-.5-.55.44-1.06c-.47.58-1.59-.12-2.16-.28a4.35,4.35,0,0,0-2.55,0A3.68,3.68,0,0,0,323,84.48L324.9,83c-.58-.22-1.16-.41-1.75-.57a1.52,1.52,0,0,0-1.7.69,7.11,7.11,0,0,0-1,3.75l1.1-1.45a1.58,1.58,0,0,1-1.74-.76,3.33,3.33,0,0,1-.44-1.13,4.27,4.27,0,0,1-.11-.81c.1-.48,0-.54-.34-.16-.82.41.43.31.75.35l1.46.15,3.17.35c1.92.2,1.9-2.8,0-3Z"/><path class="cls-3" d="M344.31,106.42a5.46,5.46,0,0,0-1.54,2.67,3.16,3.16,0,0,0,1.07,3.55,2.57,2.57,0,0,0,3.35-.55,2.61,2.61,0,0,0-.26-3.47,1.52,1.52,0,0,0-2.35.31,3.82,3.82,0,0,0,.1,4.11,4.1,4.1,0,0,0,1.82,1.42,3.88,3.88,0,0,0,2.08.17,1.47,1.47,0,0,0,.9-.68,1.52,1.52,0,0,0,.15-1.16,1.55,1.55,0,0,0-.69-.9,1.75,1.75,0,0,0-1.15-.15c.48-.07.15,0,0,0h-.13l.16,0c-.15,0-.32-.1-.48-.13.23.1.28.11.14,0l-.15-.08c-.11-.07-.23-.24,0,0l-.18-.17-.11-.12c.14.18.17.23.11.14l-.16-.26c-.13-.24.1.31,0,0L347,111c-.07-.28,0,.38,0,0a1.08,1.08,0,0,0,0-.31l0,.23a.85.85,0,0,1,0-.17c0-.07.08-.19.07-.26-.09.23-.11.27,0,.12l.09-.15-2.36.3c.05.05.19.21,0,0s0,0,0,0-.15-.36-.08-.16,0-.3,0-.15,0-.16,0-.15-.11.34,0,0,0,0,0,0,.25-.29.1-.14c.25-.25.23-.17.1-.1s.36-.14.14-.07.33,0,.15,0-.12-.09.16,0l-.13,0c-.26,0,.28.11.13,0l-.08,0,.2.15c-.19-.14.16.27.07.1s.08.29,0,.11,0,0,0,.09a2.39,2.39,0,0,0,0-.46c0-.21,0,.07,0,.13a1.7,1.7,0,0,0,0-.22c0-.15.08-.29.13-.44l.07-.21c0,.06-.13.29,0,.11s.14-.26.22-.39.09-.12.13-.19-.25.29,0,.06l.31-.33a1.51,1.51,0,0,0,0-2.12,1.54,1.54,0,0,0-2.12,0Z"/><path class="cls-3" d="M343.56,86.94a3.29,3.29,0,0,0-2.47,3.2,4.38,4.38,0,0,0,2.11,3.48c1.28.84,3.2,1.2,4.45.09a2.78,2.78,0,0,0,.57-3.39,2.36,2.36,0,0,0-3.6-.52,5.43,5.43,0,0,0-1.52,4c-.05,3.13,2.48,5.82,5.69,5.18a1.51,1.51,0,0,0,.9-2.2c-.92-1.49-2.7-.93-3.53.3a7.07,7.07,0,0,0-.91,4.35,3.48,3.48,0,0,0,.51,2.1,1.82,1.82,0,0,0,2.1.53c1.68-.65,1.49-2.68.33-3.7a1.52,1.52,0,0,0-2.5.66,28.26,28.26,0,0,0-.61,7.89,1.5,1.5,0,0,0,3,0,25.16,25.16,0,0,1,.5-7.09l-2.51.66c.23.14.27.2.12.16v-.8l.34-.45.75-.2-.18,0,.76.2c.36.6.49.66.4.17,0-.2,0-.41,0-.61s0-.61,0-.92a3.4,3.4,0,0,1,.16-.77,1.31,1.31,0,0,1,.19-.44c.15-.22.14-.23,0,0h-.8l.15.05-.89-.69.08.13.89-2.2a1.63,1.63,0,0,1-1.63-1c-.5-1-.1-1.84,0-2.82.06-.38.54-.09-.34-.41-.34,0-.5,0-.47-.26a.17.17,0,0,1,.09-.21,8.7,8.7,0,0,1-.84-.34c-.29-.18-1.21-1.11-.48-1.27,1.88-.44,1.08-3.33-.8-2.9Z"/><path class="cls-3" d="M337.28,82.28a6.4,6.4,0,0,0,4.28,2.82,4.35,4.35,0,0,0,4.54-2.25,2.26,2.26,0,0,0-.83-2.86,2.14,2.14,0,0,0-2.92.91A7.23,7.23,0,0,0,341,86.1c.42,1.92,2.57,3.58,4.53,2.84a1.52,1.52,0,0,0,1.08-1.24,1.5,1.5,0,0,0-.72-1.5,2.92,2.92,0,0,0-2.1-.36,2,2,0,0,0-1.44,1.92,2.13,2.13,0,0,0,1.35,1.9,3,3,0,0,0,2.56-.33l-2.06-2a3.81,3.81,0,0,0-.36,3.21,8,8,0,0,0,1.73,2.72,1.5,1.5,0,0,0,2.12,0,1.53,1.53,0,0,0,0-2.12,6.05,6.05,0,0,1-.9-1.24,1.53,1.53,0,0,1-.15-.58c0-.26-.06,0,0-.25s0,0,.12-.22a1.51,1.51,0,0,0-.23-1.82,1.56,1.56,0,0,0-1.82-.24s-.18.07-.16.1l.27.11c.4.11.57.43.5,1l-.39.66-.37.17c-.42,0-.52,0-.33,0,0,0,0,0,.12,0l.36-2.74s-.4.12-.23.08-.24,0,0,0l-.14,0q.18.08,0,0s-.28-.2-.12-.07c0,0-.27-.28-.19-.18s-.14-.23-.14-.24-.08-.21,0-.06c0,0-.07-.41-.05-.24a2.91,2.91,0,0,1,.28-1.4,7.69,7.69,0,0,1,.38-.76l.23-.42c0-.07.14-.33.14-.26-.18.22-.44.16-.79-.18-.62.1-.88-.08-.78-.55,0,0,0-.1.06-.1s-.27.27-.19.2-.19.12-.23.14c-.35.22.08,0-.14.07l-.38.1c-.24.06,0,0-.15,0h-.39c.2,0-.07,0-.15,0a3,3,0,0,1-.4-.12l-.12,0-.44-.26a4.55,4.55,0,0,1-.94-.92,1.55,1.55,0,0,0-2.05-.54,1.53,1.53,0,0,0-.54,2.06Z"/><path class="cls-3" d="M330.84,77a3.3,3.3,0,0,0,1.48,2.91,3.22,3.22,0,0,0,3.18.15,2.92,2.92,0,0,0,1.69-2.54,2.19,2.19,0,0,0-2.7-2.23c-2.25.63-2.68,3.5-1.85,5.36a3.65,3.65,0,0,0,2.2,2,2.53,2.53,0,0,0,3-1.1,5.07,5.07,0,0,0,.34-.87c.09-.27-.06.07-.08.13s-.08.09,0,0c-.21.15-.24.18-.11.1-.36.2-.24.09-.14.07.41-.07-.26,0,0,0l.45,0a4.53,4.53,0,0,0,1.27-.18A2.34,2.34,0,0,0,341,79.28h-2.9l.54,2.46a1.51,1.51,0,0,0,1.85,1.05,1.54,1.54,0,0,0,1-1.85L341,78.48a1.52,1.52,0,0,0-1.45-1.1,1.6,1.6,0,0,0-1.45,1.1,1.2,1.2,0,0,1,.41-.54c-.12.06.2-.08.2-.08l-.11,0s-.27,0,0,0,.08,0,0,0l-.34,0a4.35,4.35,0,0,0-1.6.28,2.6,2.6,0,0,0-1.45,1.71c0,.09-.18.45,0,.1,0,.06-.13.13,0,0a1.8,1.8,0,0,1,.2-.19s.34-.11.09,0c0,0,.33,0,.16,0s.15,0,.14,0-.39-.06-.12,0,0,0,0,0l-.14-.08c-.17-.09.18.19.06,0l-.11-.11c-.2-.19.11.2,0,0a1.86,1.86,0,0,0-.2-.37s.11.33,0,.07c0-.05,0-.1,0-.16a.83.83,0,0,1,0-.15c-.05-.17.06-.09,0,.08a1.09,1.09,0,0,0,0-.31v-.16c0-.18-.07.31,0,0a2.81,2.81,0,0,0,.08-.31c.07-.24-.13.23,0-.07a.64.64,0,0,1,.08-.14s-.18.22,0,0c0,0,.17-.11,0,0s.34-.06-.12.07a.91.91,0,0,1-1-.42s-.1-.31-.06-.16,0-.33,0-.13,0-.16,0-.16a.57.57,0,0,0,0,.14c-.07.18.14-.27,0-.1s.19-.18,0-.06a1.31,1.31,0,0,0-.12.11c0-.06.25-.15,0,0s.21-.09-.13,0c-.14.06.12,0,.15,0s-.17,0-.21,0c-.22,0,0-.08.08,0a1.17,1.17,0,0,0-.2,0s.24.14.11,0,0,0,0,0l-.11-.12c-.13-.11.16.28,0,0,0,0-.11-.2,0,0s0,0,0-.08,0,.27,0,.08a2.53,2.53,0,0,1,0-.28,1.5,1.5,0,1,0-3,0Z"/><path class="cls-5" d="M215.63,81.49a12.47,12.47,0,0,1,6-1.58c1-.06,2.09-.07,3.14-.06a6.35,6.35,0,0,1,3.34.9l3.15,1.76a2.91,2.91,0,0,1,1.07.71,4.45,4.45,0,0,1,.45,1.49c.6,2.41,1.08,4.85,1.45,7.3a1.51,1.51,0,0,0,1.84,1,1.54,1.54,0,0,0,1-1.85,56.15,56.15,0,0,0-1.73-8.4,4.44,4.44,0,0,0-2.27-2.7c-1.26-.72-2.54-1.44-3.82-2.13-2.46-1.33-5.13-1.23-7.85-1.06a15.68,15.68,0,0,0-7.28,2c-1.65,1-.14,3.6,1.51,2.59Z"/><path class="cls-5" d="M116.78,113.23a53.31,53.31,0,0,0-10.86.3,2,2,0,0,0-1.87,1.32,6,6,0,0,0-.11,2.25c.56,6.61,1.31,13.18,2.27,19.67a6.5,6.5,0,0,0,.49,1.94c.59,1.19,1.68,1.16,2.61,1.46,1.9.62,3.38,3,4.91,4.91s3.48,3.68,5.34,2.78c1.31-.64,2.29-2.5,2.89-4.53s.88-4.26,1.28-6.41c1.46-7.86,4.59-15.26,4.18-23.45a3.42,3.42,0,0,0-.34-1.56,1.09,1.09,0,0,0-1.24-.38L115,113.37"/><path class="cls-2" d="M165.33,112.81c-7.59,2.56-14.09,8.89-17.35,16.93a10.9,10.9,0,0,1,5.48.9,2.86,2.86,0,0,0,1.48.39c.73-.1,1.25-.81,1.77-1.39,3.39-3.77,8.95-3.06,13.66-2.08,3.47.73,7,1.48,10.09,3.35,2.49,1.52,4.8,3.8,7.64,4a2,2,0,0,0,1.64-.53,3,3,0,0,0,.51-1.15l1.68-6a3.21,3.21,0,0,0,.18-1.3,2.8,2.8,0,0,0-.62-1.24c-2.56-3.43-6.12-5.75-9.59-8-3-1.9-5.94-3.82-9.25-4.7s-7-.59-9.77,1.66"/><path class="cls-2" d="M159.57,119.76q.17,13.76-.14,27.51a105.76,105.76,0,0,1,22.8-3.58c.6-4.12-1-8.19-2.37-12.1s-2.43-8.34-.84-12.14"/><path class="cls-6" d="M214.65,116.66c-2.21.18-3.91,2-5.07,3.94s-2.05,4-3.74,5.48a11.5,11.5,0,0,1,5.38,5.4,13.64,13.64,0,0,1,13.64-6.91,18.87,18.87,0,0,1,10.55,8.59,30.27,30.27,0,0,0,5.86-7,3,3,0,0,0,.59-2.59,3.14,3.14,0,0,0-1.26-1.27A51.42,51.42,0,0,0,223,115c-3.09-.65-6.67-.89-9,1.2"/><path class="cls-6" d="M216.44,124.35q1.73,11,3.57,21.92a15.41,15.41,0,0,1,7.8.37,1.56,1.56,0,0,0,1.06.09c.61-.26.71-1.16.71-1.88l.06-24.47"/><path class="cls-3" d="M274.76,115.26c-9.94,11-8.78,30.48-17.25,43.08,2.8-2.71,7-1.64,10.45-.43l10.61,3.67a4.38,4.38,0,0,0,1.94.36,5.78,5.78,0,0,0,2-.9,12.66,12.66,0,0,1,5-1.67c-.46-.88.68-1.71,1.55-1.9,2.67-.61,5.89-1.65,6.56-4.72.46-2.13-.59-4.27-1.53-6.17a124.59,124.59,0,0,1-8.85-24.6c-.55-2.12-1.16-4.44-2.75-5.67a6.37,6.37,0,0,0-2.62-1.09,9.44,9.44,0,0,0-6.72.57c-2.4,1.36-3.92,4.28-4.55,7.29a37.28,37.28,0,0,0-.32,9.27"/><path class="cls-4" d="M328.09,118.5l9.2.29a157.68,157.68,0,0,0,2.13,31c-4.15,1-8.46-.54-12.74-.68A38.64,38.64,0,0,0,316,150.77c5.36-4.89,7.9-12.13,9.45-19.22a5.87,5.87,0,0,0,.2-2,7.31,7.31,0,0,0-.56-1.83,21.83,21.83,0,0,1-1.48-6.85c-.08-1.57.26-3.5,1.73-4a4.41,4.41,0,0,1,2.74.26,27.21,27.21,0,0,0,9.41,1.09,15.82,15.82,0,0,0,.66,6.59"/><path class="cls-5" d="M159.14,145a172.35,172.35,0,0,0,24.57-.92c-2.54,5.56-2.34,12.22-1.55,18.44A1.78,1.78,0,0,1,182,164a1.29,1.29,0,0,1-.86.34l-7.55.91a11.78,11.78,0,0,0-3.19-7c.23,2.58.24,5.72-1.66,7.15a5.6,5.6,0,0,1-3.94.67l-8.57-.64a2.63,2.63,0,0,1-2.11-.86c-.62-.86-.3-2.14.08-3.17,2.13-5.8,5.25-11.32,5.77-17.58"/><path class="cls-3" d="M218.62,145.54l9.91,0a1.75,1.75,0,0,1,1.56.55,2.31,2.31,0,0,1,.28,1.05l1.51,13.5c.21,1.84.17,4.19-1.32,4.92s-3.13-1-3.92-2.72-1.66-3.75-3.32-4c.11,2.8,0,6.13-2.06,7.65a6.39,6.39,0,0,1-4.23.79l-2.65-.13a2,2,0,0,1-1.26-.35,2.25,2.25,0,0,1-.6-1.34,16.25,16.25,0,0,1,.84-7.06q2.12-7.5,4.75-14.8"/><path class="cls-2" d="M271.47,175.47l-4.83.59a6,6,0,0,0-2.37.63,2,2,0,0,0-1.08,2.05,2.23,2.23,0,0,0,1.46,1.47,5.61,5.61,0,0,0,5.44-1.25,2.5,2.5,0,0,0,.89-1.15,1.07,1.07,0,0,0-.44-1.28"/><path class="cls-2" d="M286.56,175.25a2.65,2.65,0,0,0-2.87.45,2.46,2.46,0,0,0-.51,2.83c.82,1.62,3.08,1.72,4.85,1.32a17.33,17.33,0,0,0,2.33-.7c.77-.29,1.66-.89,1.49-1.7s-1.12-1-1.9-1.07l-4-.4"/><path class="cls-8" d="M321,177l-2.83,0a1.26,1.26,0,0,0-1,.32c-.36.47.1,1.12.56,1.48a8.81,8.81,0,0,0,4.08,1.71,1.17,1.17,0,0,0,1-.18,1.24,1.24,0,0,0,.28-.7l.25-1.43a2.19,2.19,0,0,0-.11-1.54c-.28-.45-1.08-.56-1.28-.07"/><path class="cls-3" d="M321,175.48l-2.36,0a3.3,3.3,0,0,0-2.47.7,2.28,2.28,0,0,0-.12,3,6.22,6.22,0,0,0,1.89,1.56,10.7,10.7,0,0,0,2.11.92,6.61,6.61,0,0,0,2.2.38,2.31,2.31,0,0,0,2.24-1.87,20.66,20.66,0,0,0,.4-2.46,2.65,2.65,0,0,0-1.29-2.65,2.19,2.19,0,0,0-3,.79,1.5,1.5,0,1,0,2.59,1.51c.07-.13.08,0-.12.14a1.15,1.15,0,0,1-.33.21c-.24.1-.12.05-.06,0s-.42,0-.2,0l-.23,0,.1,0s-.37-.18-.17-.06c0,0-.26-.25-.14-.1,0,0-.23-.35-.1-.11,0,0-.08-.28-.07-.13a.7.7,0,0,0,0,.14c0-.05,0-.36,0-.11s0,.2,0,.3-.08.2,0-.09a1.29,1.29,0,0,0,0,.19c-.09.53-.16,1.07-.28,1.6a.59.59,0,0,0,0,.17s.14-.29.07-.16.12-.15.11-.14a.78.78,0,0,1,.37-.22c-.23.07.31,0,.06,0H322c-.23,0,.12,0,.12,0a5.58,5.58,0,0,0-.71-.14l-.7-.2-.34-.13-.15,0c-.13-.05-.11-.12.07,0a4.36,4.36,0,0,0-.65-.32c-.21-.12-.42-.24-.62-.38l-.26-.17s-.15-.09-.17-.13.23.21.09.06-.28-.3-.14-.12-.06-.13-.08-.16.12.31.07.16,0,.21,0,.2a.89.89,0,0,1-.44.76s-.36.1-.13.06l.16,0s-.39,0-.14,0h1.11l1.89,0a1.5,1.5,0,0,0,0-3Z"/><path class="cls-8" d="M338.12,176.36a6.69,6.69,0,0,0-2.23-.05,2.29,2.29,0,0,0-1.71,1.29,2,2,0,0,0,.53,2.1,3.16,3.16,0,0,0,2.06.85,4.72,4.72,0,0,0,4.72-3.3,10.77,10.77,0,0,0-4.52-.72"/><path class="cls-3" d="M338.12,174.86a5.46,5.46,0,0,0-4.36.86,3.35,3.35,0,0,0-.71,4.26c1.43,2.55,5.13,2.54,7.32,1.08a6.27,6.27,0,0,0,2.56-3.42,1.53,1.53,0,0,0-1-1.84A12.16,12.16,0,0,0,337,175a1.5,1.5,0,0,0,0,3,9.73,9.73,0,0,1,1.08,0l.54,0,.27,0c-.22,0-.05,0,.07,0a11.51,11.51,0,0,1,2.16.59l-1-1.84a1.28,1.28,0,0,1-.13.39c.08-.2.09-.22,0-.08l-.09.19-.21.35-.12.17.11-.14c-.05.19-.43.46-.58.59l-.16.14c.17-.13.19-.15.06-.05l-.26.17c-.12.07-.24.14-.37.2l-.18.09.07,0a5.56,5.56,0,0,1-.7.19l-.2,0c.23,0,.26,0,.09,0s-.27,0-.41,0-.56,0-.15,0a1.8,1.8,0,0,1-.39-.08,1.63,1.63,0,0,1-.39-.13c.35.2-.07-.07-.14-.1s-.13-.09,0,0l-.17-.15-.15-.16c.11.14.14.17.08.08l-.08-.14c-.08-.15-.07-.13,0,.05l-.06-.2c0-.17,0-.15,0,.07a1.48,1.48,0,0,1,0-.21c0,.22,0,.25,0,.08a1.72,1.72,0,0,1,.07-.21c-.08.18-.09.22,0,.12.25-.29-.18.12.05-.07l.16-.14c-.17.13-.18.14-.05.05l.19-.11-.06,0c.05-.07.28-.09.36-.11l.19,0c-.17,0-.17,0,0,0s.38,0,.56,0c.38,0,.75.07,1.12.12a1.5,1.5,0,0,0,1.5-1.5,1.54,1.54,0,0,0-1.5-1.5Z"/><path class="cls-6" d="M215.57,177c-1.32.35-2.91-.4-4,.44-.9.71-.81,2.09-.63,3.22a.53.53,0,0,0,.56.54,5.38,5.38,0,0,0,3.65-.45,2.54,2.54,0,0,0,1.08-3.22"/><path class="cls-6" d="M232.4,176.71a4.1,4.1,0,0,0-3.11,1.1,2,2,0,0,0,.18,3,2.33,2.33,0,0,0,1.3.29,4.35,4.35,0,0,0,3.25-1.7,2.5,2.5,0,0,0,.54-2,1.37,1.37,0,0,0-1.62-1.05"/><path class="cls-4" d="M160.58,177.91a2.6,2.6,0,0,0-2.92,1,4,4,0,0,0-.55,3.16,1.8,1.8,0,0,0,.32.78c.6.71,1.76.34,2.55-.17a4.23,4.23,0,0,0,1.72-1.76,1.78,1.78,0,0,0-.58-2.21"/><path class="cls-4" d="M178.51,177.18a7.33,7.33,0,0,0-3.36,1,2.56,2.56,0,0,0-1.07,3.06,2.36,2.36,0,0,0,2.76,1,4.42,4.42,0,0,0,2.4-2c.57-.89.87-2.27,0-2.87"/><path class="cls-2" d="M318.35,149.63a44.52,44.52,0,0,1-1.91,11.05l11.75-1.24c.3,0,.65-.09.79-.36a.85.85,0,0,0,0-.61l-.36-2.31a12.7,12.7,0,0,1,2.08,4.16l.41-2a15,15,0,0,0,.6,4.1,19.76,19.76,0,0,1,11.12-2.61l-3.33-5.64a10.33,10.33,0,0,1-1.86-5c0-.28,0-.62-.24-.78a.82.82,0,0,0-.54-.09l-19.55,1.14"/><path class="cls-6" d="M105.84,136.89l-5.48,26.43a43.45,43.45,0,0,1,28.82,1.37,29.9,29.9,0,0,0-.61-7.94l-3.89-23.16a43.42,43.42,0,0,1-14.63,5,7.63,7.63,0,0,1-4.88-.46"/><path class="cls-5" d="M110.63,176.32a26.89,26.89,0,0,0-5.38.18c-1,.14-2.29.52-2.56,1.54a1.89,1.89,0,0,0,1,2,4.73,4.73,0,0,0,2.26.52,4.79,4.79,0,0,0,3.3-.84c1.24-1.06,1.29-2.94,1.18-4.57"/><path class="cls-5" d="M119.08,175.6c-.22,1.55,0,3.36,1.21,4.32,1.42,1.11,3.47.57,5.18,0a.89.89,0,0,0,.54-.35.85.85,0,0,0-.2-.82,7.78,7.78,0,0,0-6.76-3.22"/><path class="cls-2" d="M119.17,162l.32,13.55c0,1.93,3.05,1.93,3,0L122.17,162c0-1.93-3-1.93-3,0Z"/><path class="cls-2" d="M107.77,162.3q-.4,6.87-.21,13.78c.06,1.92,3.06,1.93,3,0q-.19-6.9.21-13.78a1.5,1.5,0,0,0-3,0Z"/><path class="cls-2" d="M112.7,108.47v3.43l3-.4a1.85,1.85,0,0,1,0-.23l.06.4a4.27,4.27,0,0,1,0-1.13l-.06.39a4.84,4.84,0,0,1,.32-1.17H113l.51,3.34a1.49,1.49,0,0,0,1,1.05,1.47,1.47,0,0,0,1.46-.39,5.46,5.46,0,0,0,1.2-4.72l-2.9.8a8.66,8.66,0,0,0,1.52,2.8,1.46,1.46,0,0,0,1.64.31,1.48,1.48,0,0,0,.92-1.37l.08-2.41a1.5,1.5,0,0,0-1.5-1.5,1.53,1.53,0,0,0-1.5,1.5l-.08,2.41,2.57-1.06-.1-.11.24.3a6.76,6.76,0,0,1-.82-1.4l.15.36c-.08-.21-.16-.41-.22-.63a1.65,1.65,0,0,0-.69-.89,1.52,1.52,0,0,0-1.16-.15,1.55,1.55,0,0,0-1,1.84,2.56,2.56,0,0,1,0,.27l-.06-.4a4.35,4.35,0,0,1,0,1l.05-.4a4.31,4.31,0,0,1-.29,1l.15-.36a4,4,0,0,1-.47.82l.23-.31a1,1,0,0,1-.08.11l2.5.66-.5-3.33-.15-.36a1.13,1.13,0,0,0-.39-.42,1.37,1.37,0,0,0-.91-.32,1.83,1.83,0,0,0-.76.2,1.64,1.64,0,0,0-.69.9,6.09,6.09,0,0,0-.28,3.33,1.5,1.5,0,0,0,.69.89,1.54,1.54,0,0,0,1,.18,1.5,1.5,0,0,0,1.3-1.47v-3.43a1.5,1.5,0,0,0-3,0Z"/><path class="cls-2" d="M126.38,116.75,139.07,139c1,1.7,3.39.21,2.59-1.52a51.28,51.28,0,0,0-5.88-10.44c-1.17-1.47-2.62-2.59-3.89-4a15.17,15.17,0,0,1-2.67-5.23l-2.5,1.46a87,87,0,0,1,10.1,15.54c.88,1.72,3.47.2,2.59-1.52a90.71,90.71,0,0,0-10.57-16.15,1.51,1.51,0,0,0-2.51,1.46,21.9,21.9,0,0,0,2.51,5.42c1.17,1.62,2.82,2.77,4.13,4.27,2.69,3.09,4.39,7,6.1,10.67l2.59-1.52L129,115.24a1.5,1.5,0,0,0-2.59,1.51Z"/><path class="cls-2" d="M102,116.16c-2,4.18-4.33,8.27-4.79,13s-.56,9.58-.82,14.36h3c.15-4.54.13-9.11.55-13.63a23.84,23.84,0,0,1,4.23-11.79c1.11-1.58-1.49-3.08-2.59-1.51-5.59,7.89-4.89,17.72-5.19,26.93-.06,1.94,2.9,1.92,3,0,.25-4.49.42-9,.74-13.47s2.57-8.34,4.46-12.32c.82-1.74-1.76-3.26-2.59-1.52Z"/><path class="cls-3" d="M166.74,109a3.62,3.62,0,0,0,.1,1.76,3.56,3.56,0,0,0,.92,1.46,1.59,1.59,0,0,0,1.06.44l.4-.06a1.57,1.57,0,0,0,.66-.38,4.76,4.76,0,0,0,1.69-3.44L169,109.84a4.68,4.68,0,0,1,.53.56l-.23-.3a4.22,4.22,0,0,1,.56,1l-.15-.36a5,5,0,0,1,.27.91l2.74-1.15a2,2,0,0,1-.14-.25l.15.36a2.08,2.08,0,0,1-.11-.41l.06.4a1.55,1.55,0,0,1,0-.43l-.05.4a1.46,1.46,0,0,1,.11-.41l-.16.35a1.65,1.65,0,0,1,.22-.36l-.24.3.17-.17a1.52,1.52,0,0,0,0-2.12,1.54,1.54,0,0,0-2.13,0,3.11,3.11,0,0,0-.47,3.85,1.51,1.51,0,0,0,1.87.62,1.46,1.46,0,0,0,.72-.62,1.69,1.69,0,0,0,.15-1.15,5.48,5.48,0,0,0-1.75-3.1,1.51,1.51,0,0,0-1.64-.31,1.53,1.53,0,0,0-.92,1.37l0,.27.05-.4a3.46,3.46,0,0,1-.21.78l.15-.36a3.48,3.48,0,0,1-.43.75l.23-.3a3.48,3.48,0,0,1-.57.58h2.12a1.65,1.65,0,0,1-.22-.24l.23.3a1.92,1.92,0,0,1-.27-.46l.15.36a2.35,2.35,0,0,1-.14-.52l.05.4a1.93,1.93,0,0,1,0-.48l-.05.39v0a1.12,1.12,0,0,0,0-.6,1.09,1.09,0,0,0-.18-.55,1.49,1.49,0,0,0-.89-.69,1.51,1.51,0,0,0-1.16.15,1.43,1.43,0,0,0-.69.89Z"/><path class="cls-3" d="M160.1,165.93q.19,6.44-.23,12.85a1.5,1.5,0,0,0,1.5,1.5,1.54,1.54,0,0,0,1.5-1.5q.42-6.42.23-12.85c-.06-1.92-3.06-1.93-3,0Z"/><path class="cls-3" d="M174.38,164.37c-1,4.56.77,8.95.77,13.5a1.5,1.5,0,0,0,3,0c0-4.21-1.81-8.51-.88-12.7a1.54,1.54,0,0,0-1-1.85,1.51,1.51,0,0,0-1.85,1.05Z"/><path class="cls-3" d="M150,129c-2.06,1.34-4.13,2.67-6.18,4-1.81,1.2-3.73,2.53-4.78,4.49l2.74,1.16c.17-.42-.06.14,0-.1l.15-.32c.11-.21.22-.43.34-.63a12.28,12.28,0,0,1,.78-1.24l.22-.3c.16-.21-.22.26.08-.1l.49-.58c.35-.38.71-.75,1.09-1.1a14.23,14.23,0,0,1,2.31-1.76q.7-.45,1.44-.84c.45-.23,1.1-.54,1.43-.68a1.55,1.55,0,0,0,1-1.84,1.51,1.51,0,0,0-1.85-1.05c-4.55,1.89-8.56,5.09-10.46,9.74a1.5,1.5,0,0,0,2.74,1.16,6,6,0,0,1,1.65-1.93,22,22,0,0,1,2.36-1.69q2.93-1.92,5.87-3.82a1.54,1.54,0,0,0,.54-2.06A1.51,1.51,0,0,0,150,129Z"/><path class="cls-3" d="M189.29,131.55a63.09,63.09,0,0,1,9.7,9.28l2.12-2.12-5.43-4.93c-.77-.7-1.57-1.38-2.27-2.15a4.8,4.8,0,0,1-.72-.91,5.19,5.19,0,0,1-.35-.66c.06.15,0,0,0-.06s-.09-.29-.12-.43l-2.2,1.69a39.92,39.92,0,0,1,8.92,7.82,1.5,1.5,0,1,0,2.13-2.12,43.14,43.14,0,0,0-9.54-8.29,1.51,1.51,0,0,0-2.2,1.69c.55,2.24,2.32,3.8,4,5.28l5.72,5.19a1.5,1.5,0,0,0,2.12-2.12,63.09,63.09,0,0,0-9.7-9.28,1.54,1.54,0,0,0-2.12,0,1.5,1.5,0,0,0,0,2.12Z"/><path class="cls-4" d="M206.5,127.7a4.56,4.56,0,0,1-1,1.93c-.6.79-1.24,1.55-1.85,2.32l-3.87,4.81,2.36,1.81a36,36,0,0,1,6.62-8l-2.12-2.13a54.86,54.86,0,0,0-6.44,9.49,1.5,1.5,0,1,0,2.59,1.51,51,51,0,0,1,6-8.87,1.5,1.5,0,1,0-2.12-2.13,39.18,39.18,0,0,0-7.09,8.62,1.5,1.5,0,0,0,2.35,1.82l4.13-5.14c1.26-1.56,3-3.19,3.35-5.24a1.53,1.53,0,0,0-1-1.84,1.5,1.5,0,0,0-1.84,1Z"/><path class="cls-4" d="M237.83,128.65c-.87,2.69,3,4.31,4.69,5.46.07,0,.28.21.12.08.14.11.27.24.41.36l1,.92,2.24,2,4.48,4.07,1.82-2.35a49.85,49.85,0,0,1-13.8-10.4c-1.29-1.43-3.41.69-2.12,2.12a52.31,52.31,0,0,0,14.4,10.87c1.45.76,3.13-1.17,1.82-2.36-2.66-2.42-5.27-4.92-8-7.26a24.07,24.07,0,0,0-2.87-1.94,8.38,8.38,0,0,1-1.15-.85l-.2-.2c.19.21,0,0,0-.05s0,.26,0,0c0,.09-.05.55,0,.29.59-1.84-2.3-2.63-2.9-.8Z"/><path class="cls-4" d="M217.83,112a6.51,6.51,0,0,0,.94,4.1,1.51,1.51,0,0,0,2.74-.36,12,12,0,0,0,.23-3.68l-2.8.75,1.2,2.51a1.47,1.47,0,0,0,.89.69,1.5,1.5,0,0,0,1.85-1l.05-.39a1.54,1.54,0,0,0-.2-.76l-1.2-2.51-.23-.31a1.32,1.32,0,0,0-.49-.31,1.47,1.47,0,0,0-1-.07,1.81,1.81,0,0,0-.66.38,1.48,1.48,0,0,0-.44,1.07,10.74,10.74,0,0,1,0,2.47l.06-.4q-.06.41-.15.81l2.75-.35a5.34,5.34,0,0,1-.37-.71l.15.35a5.85,5.85,0,0,1-.36-1.32l.06.4a5.22,5.22,0,0,1,0-1.31,1.52,1.52,0,0,0-.44-1.06,1.56,1.56,0,0,0-1.06-.44,1.54,1.54,0,0,0-1.06.44l-.24.31a1.5,1.5,0,0,0-.2.75Z"/><path class="cls-4" d="M215.24,167.33a29.21,29.21,0,0,1-.88,8.95,1.5,1.5,0,0,0,2.9.79,32.94,32.94,0,0,0,1-9.74,1.5,1.5,0,0,0-3,0Z"/><path class="cls-4" d="M227.21,165.93a28.29,28.29,0,0,0,1.6,11.86,1.54,1.54,0,0,0,1.85,1.05,1.53,1.53,0,0,0,1.05-1.85,26,26,0,0,1-1.5-11.06,1.51,1.51,0,0,0-1.5-1.5,1.54,1.54,0,0,0-1.5,1.5Z"/><path class="cls-5" d="M269.34,159.4a46,46,0,0,1-1,15.47c-.46,1.88,2.43,2.68,2.89.8a48.16,48.16,0,0,0,1.13-16.27,1.54,1.54,0,0,0-1.5-1.5,1.52,1.52,0,0,0-1.5,1.5Z"/><path class="cls-5" d="M281.59,161.49l0,8.95c0,2.5-.34,5.36,1.9,7a1.5,1.5,0,0,0,2.05-.53,1.54,1.54,0,0,0-.54-2.06c-.44-.32-.4-1.42-.41-1.93,0-1.22,0-2.44,0-3.66v-7.8a1.5,1.5,0,0,0-3,0Z"/><path class="cls-5" d="M267.43,121.31q-8.65,8.75-16.64,18.15l2.5,1.46c.41-1.75,2.05-3,3.26-4.22,1.45-1.46,2.84-3,4.4-4.36,1.4-1.2,3-2.1,4.35-3.38a45.65,45.65,0,0,0,3.78-4.32,1.56,1.56,0,0,0,0-2.12,1.51,1.51,0,0,0-2.13,0,41.84,41.84,0,0,1-3.89,4.42c-1.46,1.39-3.25,2.35-4.72,3.73s-3,3-4.53,4.54-2.93,2.88-3.41,4.91c-.32,1.36,1.48,2.67,2.51,1.46q8-9.39,16.64-18.15c1.36-1.38-.76-3.5-2.12-2.12Z"/><path class="cls-5" d="M284.25,123l12,7.13c3.06,1.82,7.92,4,7.91,8.16l2.56-1.06a53.16,53.16,0,0,0-9.52-8.52,49.15,49.15,0,0,0-5.37-3.29c-1.56-.82-4-1.46-5-3s-3.67-.1-2.59,1.51c1.18,1.77,3,2.53,4.83,3.43a52.08,52.08,0,0,1,5.75,3.33,50.34,50.34,0,0,1,9.78,8.65,1.51,1.51,0,0,0,2.56-1.06c0-4.91-4.25-7.69-8-9.93l-13.35-8a1.5,1.5,0,0,0-1.51,2.59Z"/><path class="cls-5" d="M275.08,109.17a43.27,43.27,0,0,0,.15,6.44,1.51,1.51,0,0,0,1.3,1.47,1.53,1.53,0,0,0,1.65-1.07,13.56,13.56,0,0,0,.66-7.84,1.49,1.49,0,0,0-1.65-1.08,1.48,1.48,0,0,0-1.3,1.47l.65,6A1.53,1.53,0,0,0,278,116a1.51,1.51,0,0,0,1.5-1.5l-.65-6L276,109l.09.5,0,.1a6.4,6.4,0,0,1,.07.88,10.76,10.76,0,0,1,0,1.7c0,.07,0,.54,0,.16,0,.12,0,.25-.06.37q-.07.43-.18.87a10.92,10.92,0,0,1-.56,1.67l3,.4a43.27,43.27,0,0,1-.15-6.44,1.5,1.5,0,0,0-1.5-1.5,1.53,1.53,0,0,0-1.5,1.5Z"/><path class="cls-6" d="M329.72,111.27v4.67a1.5,1.5,0,0,0,3,0,16.69,16.69,0,0,0-.2-3.67,1.46,1.46,0,0,0-.69-.9,1.57,1.57,0,0,0-.95-.18,1.49,1.49,0,0,0-1.3,1.47l.2,4.21a1.5,1.5,0,0,0,3,0l-.2-4.21-2.95.4,0,.22c0-.22,0-.24,0-.07s0,.21,0,.32c0,.28,0,.55.05.82a14.06,14.06,0,0,1,0,1.59h3v-4.67a1.5,1.5,0,1,0-3,0Z"/><path class="cls-6" d="M321.07,161v14.14h3c-.28-4.86,2.62-10.12-.53-14.59a1.54,1.54,0,0,0-2-.54,1.51,1.51,0,0,0-.54,2.05,7.91,7.91,0,0,1,1,5.62c-.3,2.49-1,4.92-.87,7.46.12,1.91,3,2,3,0V161a1.5,1.5,0,0,0-3,0Z"/><path class="cls-6" d="M334.39,161q-.09,7.25.44,14.48a1.54,1.54,0,0,0,1.5,1.5,1.51,1.51,0,0,0,1.5-1.5q-.52-7.23-.44-14.48a1.5,1.5,0,0,0-3,0Z"/><path class="cls-6" d="M320.63,121.06a192.38,192.38,0,0,1-12.69,15.25,1.5,1.5,0,0,0,2.13,2.12,35.44,35.44,0,0,0,7.73-8.91c1.66-2.73,3.6-5.83,6.56-7.3l-1.82-2.36a18.19,18.19,0,0,0-4.51,4.28c-.76,1.23-1.21,2.65-1.85,3.94a32.91,32.91,0,0,1-2.14,3.56,37.39,37.39,0,0,1-2.28,3.17c-.19.21.13-.06-.13.1l-.39.22a9.11,9.11,0,0,1-1.15.38,31.18,31.18,0,0,0-5.23,1.46c-1.73.85-.21,3.44,1.52,2.59h0l.29-.1.5-.15c.45-.12.91-.23,1.37-.33.92-.22,1.85-.41,2.75-.7a6.42,6.42,0,0,0,2.45-1.22,19.38,19.38,0,0,0,2.35-3.11,39.17,39.17,0,0,0,2.23-3.51c.75-1.36,1.27-2.81,2-4.19.92-1.81,2.79-3,4.37-4.27a1.5,1.5,0,0,0-1.82-2.35c-3.09,1.53-5.48,4.73-7.19,7.63a34.18,34.18,0,0,1-7.72,9l2.13,2.12a205.38,205.38,0,0,0,13.15-15.85,1.5,1.5,0,0,0-.54-2,1.53,1.53,0,0,0-2.05.53Z"/><path class="cls-6" d="M336,124.05c3.82,4.27,5.14,10.09,6.41,15.52.35,1.53,2.44,1.32,2.89,0,1-3-.07-6.21-1.7-8.78s-3.74-4.57-4.73-7.34a1.53,1.53,0,0,0-1.84-1,1.5,1.5,0,0,0-1.05,1.84c1,2.72,2.79,4.84,4.43,7.16,1.49,2.12,2.89,4.73,2,7.36h2.89c-1.4-6-3-12.14-7.18-16.84-1.29-1.45-3.4.68-2.12,2.12Z"/><rect class="cls-9" x="33.34" y="202.34" width="73.67" height="73.67"/><rect class="cls-5" x="40.48" y="209.48" width="59.39" height="59.39" rx="6.66"/><path class="cls-10" d="M69.32,262.64c-1.65,0-2-.19-2.29-.95-1.78-4.32-5.52-12.89-8.7-19.49L47.6,219.84c-.32-.63-.32-.7-1-.89l-2-.51c-.38-.12-.51-.25-.51-1.39s.13-1.34.51-1.34c1.46,0,5.59.45,10.22.45,3.37,0,12.77-.45,14.23-.45.38,0,.51.19.51,1.34s-.13,1.33-.51,1.39l-3.75.51c-.63.07-.76.26-.44.89l11.24,23.5,5-13.78c3.18-8.83,2.74-9.21.89-9.91l-3.3-1.21c-.38-.12-.51-.31-.51-1.46s.13-1.27.51-1.27c1.46,0,5.53.45,8.89.45s6.54-.45,8-.45c.38,0,.51.13.51,1.27s-.13,1.27-.51,1.46l-2.09,1c-1.91.89-2.16,1.27-6.42,9.84l-6.47,13c-3.31,6.6-7.31,15.17-9.09,19.49C71.29,262.45,71,262.64,69.32,262.64Z"/><rect class="cls-11" x="111" y="202.34" width="73.67" height="73.67"/><rect class="cls-2" x="118.14" y="209.48" width="59.39" height="59.39" rx="6.66"/><path class="cls-10" d="M165.79,262.66c-4.32,0-10-.44-16.89-.44h-6.67c-8.44,0-15.94.44-17.4.44-.38,0-.51-.19-.51-1.33s.13-1.34.51-1.4l2.8-.45c.63-.12.76-.25.76-.88V220.11c0-.63-.13-.76-.76-.89l-2.8-.44c-.38-.07-.51-.26-.51-1.4s.13-1.33.51-1.33c1.46,0,8.07.44,19.69.44h1.33c7.18,0,18.23-.38,21.78-.38,1.27,0,1.4.13,1.4,1.4a126,126,0,0,1-.95,14.67c-.06.51-.26.63-1.72.63s-1.65-.12-1.84-.63c-1.71-5-2.16-6.67-3.74-10.42a2.27,2.27,0,0,0-2.23-1.65c-3.17-.44-10.29-1-12.7-1h-.25c-.64,0-.76.13-.76.76V237h4.7c1.27,0,1.52-.19,2.09-1.46,1.33-3,1.84-4.12,3-6.67.19-.38.25-.44,1.71-.44s1.59.13,1.59.64c0,3.68-.07,5.9-.07,9.52s.07,5.84.07,9.53c0,.51-.13.63-1.59.63s-1.52-.06-1.71-.44c-1.15-2.54-1.66-3.69-3-6.67-.57-1.27-.82-1.46-2.09-1.46h-4.7v16a3.25,3.25,0,0,0,1,2.48,3,3,0,0,0,2.22.89,55.68,55.68,0,0,0,9.66-1,2.87,2.87,0,0,0,2.41-1.78c2.22-3.81,4.45-8.06,6.8-12.19.25-.44.38-.51.76-.51,1,0,3,.51,2.86,1.15-.89,5.2-2.1,11.36-3.12,16.06C167.19,262.53,167.06,262.66,165.79,262.66Z"/><rect class="cls-12" x="188.66" y="202.34" width="73.67" height="73.67"/><rect class="cls-3" x="195.8" y="209.48" width="59.39" height="59.39" rx="6.66"/><path class="cls-10" d="M232.77,216.15a78.24,78.24,0,0,1,13.21.95c1.27.19,1.39.38,1.58,1.65a88.47,88.47,0,0,1,1,12.45c0,.51-.25.64-1.71.64s-1.66-.13-1.85-.64a28.21,28.21,0,0,0-5.84-9.21c-2.16-2.16-4.38-3.05-8.19-3.05-6.42,0-11.69,4.26-11.69,14.29,0,10.48,3.43,20.9,7.94,25.41a7.24,7.24,0,0,0,5.46,2.41c2.29,0,4.45-.95,6.73-3.24,2.67-2.67,5.09-7.56,6.42-11.37.19-.5.38-.63,1.84-.63s1.72.13,1.72.63c0,2-1,9.21-1.78,14.61-.19,1.27-.38,1.46-1.65,1.65a100.49,100.49,0,0,1-15.37.95c-17.21,0-29-8.82-29-23.43C201.59,224.79,216.45,216.15,232.77,216.15Z"/><rect class="cls-13" x="343.98" y="202.66" width="73.67" height="73.67"/><rect class="cls-4" x="351.12" y="209.8" width="59.39" height="59.39" rx="6.66"/><path class="cls-10" d="M387,215.75a78.16,78.16,0,0,1,13.21.95c1.27.19,1.4.38,1.59,1.65a90,90,0,0,1,1,12.45c0,.5-.25.63-1.71.63s-1.65-.13-1.84-.63a28.13,28.13,0,0,0-5.85-9.21c-2.16-2.16-4.38-3.05-8.19-3.05-6.41,0-11.68,4.25-11.68,14.29,0,10.48,3.43,20.89,7.93,25.4a7.28,7.28,0,0,0,5.47,2.41c2.28,0,4.44-.95,6.73-3.23,2.67-2.67,5.08-7.56,6.41-11.37.19-.51.38-.64,1.84-.64s1.72.13,1.72.64c0,2-.95,9.21-1.78,14.6-.19,1.27-.38,1.46-1.65,1.66a101.78,101.78,0,0,1-15.37.95c-17.21,0-29-8.83-29-23.44C355.79,224.38,370.65,215.75,387,215.75Z"/><rect class="cls-14" x="266.32" y="202.66" width="73.67" height="73.67"/><rect class="cls-6" x="273.46" y="209.8" width="59.39" height="59.39" rx="6.66"/><path class="cls-10" d="M299.45,262.8c-1.46,0-6.47-.44-11.74-.44s-10.36.44-11.82.44c-.38,0-.5-.19-.5-1.33s.12-1.33.5-1.4l2.8-.44c.63-.13.76-.26.76-.89V220.25c0-.63-.13-.76-.76-.88l-2.8-.45c-.38-.06-.5-.25-.5-1.4s.12-1.33.5-1.33c3.69,0,8.64.44,14.67.44H294c2.29,0,9.34-.25,13.66-.25,10.67,0,15.49,4.38,15.49,11.11,0,5.08-3,9.34-9.21,11.44,1.4,2.66,2.86,4.95,6.29,10.35,5.53,8.57,6.8,10.28,9,10.54l1.52.19c.38.06.51.25.51,1.4s-.13,1.33-.51,1.33-6.54-.32-11.18-.32c-3.55,0-7.43.32-8.25.32a1.5,1.5,0,0,1-1.53-.95c-2.86-5.27-6.09-11.37-9.84-17.28-1.4-2.22-1.78-2.47-3.75-2.6h-.25v16.83c0,.63.12.76.76.89l2.79.44c.39.07.51.26.51,1.4S299.84,262.8,299.45,262.8Zm6.35-33.34c0-5.9-2.92-10.29-8.76-10.29h-.38c-.64,0-.76.13-.76.77v19a10.89,10.89,0,0,0,2.47.25C301.74,239.18,305.8,237.27,305.8,229.46Z"/></svg>