<svg id="Layer_1" data-name="Layer 1" xmlns="http://www.w3.org/2000/svg" viewBox="0 0 75.72 75.91"><defs><style>.cls-1,.cls-3{fill:#fff;}.cls-1{stroke:#d3290a;stroke-miterlimit:10;stroke-width:2px;}.cls-2{fill:#d3290a;}</style></defs><rect class="cls-1" x="1.07" y="0.99" width="73.67" height="73.67"/><rect class="cls-2" x="8.21" y="8.13" width="59.39" height="59.39" rx="6.66"/><path class="cls-3" d="M31.09,23.09c.29,2.29,1.11,4.83,3.34,5.85a5.92,5.92,0,0,0,5.38-.53,11.32,11.32,0,0,0,3.64-3.93c1.31-2.12,2.32-4.59,1.77-7a6.54,6.54,0,0,0-4.51-4.61,7.26,7.26,0,0,0-6.57,1.34c-2.82,2.39-2.92,6.4-2.81,9.94"/><path class="cls-3" d="M34.6,13.82a9.09,9.09,0,0,1,4.88-.94,4.48,4.48,0,0,1,1.16.1,4.61,4.61,0,0,1,1,.46l1.77,1a1.86,1.86,0,0,1,.59.44,1.88,1.88,0,0,1,.26.64,38,38,0,0,1,.83,4.09"/><path class="cls-3" d="M35.36,15.11a5.47,5.47,0,0,1,2.63-.7l1.59,0a2.24,2.24,0,0,1,1.32.36l1.59.89.31.17c.31.17,0,0,0,0s-.07-.21,0,.11c0,.13.06.26.09.39A35.91,35.91,0,0,1,43.65,20,1.51,1.51,0,0,0,45.5,21a1.53,1.53,0,0,0,1-1.84,29.55,29.55,0,0,0-.88-4.26,3,3,0,0,0-1.49-1.8c-.64-.37-1.28-.73-1.93-1.08a5.1,5.1,0,0,0-2.38-.67,18.5,18.5,0,0,0-2,0,8.72,8.72,0,0,0-4.06,1.1,1.54,1.54,0,0,0-.54,2.06,1.52,1.52,0,0,0,2.06.53Z"/><path class="cls-3" d="M34.49,32.27a3.62,3.62,0,0,0-2.57,2A10.69,10.69,0,0,1,30,37a5.83,5.83,0,0,1,2.72,2.74,6.89,6.89,0,0,1,6.9-3.5A9.5,9.5,0,0,1,45,40.62a15.28,15.28,0,0,0,3-3.54,1.56,1.56,0,0,0,.3-1.31,1.64,1.64,0,0,0-.64-.64,26.12,26.12,0,0,0-8.92-3.71c-1.56-.33-3.37-.45-4.57.61"/><path class="cls-3" d="M35.39,36.17q.87,5.55,1.81,11.09a7.64,7.64,0,0,1,3.94.19.84.84,0,0,0,.54,0c.31-.13.36-.58.36-1l0-12.38"/><path class="cls-3" d="M36.5,46.89l5,0a.88.88,0,0,1,.79.27,1.19,1.19,0,0,1,.14.53l.77,6.84c.1.93.08,2.12-.67,2.49s-1.59-.52-2-1.38-.83-1.9-1.68-2c.06,1.41,0,3.1-1,3.87a3.3,3.3,0,0,1-2.14.4l-1.34-.07a1,1,0,0,1-.64-.18,1.1,1.1,0,0,1-.3-.67,8.21,8.21,0,0,1,.42-3.57c.71-2.54,1.52-5,2.41-7.5"/><path class="cls-3" d="M35,62.8c-.67.17-1.47-.2-2,.22s-.41,1.06-.32,1.63a.39.39,0,0,0,.06.18.34.34,0,0,0,.22.09,2.67,2.67,0,0,0,1.85-.23,1.29,1.29,0,0,0,.55-1.63"/><path class="cls-3" d="M43.47,62.66a2.06,2.06,0,0,0-1.57.56A1,1,0,0,0,42,64.73a1.13,1.13,0,0,0,.65.14A2.2,2.2,0,0,0,44.29,64a1.25,1.25,0,0,0,.27-1,.7.7,0,0,0-.82-.53"/><path class="cls-3" d="M31.09,38.06a3.29,3.29,0,0,1-.8,1.46L27.5,43A19.23,19.23,0,0,1,31,38.77a26.53,26.53,0,0,0-3.14,4.65"/><path class="cls-3" d="M29.64,37.67a2.34,2.34,0,0,0-.09.33c.1-.22.12-.26.05-.12l-.09.16-.14.22-.11.15c-.09.12-.07.09.08-.09a4.89,4.89,0,0,0-.45.55l-.49.62-2,2.43,2.36,1.82a13.14,13.14,0,0,1,.72-1.11l.39-.53-.06.08L30,42l.2-.25a20.19,20.19,0,0,1,1.86-2l-2.12-2.12a29.25,29.25,0,0,0-3.38,4.95,1.55,1.55,0,0,0,.54,2.06,1.53,1.53,0,0,0,2.05-.54,27.09,27.09,0,0,1,1.43-2.37c.25-.37.51-.74.78-1.1l.09-.12c.1-.13.08-.1-.06.07,0-.08.16-.2.21-.26l.46-.57a1.56,1.56,0,0,0,.44-1.06,1.5,1.5,0,0,0-2.56-1.06,20.9,20.9,0,0,0-3.71,4.51A1.5,1.5,0,0,0,28.56,44l2.09-2.6a7.47,7.47,0,0,0,1.89-3,1.59,1.59,0,0,0-.16-1.15,1.5,1.5,0,0,0-.89-.69,1.52,1.52,0,0,0-1.85,1.05Z"/><path class="cls-3" d="M47,38.54c-.3.76,1.63,1.51,2.34,2.16l4,3.65A25.49,25.49,0,0,1,46.18,39"/><path class="cls-3" d="M45.5,38.14c-.58,1.8,1.51,2.82,2.72,3.6.23.16,0-.07-.09-.07s.2.18.2.18l.52.47,1.13,1,2.27,2.06,1.82-2.36a29.8,29.8,0,0,1-3.91-2.45L50,40.45c.15.14.1.08,0,0l-.42-.33c-.27-.22-.53-.45-.79-.68-.52-.48-1-1-1.5-1.51A1.5,1.5,0,0,0,45.12,40a27,27,0,0,0,7.43,5.61,1.51,1.51,0,0,0,1.94-.38,1.48,1.48,0,0,0-.12-2c-1.34-1.23-2.66-2.49-4-3.68a16.32,16.32,0,0,0-1.61-1.1l-.36-.24c-.17-.12.08,0,.1.08a.83.83,0,0,0-.17-.15s-.08-.1-.1-.1c.13,0,.21.32.11.12s.12.39.08.18l0,.3c-.06.31-.07.39,0,.24a1.52,1.52,0,0,0-1-1.84,1.54,1.54,0,0,0-1.85,1Z"/><path class="cls-3" d="M36.85,29.9a2.64,2.64,0,0,0,.37,1.69,5.14,5.14,0,0,0,.09-1.66l.61,1.27"/><path class="cls-3" d="M35.35,29.9a4,4,0,0,0,.1,1.28,2.25,2.25,0,0,0,.13.42,4.26,4.26,0,0,0,.35.75l.23.3.31.24.35.15a1.11,1.11,0,0,0,.6,0,.72.72,0,0,0,.38-.1.69.69,0,0,0,.33-.19.87.87,0,0,0,.27-.27,1.26,1.26,0,0,0,.27-.51,6.8,6.8,0,0,0,.14-2.06L36,30.68l.6,1.27a1.15,1.15,0,0,0,.39.43,1,1,0,0,0,.51.26,1,1,0,0,0,.6,0,1.09,1.09,0,0,0,.55-.18,1.47,1.47,0,0,0,.69-.89l.06-.4a1.45,1.45,0,0,0-.21-.76l-.6-1.27-.24-.3a1,1,0,0,0-.48-.31.73.73,0,0,0-.38-.11,1.22,1.22,0,0,0-.6,0l-.36.15-.3.24a1,1,0,0,0-.31.48,1.15,1.15,0,0,0-.13.58,5.23,5.23,0,0,1,0,1.25l.05-.4c0,.14,0,.28-.07.41l2.74-.36a3,3,0,0,1-.19-.36l.15.36a3,3,0,0,1-.18-.67l.06.4a2.91,2.91,0,0,1,0-.66,1.06,1.06,0,0,0-.13-.58,1.14,1.14,0,0,0-.31-.48,1,1,0,0,0-.48-.31,1.15,1.15,0,0,0-.58-.13,1.52,1.52,0,0,0-1.06.44l-.23.3a1.48,1.48,0,0,0-.21.76Z"/><path class="cls-3" d="M35.54,57.92a15.38,15.38,0,0,1-.47,4.73"/><path class="cls-3" d="M34,57.92a16.18,16.18,0,0,1-.11,2.87l0-.4a14.54,14.54,0,0,1-.36,1.86,1.5,1.5,0,0,0,2.9.8A17.39,17.39,0,0,0,37,57.92a1.5,1.5,0,0,0-3,0Z"/><path class="cls-3" d="M41.6,57.21a13.77,13.77,0,0,0,.78,5.8"/><path class="cls-3" d="M40.1,57.21a14.86,14.86,0,0,0,.84,6.2,1.5,1.5,0,1,0,2.89-.8,14.72,14.72,0,0,1-.44-1.43,9.19,9.19,0,0,1-.26-1.37c0,.42,0,0,0,0l0-.37c0-.23,0-.47,0-.7,0-.5,0-1,0-1.5a1.51,1.51,0,0,0-1.5-1.5,1.54,1.54,0,0,0-1.5,1.5Z"/></svg>